<svg xmlns="http://www.w3.org/2000/svg" xmlns:xlink="http://www.w3.org/1999/xlink" contentStyleType="text/css" data-diagram-type="DESCRIPTION" height="849px" preserveAspectRatio="none" style="width:1140px;height:849px;background:#FFFFFF;" version="1.1" viewBox="0 0 1140 849" width="1140px" zoomAndPan="magnify"><title>Exporter &#32593;&#32476;&#38548;&#31163;</title><defs/><g><g class="title" data-source-line="4"><text fill="#174B50" font-family="Noto Sans CJK SC" font-size="18" font-weight="bold" lengthAdjust="spacing" textLength="153.8631" x="488.9235" y="43.8799">Exporter &#32593;&#32476;&#38548;&#31163;</text></g><!--cluster control--><g class="cluster" data-entity="control" data-source-line="8" data-uid="ent0003" id="cluster_control"><polygon fill="#EFF6FF" points="21,402.3338,31,392.3338,207,392.3338,207,534.3338,197,544.3338,21,544.3338,21,402.3338" style="stroke:#000000;stroke-width:1;"/><line style="stroke:#000000;stroke-width:1;" x1="197" x2="207" y1="402.3338" y2="392.3338"/><line style="stroke:#000000;stroke-width:1;" x1="21" x2="197" y1="402.3338" y2="402.3338"/><line style="stroke:#000000;stroke-width:1;" x1="197" x2="197" y1="402.3338" y2="544.3338"/><text fill="#24383B" font-family="Noto Sans CJK SC" font-size="14" font-weight="bold" lengthAdjust="spacing" textLength="94.4017" x="62.7992" y="429.5738">Control Plane</text></g><!--cluster normal--><g class="cluster" data-entity="normal" data-source-line="12" data-uid="ent0005" id="cluster_normal"><polygon fill="#ECFDF5" points="533.19,402.3338,543.19,392.3338,1123.71,392.3338,1123.71,594.3338,1113.71,604.3338,533.19,604.3338,533.19,402.3338" style="stroke:#000000;stroke-width:1;"/><line style="stroke:#000000;stroke-width:1;" x1="1113.71" x2="1123.71" y1="402.3338" y2="392.3338"/><line style="stroke:#000000;stroke-width:1;" x1="533.19" x2="1113.71" y1="402.3338" y2="402.3338"/><line style="stroke:#000000;stroke-width:1;" x1="1113.71" x2="1113.71" y1="402.3338" y2="604.3338"/><text fill="#24383B" font-family="Noto Sans CJK SC" font-size="14" font-weight="bold" lengthAdjust="spacing" textLength="129.4575" x="759.7212" y="429.5738">Normal Data Plane</text></g><!--cluster ai--><g class="cluster" data-entity="ai" data-source-line="18" data-uid="ent0009" id="cluster_ai"><polygon fill="#FFF7ED" points="533.19,166.3338,543.19,156.3338,1123.71,156.3338,1123.71,358.3338,1113.71,368.3338,533.19,368.3338,533.19,166.3338" style="stroke:#000000;stroke-width:1;"/><line style="stroke:#000000;stroke-width:1;" x1="1113.71" x2="1123.71" y1="166.3338" y2="156.3338"/><line style="stroke:#000000;stroke-width:1;" x1="533.19" x2="1113.71" y1="166.3338" y2="166.3338"/><line style="stroke:#000000;stroke-width:1;" x1="1113.71" x2="1113.71" y1="166.3338" y2="368.3338"/><text fill="#24383B" font-family="Noto Sans CJK SC" font-size="14" font-weight="bold" lengthAdjust="spacing" textLength="145.3055" x="751.7973" y="193.5738">Taiwan AI Data Plane</text></g><!--entity prometheus--><g class="entity" data-entity="prometheus" data-source-line="9" data-uid="ent0004" id="entity_prometheus"><rect fill="#FEE2E2" height="76.5438" rx="4" ry="4" style="stroke:#52777A;stroke-width:1;" width="153.0675" x="36.97" y="452.0638"/><text fill="#24383B" font-family="Noto Sans CJK SC" font-size="14" lengthAdjust="spacing" textLength="80.0797" x="73.4639" y="486.3038">Prometheus</text><text fill="#24383B" font-family="Noto Sans CJK SC" font-size="14" lengthAdjust="spacing" textLength="117.0675" x="54.97" y="506.5757">loopback API only</text></g><!--entity normalFirewall--><g class="entity" data-entity="normalFirewall" data-source-line="13" data-uid="ent0006" id="entity_normalFirewall"><rect fill="#FEF3C7" height="96.8157" rx="4" ry="4" style="stroke:#52777A;stroke-width:1;" width="216.2353" x="549.19" y="451.9238"/><text fill="#24383B" font-family="Noto Sans CJK SC" font-size="14" lengthAdjust="spacing" textLength="85.4697" x="614.5728" y="486.1638">Host Firewall</text><text fill="#24383B" font-family="Noto Sans CJK SC" font-size="14" lengthAdjust="spacing" textLength="180.2353" x="567.19" y="506.4357">EXPORTER_BIND_ADDRESS</text><text fill="#24383B" font-family="Noto Sans CJK SC" font-size="14" lengthAdjust="spacing" textLength="161.3914" x="576.612" y="526.7076">Compose default: 0.0.0.0</text></g><!--entity normalNode--><g class="entity" data-entity="normalNode" data-source-line="14" data-uid="ent0007" id="entity_normalNode"><rect fill="#F8FAFC" height="56.2719" rx="4" ry="4" style="stroke:#52777A;stroke-width:1;" width="130.1076" x="977.6" y="532.1938"/><text fill="#24383B" font-family="Noto Sans CJK SC" font-size="14" lengthAdjust="spacing" textLength="94.1076" x="995.6" y="566.4338">node-exporter</text></g><!--entity normalCadvisor--><g class="entity" data-entity="normalCadvisor" data-source-line="15" data-uid="ent0008" id="entity_normalCadvisor"><rect fill="#F8FAFC" height="56.2719" rx="4" ry="4" style="stroke:#52777A;stroke-width:1;" width="91.9438" x="996.69" y="452.1938"/><text fill="#24383B" font-family="Noto Sans CJK SC" font-size="14" lengthAdjust="spacing" textLength="55.9438" x="1014.69" y="486.4338">cAdvisor</text></g><!--entity aiFirewall--><g class="entity" data-entity="aiFirewall" data-source-line="19" data-uid="ent0010" id="entity_aiFirewall"><rect fill="#FEF3C7" height="96.8157" rx="4" ry="4" style="stroke:#52777A;stroke-width:1;" width="216.2353" x="549.19" y="250.9238"/><text fill="#24383B" font-family="Noto Sans CJK SC" font-size="14" lengthAdjust="spacing" textLength="156.9114" x="578.852" y="285.1638">Tailscale + Host Firewall</text><text fill="#24383B" font-family="Noto Sans CJK SC" font-size="14" lengthAdjust="spacing" textLength="180.2353" x="567.19" y="305.4357">EXPORTER_BIND_ADDRESS</text><text fill="#24383B" font-family="Noto Sans CJK SC" font-size="14" lengthAdjust="spacing" textLength="161.3914" x="576.612" y="325.7076">Compose default: 0.0.0.0</text></g><!--entity aiNode--><g class="entity" data-entity="aiNode" data-source-line="20" data-uid="ent0011" id="entity_aiNode"><rect fill="#F8FAFC" height="56.2719" rx="4" ry="4" style="stroke:#52777A;stroke-width:1;" width="130.1076" x="977.6" y="296.1938"/><text fill="#24383B" font-family="Noto Sans CJK SC" font-size="14" lengthAdjust="spacing" textLength="94.1076" x="995.6" y="330.4338">node-exporter</text></g><!--entity aiCadvisor--><g class="entity" data-entity="aiCadvisor" data-source-line="21" data-uid="ent0012" id="entity_aiCadvisor"><rect fill="#F8FAFC" height="56.2719" rx="4" ry="4" style="stroke:#52777A;stroke-width:1;" width="91.9438" x="996.69" y="216.1938"/><text fill="#24383B" font-family="Noto Sans CJK SC" font-size="14" lengthAdjust="spacing" textLength="55.9438" x="1014.69" y="250.4338">cAdvisor</text></g><!--entity publicClient--><g class="entity" data-entity="publicClient" data-source-line="6" data-uid="ent0002" id="entity_publicClient"><ellipse cx="113.5067" cy="268.6938" fill="#FFFFFF" rx="8" ry="8" style="stroke:#000000;stroke-width:1;"/><path d="M113.5067,276.6938 L113.5067,303.6938 M100.5067,284.6938 L126.5067,284.6938 M113.5067,303.6938 L100.5067,318.6938 M113.5067,303.6938 L126.5067,318.6938" fill="none" style="stroke:#000000;stroke-width:1;"/><text fill="#24383B" font-family="Noto Sans CJK SC" font-size="14" lengthAdjust="spacing" textLength="163.3934" x="31.81" y="344.9338">Untrusted Internet Client</text></g><g class="entity" data-entity="GMN21" data-source-line="42" data-uid="ent0022" id="entity_GMN21"><path d="M425,78.0638 L425,136.6077 A4,4 0 0 0 429,140.6077 L653.3,140.6077 L657.3,250.5838 L661.3,140.6077 L885.6003,140.6077 A4,4 0 0 0 889.6003,136.6077 L889.6003,84.0638 L879.6003,74.0638 L429,74.0638 A4,4 0 0 0 425,78.0638" fill="#FFF7D6" style="stroke:#D2AD4A;stroke-width:1;"/><path d="M879.6003,74.0638 L879.6003,82.0638 A2,2 0 0 0 881.6003,84.0638 L889.6003,84.0638 L879.6003,74.0638" fill="#FFF7D6" style="stroke:#D2AD4A;stroke-width:1;"/><text fill="#594C26" font-family="Noto Sans CJK SC" font-size="14" lengthAdjust="spacing" textLength="243.781" x="439" y="103.3038">Check the effective host port binding.</text><text fill="#594C26" font-family="Noto Sans CJK SC" font-size="14" lengthAdjust="spacing" textLength="427.6003" x="439" y="123.5757">Firewall and cloud security group must allow only scrape sources.</text></g><!--link publicClient to normalFirewall--><g class="link" data-entity-1="publicClient" data-entity-2="normalFirewall" data-source-line="24" data-uid="lnk13" id="link_publicClient_normalFirewall"><path d="M203.56,343.9438 C210.11,346.2038 216.64,348.3638 223,350.3338 C304.99,375.6638 329.52,367.4338 411,394.3338 C459.13,410.2238 505.3891,429.3902 548.8691,448.9702" fill="none" id="publicClient-to-normalFirewall" style="stroke:#DC2626;stroke-width:1.4;stroke-dasharray:7,7;"/><polygon fill="#DC2626" points="554.34,451.4338,547.7761,444.0911,549.7809,449.3808,544.4913,451.3856,554.34,451.4338" style="stroke:#DC2626;stroke-width:1.4;"/><text fill="#36575B" font-family="Noto Sans CJK SC" font-size="14" lengthAdjust="spacing" textLength="45.2618" x="294.5" y="337.5738">denied</text></g><!--link publicClient to aiFirewall--><g class="link" data-entity-1="publicClient" data-entity-2="aiFirewall" data-source-line="25" data-uid="lnk14" id="link_publicClient_aiFirewall"><path d="M203.67,306.8538 C298.29,305.2838 441.8108,302.8936 542.8608,301.2136" fill="none" id="publicClient-to-aiFirewall" style="stroke:#DC2626;stroke-width:1.4;stroke-dasharray:7,7;"/><polygon fill="#DC2626" points="548.86,301.1138,539.7948,297.264,543.8607,301.197,539.9277,305.2629,548.86,301.1138" style="stroke:#DC2626;stroke-width:1.4;"/><text fill="#36575B" font-family="Noto Sans CJK SC" font-size="14" lengthAdjust="spacing" textLength="45.2618" x="294.5" y="290.8038">denied</text></g><!--link prometheus to normalFirewall--><g class="link" data-entity-1="prometheus" data-entity-2="normalFirewall" data-source-line="26" data-uid="lnk15" id="link_prometheus_normalFirewall"><path d="M190.31,499.0038 C201.27,499.9738 212.41,500.7938 223,501.3338 C334.01,506.9438 455.2116,505.8813 542.9416,503.8713" fill="none" id="prometheus-to-normalFirewall" style="stroke:#426C70;stroke-width:1.4;"/><polygon fill="#426C70" points="548.94,503.7338,539.8507,499.941,543.9413,503.8484,540.034,507.9389,548.94,503.7338" style="stroke:#426C70;stroke-width:1.4;"/><text fill="#36575B" font-family="Noto Sans CJK SC" font-size="14" lengthAdjust="spacing" textLength="109.7316" x="262.5" y="488.5738">restricted scrape</text></g><!--link normalFirewall to normalNode--><g class="link" data-entity-1="normalFirewall" data-entity-2="normalNode" data-source-line="27" data-uid="lnk16" id="link_normalFirewall_normalNode"><path d="M765.85,517.1638 C833.85,527.8138 913.5323,540.2755 971.1923,549.3055" fill="none" id="normalFirewall-to-normalNode" style="stroke:#426C70;stroke-width:1.4;"/><polygon fill="#426C70" points="977.12,550.2338,968.8473,544.8895,972.1802,549.4602,967.6095,552.7932,977.12,550.2338" style="stroke:#426C70;stroke-width:1.4;"/></g><!--link normalFirewall to normalCadvisor--><g class="link" data-entity-1="normalFirewall" data-entity-2="normalCadvisor" data-source-line="28" data-uid="lnk17" id="link_normalFirewall_normalCadvisor"><path d="M765.85,494.7238 C842.04,490.7438 934.3682,485.9367 990.6782,482.9967" fill="none" id="normalFirewall-to-normalCadvisor" style="stroke:#426C70;stroke-width:1.4;"/><polygon fill="#426C70" points="996.67,482.6838,987.4737,479.1585,991.6768,482.9445,987.8908,487.1477,996.67,482.6838" style="stroke:#426C70;stroke-width:1.4;"/></g><!--link prometheus to aiFirewall--><g class="link" data-entity-1="prometheus" data-entity-2="aiFirewall" data-source-line="29" data-uid="lnk18" id="link_prometheus_aiFirewall"><path d="M190.41,468.8238 C201.3,466.0938 212.4,463.5038 223,461.3338 C305.7,444.4038 330.95,461.1138 411,434.3338 C472.66,413.7038 531.7661,380.9704 579.0061,351.3604" fill="none" id="prometheus-to-aiFirewall" style="stroke:#426C70;stroke-width:1.4;"/><polygon fill="#426C70" points="584.09,348.1738,574.3398,349.5644,579.8534,350.8293,578.5886,356.3429,584.09,348.1738" style="stroke:#426C70;stroke-width:1.4;"/><text fill="#36575B" font-family="Noto Sans CJK SC" font-size="14" lengthAdjust="spacing" textLength="170.2673" x="232" y="421.5738">restricted Tailscale scrape</text></g><!--link aiFirewall to aiNode--><g class="link" data-entity-1="aiFirewall" data-entity-2="aiNode" data-source-line="30" data-uid="lnk19" id="link_aiFirewall_aiNode"><path d="M765.91,311.9838 C808.7,316.4538 858.42,320.9638 903.6,323.3338 C927.66,324.5938 948.1,325.0109 971.35,325.0609" fill="none" id="aiFirewall-to-aiNode" style="stroke:#426C70;stroke-width:1.4;"/><polygon fill="#426C70" points="977.35,325.0738,968.3586,321.0545,972.35,325.0631,968.3414,329.0545,977.35,325.0738" style="stroke:#426C70;stroke-width:1.4;"/><text fill="#36575B" font-family="Noto Sans CJK SC" font-size="14" lengthAdjust="spacing" textLength="34.9719" x="916.6" y="310.5738">:9100</text></g><!--link aiFirewall to aiCadvisor--><g class="link" data-entity-1="aiFirewall" data-entity-2="aiCadvisor" data-source-line="31" data-uid="lnk20" id="link_aiFirewall_aiCadvisor"><path d="M765.85,283.9038 C842.04,272.9738 934.4208,259.7161 990.7308,251.6361" fill="none" id="aiFirewall-to-aiCadvisor" style="stroke:#426C70;stroke-width:1.4;"/><polygon fill="#426C70" points="996.67,250.7838,987.1931,248.1027,991.7207,251.494,988.3294,256.0216,996.67,250.7838" style="stroke:#426C70;stroke-width:1.4;"/><text fill="#36575B" font-family="Noto Sans CJK SC" font-size="14" lengthAdjust="spacing" textLength="42.7419" x="912.6" y="243.4538">:18081</text></g><g class="legend" data-source-line="33"><rect fill="none" height="211.3596" rx="4" ry="4" style="stroke:#000000;stroke-width:1;" width="263.5472" x="858.1628" y="625.3338"/><text fill="#24383B" font-family="Noto Sans CJK SC" font-size="14" font-weight="bold" lengthAdjust="spacing" textLength="37.2258" x="882.3408" y="664.5738">Color</text><text fill="#24383B" font-family="Noto Sans CJK SC" font-size="14" font-weight="bold" lengthAdjust="spacing" textLength="58.9118" x="941.9227" y="664.5738">Meaning</text><rect fill="#DCFCE7" height="36.2719" style="stroke:none;stroke-width:1;" width="59.5818" x="871.1628" y="676.6057"/><text fill="#24383B" font-family="Noto Sans CJK SC" font-size="14" lengthAdjust="spacing" textLength="3.136" x="879.1628" y="700.8457">&#160;</text><text fill="#24383B" font-family="Noto Sans CJK SC" font-size="14" lengthAdjust="spacing" textLength="137.2415" x="941.8807" y="700.8457">Data plane boundary</text><rect fill="#EFF6FF" height="36.2719" style="stroke:none;stroke-width:1;" width="59.5818" x="871.1628" y="712.8777"/><text fill="#24383B" font-family="Noto Sans CJK SC" font-size="14" lengthAdjust="spacing" textLength="3.136" x="879.1628" y="737.1176">&#160;</text><text fill="#24383B" font-family="Noto Sans CJK SC" font-size="14" lengthAdjust="spacing" textLength="155.6934" x="941.8807" y="737.1176">Control plane boundary</text><rect fill="#FEF3C7" height="36.2719" style="stroke:none;stroke-width:1;" width="59.5818" x="871.1628" y="749.1496"/><text fill="#24383B" font-family="Noto Sans CJK SC" font-size="14" lengthAdjust="spacing" textLength="3.136" x="879.1628" y="773.3895">&#160;</text><text fill="#24383B" font-family="Noto Sans CJK SC" font-size="14" lengthAdjust="spacing" textLength="143.3594" x="941.8807" y="773.3895">Network enforcement</text><rect fill="#FEE2E2" height="36.2719" style="stroke:none;stroke-width:1;" width="59.5818" x="871.1628" y="785.4215"/><text fill="#24383B" font-family="Noto Sans CJK SC" font-size="14" lengthAdjust="spacing" textLength="3.136" x="879.1628" y="809.6614">&#160;</text><text fill="#24383B" font-family="Noto Sans CJK SC" font-size="14" lengthAdjust="spacing" textLength="142.9394" x="941.8807" y="809.6614">Metrics storage/query</text><line style="stroke:#24383B;stroke-width:1;" x1="871.1628" x2="1108.71" y1="640.3338" y2="640.3338"/><line style="stroke:#24383B;stroke-width:1;" x1="871.1628" x2="1108.71" y1="676.6057" y2="676.6057"/><line style="stroke:#24383B;stroke-width:1;" x1="871.1628" x2="1108.71" y1="712.8777" y2="712.8777"/><line style="stroke:#24383B;stroke-width:1;" x1="871.1628" x2="1108.71" y1="749.1496" y2="749.1496"/><line style="stroke:#24383B;stroke-width:1;" x1="871.1628" x2="1108.71" y1="785.4215" y2="785.4215"/><line style="stroke:#24383B;stroke-width:1;" x1="871.1628" x2="1108.71" y1="821.6934" y2="821.6934"/><line style="stroke:#24383B;stroke-width:1;" x1="871.1628" x2="871.1628" y1="640.3338" y2="821.6934"/><line style="stroke:#24383B;stroke-width:1;" x1="930.7447" x2="930.7447" y1="640.3338" y2="821.6934"/><line style="stroke:#24383B;stroke-width:1;" x1="1108.71" x2="1108.71" y1="640.3338" y2="821.6934"/></g><!--SRC=[hLJDRjD04BxxAORa24dJ89eIGQLWUqKE3L5Q92IAgeqzILPTxvhTTTE8yX18d11dNgBYUIhUWjauFsue0YHa7wpnz-qtyytiF10gaKMAq6pkqPiAFZKyitlMBIGsHP79GEB4WTDWn7Jc81K64oUq2W8dd4I8ht9j71gu_VxfzkRhZo-VRx_T105Fd3PGUwsSAQp35FgAG0eTX5AWSZNW5l9YB4LI1e90QSgZ5cgYQ0b3oHKkKSagKeyPEs0CFWH0iIpNYcXG6ngTePjXOS-Kr3eVy-G2UiC-Q2KNfSm60NKMn-su7NnSomsqoRY4Y3jUaLHbj1w7B69FTXLVQkk0aH5pBkMPYjyCNurEuz7vY_uWEkz5qIW-EJbJeITOX1Gdl92k2wtcyga8hC_mQR77OUUkZ4-mWIjxAwo1JxpE3bcFXNSPII-z55PNmI4lGnl2fl9JBkPSGQ-_MpmN16Qi4qUxXHD5seHJrn_2Vp21YtyrW8k_B9wB-mglpXiqtjQZi7tGFdYKSZl3z5tZQBSjNSfR2Kp_JAoKiYLjnwvntza6hJCYyPV39eRd6En0jYnVzU__halTLRoJL4LjsyQLRWLOyfOkTw7xTB_L-lNlnbf2x1-s3lS3MX9JL6cv8wWjryyXr98Gz76CN0arXMiVVqRMiJ3k7C5rENQv7piOwqAbt2pMeFAcUz1w7ToFAwV6umRevjfS0Ag9DWbclb4RaB_o7dICtW8BbdOJd-BU-mANPr7gPG7-RZWluvpEG4yg5j9PuGnfjP2_W9E9tuAN23D_3Vo4mbYebEfi4d3Z5oTF4gaBwZ0cXH5k0LEZYnmoMef023rVhgbL8y3gWfAtJPyH-5I2dm00]--></g></svg>