<svg xmlns="http://www.w3.org/2000/svg" xmlns:xlink="http://www.w3.org/1999/xlink" contentStyleType="text/css" data-diagram-type="SEQUENCE" height="1227px" preserveAspectRatio="none" style="width:2103px;height:1227px;background:#FFFFFF;" version="1.1" viewBox="0 0 2103 1227" width="2103px" zoomAndPan="magnify">
<?plantuml 1.2026.6?>
<defs/>
<g>
<g class="title" data-source-line="11">
<text fill="#000000" font-family="Arial" font-size="22" font-weight="700" lengthAdjust="spacing" textLength="626.0869" x="737.9077" y="35.4209">AI Domain Routing, Manual Selection and Fallback</text>
</g>
<rect fill="#FFFFFF" height="119.6641" rx="5" ry="5" style="stroke:#000000;stroke-width:1;" width="1270.5171" x="100.3145" y="145.9063"/>
<rect fill="#FFFFFF" height="615.0703" rx="5" ry="5" style="stroke:#000000;stroke-width:1;" width="1439.7852" x="648.1172" y="366.9688"/>
<path d="M648.1172,558.8984 L2087.9023,558.8984 L2087.9023,743.5 A5,5 0 0 1 2082.9023,748.5 L653.1172,748.5 A5,5 0 0 1 648.1172,743.5 L648.1172,558.8984" fill="#FFFFFF" style="stroke:none;stroke-width:1;"/>
<path d="M648.1172,748.5 L2087.9023,748.5 L2087.9023,845.7031 A5,5 0 0 1 2082.9023,850.7031 L653.1172,850.7031 A5,5 0 0 1 648.1172,845.7031 L648.1172,748.5" fill="#FFFFFF" style="stroke:none;stroke-width:1;"/>
<path d="M648.1172,850.7031 L2087.9023,850.7031 L2087.9023,977.0391 A5,5 0 0 1 2082.9023,982.0391 L653.1172,982.0391 A5,5 0 0 1 648.1172,977.0391 L648.1172,850.7031" fill="#FFFFFF" style="stroke:none;stroke-width:1;"/>
<g class="participant-lifeline" data-entity-uid="part1" data-qualified-name="client" data-source-line="13" id="part1-lifeline">
<g>
<title>Proxy Client</title>
<rect fill="#000000" fill-opacity="0.00000" height="1014.9297" width="8" x="51.1572" y="128.9063"/>
<line style="stroke:#000000;stroke-width:1;stroke-dasharray:5,5;" x1="55" x2="55" y1="128.9063" y2="1143.8359"/>
</g>
</g>
<g class="participant-lifeline" data-entity-uid="part2" data-qualified-name="admin" data-source-line="14" id="part2-lifeline">
<g>
<title>Administrator</title>
<rect fill="#000000" fill-opacity="0.00000" height="1014.9297" width="8" x="157.1558" y="128.9063"/>
<line style="stroke:#000000;stroke-width:1;stroke-dasharray:5,5;" x1="160.3145" x2="160.3145" y1="128.9063" y2="1143.8359"/>
</g>
</g>
<g class="participant-lifeline" data-entity-uid="part3" data-qualified-name="panel" data-source-line="15" id="part3-lifeline">
<g>
<title>Panel API</title>
<rect fill="#000000" fill-opacity="0.00000" height="1014.9297" width="8" x="445.0405" y="128.9063"/>
<line style="stroke:#000000;stroke-width:1;stroke-dasharray:5,5;" x1="448.5425" x2="448.5425" y1="128.9063" y2="1143.8359"/>
</g>
</g>
<g class="participant-lifeline" data-entity-uid="part4" data-qualified-name="state" data-source-line="16" id="part4-lifeline">
<g>
<title>app_state</title>
<rect fill="#000000" fill-opacity="0.00000" height="1014.9297" width="8" x="606.7085" y="128.9063"/>
<line style="stroke:#000000;stroke-width:1;stroke-dasharray:5,5;" x1="610.2998" x2="610.2998" y1="128.9063" y2="1143.8359"/>
</g>
</g>
<g class="participant-lifeline" data-entity-uid="part5" data-qualified-name="normal" data-source-line="17" id="part5-lifeline">
<g>
<title>Normal Data Plane Xray</title>
<rect fill="#000000" fill-opacity="0.00000" height="1014.9297" width="8" x="753.2607" y="128.9063"/>
<line style="stroke:#000000;stroke-width:1;stroke-dasharray:5,5;" x1="757.1172" x2="757.1172" y1="128.9063" y2="1143.8359"/>
</g>
</g>
<g class="participant-lifeline" data-entity-uid="part6" data-qualified-name="rules" data-source-line="18" id="part6-lifeline">
<g>
<title>Dynamic Routing Rules</title>
<rect fill="#000000" fill-opacity="0.00000" height="1014.9297" width="8" x="975.46" y="128.9063"/>
<line style="stroke:#000000;stroke-width:1;stroke-dasharray:5,5;" x1="978.7876" x2="978.7876" y1="128.9063" y2="1143.8359"/>
</g>
</g>
<g class="participant-lifeline" data-entity-uid="part7" data-qualified-name="selector" data-source-line="19" id="part7-lifeline">
<g>
<title>AI Upstream Selector</title>
<rect fill="#000000" fill-opacity="0.00000" height="1014.9297" width="8" x="1267.5215" y="128.9063"/>
<line style="stroke:#000000;stroke-width:1;stroke-dasharray:5,5;" x1="1271.2114" x2="1271.2114" y1="128.9063" y2="1143.8359"/>
</g>
</g>
<g class="participant-lifeline" data-entity-uid="part8" data-qualified-name="primary" data-source-line="20" id="part8-lifeline">
<g>
<title>Primary AI</title>
<rect fill="#000000" fill-opacity="0.00000" height="1014.9297" width="8" x="1441.4341" y="128.9063"/>
<line style="stroke:#000000;stroke-width:1;stroke-dasharray:5,5;" x1="1444.8315" x2="1444.8315" y1="128.9063" y2="1143.8359"/>
</g>
</g>
<g class="participant-lifeline" data-entity-uid="part9" data-qualified-name="backup" data-source-line="21" id="part9-lifeline">
<g>
<title>Backup AI</title>
<rect fill="#000000" fill-opacity="0.00000" height="1014.9297" width="8" x="1607.9673" y="128.9063"/>
<line style="stroke:#000000;stroke-width:1;stroke-dasharray:5,5;" x1="1611.0366" x2="1611.0366" y1="128.9063" y2="1143.8359"/>
</g>
</g>
<g class="participant-lifeline" data-entity-uid="part10" data-qualified-name="egress" data-source-line="22" id="part10-lifeline">
<g>
<title>AI freedom egress</title>
<rect fill="#000000" fill-opacity="0.00000" height="1014.9297" width="8" x="1789.6113" y="128.9063"/>
<line style="stroke:#000000;stroke-width:1;stroke-dasharray:5,5;" x1="1793.5791" x2="1793.5791" y1="128.9063" y2="1143.8359"/>
</g>
</g>
<g class="participant-lifeline" data-entity-uid="part11" data-qualified-name="fallback" data-source-line="23" id="part11-lifeline">
<g>
<title>Normal freedom egress</title>
<rect fill="#000000" fill-opacity="0.00000" height="1014.9297" width="8" x="1976.2729" y="128.9063"/>
<line style="stroke:#000000;stroke-width:1;stroke-dasharray:5,5;" x1="1979.6436" x2="1979.6436" y1="128.9063" y2="1143.8359"/>
</g>
</g>
<g class="participant participant-head" data-entity-uid="part1" data-qualified-name="client" data-source-line="13" id="part1-head">
<text fill="#000000" font-family="Arial" font-size="14" lengthAdjust="spacing" textLength="84.3145" x="10" y="125.6045">Proxy Client</text>
<ellipse cx="55.1572" cy="60.6094" fill="#FFFFFF" rx="8" ry="8" style="stroke:#000000;stroke-width:1;"/>
<path d="M55.1572,68.6094 L55.1572,95.6094 M42.1572,76.6094 L68.1572,76.6094 M55.1572,95.6094 L42.1572,110.6094 M55.1572,95.6094 L68.1572,110.6094" fill="none" style="stroke:#000000;stroke-width:1;"/>
</g>
<g class="participant participant-tail" data-entity-uid="part1" data-qualified-name="client" data-source-line="13" id="part1-tail">
<text fill="#000000" font-family="Arial" font-size="14" lengthAdjust="spacing" textLength="84.3145" x="10" y="1155.8311">Proxy Client</text>
<ellipse cx="55.1572" cy="1168.1328" fill="#FFFFFF" rx="8" ry="8" style="stroke:#000000;stroke-width:1;"/>
<path d="M55.1572,1176.1328 L55.1572,1203.1328 M42.1572,1184.1328 L68.1572,1184.1328 M55.1572,1203.1328 L42.1572,1218.1328 M55.1572,1203.1328 L68.1572,1218.1328" fill="none" style="stroke:#000000;stroke-width:1;"/>
</g>
<g class="participant participant-head" data-entity-uid="part2" data-qualified-name="admin" data-source-line="14" id="part2-head">
<text fill="#000000" font-family="Arial" font-size="14" lengthAdjust="spacing" textLength="95.6826" x="110.3145" y="125.6045">Administrator</text>
<ellipse cx="161.1558" cy="60.6094" fill="#FFFFFF" rx="8" ry="8" style="stroke:#000000;stroke-width:1;"/>
<path d="M161.1558,68.6094 L161.1558,95.6094 M148.1558,76.6094 L174.1558,76.6094 M161.1558,95.6094 L148.1558,110.6094 M161.1558,95.6094 L174.1558,110.6094" fill="none" style="stroke:#000000;stroke-width:1;"/>
</g>
<g class="participant participant-tail" data-entity-uid="part2" data-qualified-name="admin" data-source-line="14" id="part2-tail">
<text fill="#000000" font-family="Arial" font-size="14" lengthAdjust="spacing" textLength="95.6826" x="110.3145" y="1155.8311">Administrator</text>
<ellipse cx="161.1558" cy="1168.1328" fill="#FFFFFF" rx="8" ry="8" style="stroke:#000000;stroke-width:1;"/>
<path d="M161.1558,1176.1328 L161.1558,1203.1328 M148.1558,1184.1328 L174.1558,1184.1328 M161.1558,1203.1328 L148.1558,1218.1328 M161.1558,1203.1328 L174.1558,1218.1328" fill="none" style="stroke:#000000;stroke-width:1;"/>
</g>
<g class="participant participant-head" data-entity-uid="part3" data-qualified-name="panel" data-source-line="15" id="part3-head">
<rect fill="#FFFFFF" height="26.2969" rx="5" ry="5" style="stroke:#000000;stroke-width:1;" width="74.9961" x="411.5425" y="96.6094"/>
<text fill="#000000" font-family="Arial" font-size="14" lengthAdjust="spacing" textLength="64.9961" x="416.5425" y="114.6045">Panel API</text>
</g>
<g class="participant participant-tail" data-entity-uid="part3" data-qualified-name="panel" data-source-line="15" id="part3-tail">
<rect fill="#FFFFFF" height="26.2969" rx="5" ry="5" style="stroke:#000000;stroke-width:1;" width="74.9961" x="411.5425" y="1147.8359"/>
<text fill="#000000" font-family="Arial" font-size="14" lengthAdjust="spacing" textLength="64.9961" x="416.5425" y="1165.8311">Panel API</text>
</g>
<g class="participant participant-head" data-entity-uid="part4" data-qualified-name="state" data-source-line="16" id="part4-head">
<text fill="#000000" font-family="Arial" font-size="14" lengthAdjust="spacing" textLength="68.8174" x="573.2998" y="125.6045">app_state</text>
<path d="M592.7085,76.6094 C592.7085,66.6094 610.7085,66.6094 610.7085,66.6094 C610.7085,66.6094 628.7085,66.6094 628.7085,76.6094 L628.7085,102.6094 C628.7085,112.6094 610.7085,112.6094 610.7085,112.6094 C610.7085,112.6094 592.7085,112.6094 592.7085,102.6094 L592.7085,76.6094" fill="#FFFFFF" style="stroke:#000000;stroke-width:1;"/>
<path d="M592.7085,76.6094 C592.7085,86.6094 610.7085,86.6094 610.7085,86.6094 C610.7085,86.6094 628.7085,86.6094 628.7085,76.6094" fill="none" style="stroke:#000000;stroke-width:1;"/>
</g>
<g class="participant participant-tail" data-entity-uid="part4" data-qualified-name="state" data-source-line="16" id="part4-tail">
<text fill="#000000" font-family="Arial" font-size="14" lengthAdjust="spacing" textLength="68.8174" x="573.2998" y="1155.8311">app_state</text>
<path d="M592.7085,1169.1328 C592.7085,1159.1328 610.7085,1159.1328 610.7085,1159.1328 C610.7085,1159.1328 628.7085,1159.1328 628.7085,1169.1328 L628.7085,1195.1328 C628.7085,1205.1328 610.7085,1205.1328 610.7085,1205.1328 C610.7085,1205.1328 592.7085,1205.1328 592.7085,1195.1328 L592.7085,1169.1328" fill="#FFFFFF" style="stroke:#000000;stroke-width:1;"/>
<path d="M592.7085,1169.1328 C592.7085,1179.1328 610.7085,1179.1328 610.7085,1179.1328 C610.7085,1179.1328 628.7085,1179.1328 628.7085,1169.1328" fill="none" style="stroke:#000000;stroke-width:1;"/>
</g>
<g class="participant participant-head" data-entity-uid="part5" data-qualified-name="normal" data-source-line="17" id="part5-head">
<rect fill="#FFFFFF" height="26.2969" rx="5" ry="5" style="stroke:#000000;stroke-width:1;" width="178.2871" x="668.1172" y="96.6094"/>
<text fill="#000000" font-family="Arial" font-size="14" lengthAdjust="spacing" textLength="168.2871" x="673.1172" y="114.6045">Normal Data Plane Xray</text>
</g>
<g class="participant participant-tail" data-entity-uid="part5" data-qualified-name="normal" data-source-line="17" id="part5-tail">
<rect fill="#FFFFFF" height="26.2969" rx="5" ry="5" style="stroke:#000000;stroke-width:1;" width="178.2871" x="668.1172" y="1147.8359"/>
<text fill="#000000" font-family="Arial" font-size="14" lengthAdjust="spacing" textLength="168.2871" x="673.1172" y="1165.8311">Normal Data Plane Xray</text>
</g>
<g class="participant participant-head" data-entity-uid="part6" data-qualified-name="rules" data-source-line="18" id="part6-head">
<rect fill="#FFFFFF" height="26.2969" rx="5" ry="5" style="stroke:#000000;stroke-width:1;" width="173.3447" x="892.7876" y="96.6094"/>
<text fill="#000000" font-family="Arial" font-size="14" lengthAdjust="spacing" textLength="163.3447" x="897.7876" y="114.6045">Dynamic Routing Rules</text>
</g>
<g class="participant participant-tail" data-entity-uid="part6" data-qualified-name="rules" data-source-line="18" id="part6-tail">
<rect fill="#FFFFFF" height="26.2969" rx="5" ry="5" style="stroke:#000000;stroke-width:1;" width="173.3447" x="892.7876" y="1147.8359"/>
<text fill="#000000" font-family="Arial" font-size="14" lengthAdjust="spacing" textLength="163.3447" x="897.7876" y="1165.8311">Dynamic Routing Rules</text>
</g>
<g class="participant participant-head" data-entity-uid="part7" data-qualified-name="selector" data-source-line="19" id="part7-head">
<rect fill="#FFFFFF" height="26.2969" rx="5" ry="5" style="stroke:#000000;stroke-width:1;" width="158.6201" x="1192.2114" y="96.6094"/>
<text fill="#000000" font-family="Arial" font-size="14" lengthAdjust="spacing" textLength="148.6201" x="1197.2114" y="114.6045">AI Upstream Selector</text>
</g>
<g class="participant participant-tail" data-entity-uid="part7" data-qualified-name="selector" data-source-line="19" id="part7-tail">
<rect fill="#FFFFFF" height="26.2969" rx="5" ry="5" style="stroke:#000000;stroke-width:1;" width="158.6201" x="1192.2114" y="1147.8359"/>
<text fill="#000000" font-family="Arial" font-size="14" lengthAdjust="spacing" textLength="148.6201" x="1197.2114" y="1165.8311">AI Upstream Selector</text>
</g>
<g class="participant participant-head" data-entity-uid="part8" data-qualified-name="primary" data-source-line="20" id="part8-head">
<rect fill="#FFFFFF" height="42.5938" rx="5" ry="5" style="stroke:#000000;stroke-width:1;" width="129.2051" x="1380.8315" y="80.3125"/>
<text fill="#000000" font-family="Arial" font-size="14" lengthAdjust="spacing" textLength="72.502" x="1409.1831" y="98.3076">Primary AI</text>
<text fill="#000000" font-family="Arial" font-size="14" lengthAdjust="spacing" textLength="119.2051" x="1385.8315" y="114.6045">nat.qq.pw:27166</text>
</g>
<g class="participant participant-tail" data-entity-uid="part8" data-qualified-name="primary" data-source-line="20" id="part8-tail">
<rect fill="#FFFFFF" height="42.5938" rx="5" ry="5" style="stroke:#000000;stroke-width:1;" width="129.2051" x="1380.8315" y="1147.8359"/>
<text fill="#000000" font-family="Arial" font-size="14" lengthAdjust="spacing" textLength="72.502" x="1409.1831" y="1165.8311">Primary AI</text>
<text fill="#000000" font-family="Arial" font-size="14" lengthAdjust="spacing" textLength="119.2051" x="1385.8315" y="1182.1279">nat.qq.pw:27166</text>
</g>
<g class="participant participant-head" data-entity-uid="part9" data-qualified-name="backup" data-source-line="21" id="part9-head">
<rect fill="#FFFFFF" height="42.5938" rx="5" ry="5" style="stroke:#000000;stroke-width:1;" width="143.8613" x="1540.0366" y="80.3125"/>
<text fill="#000000" font-family="Arial" font-size="14" lengthAdjust="spacing" textLength="69.9043" x="1577.0151" y="98.3076">Backup AI</text>
<text fill="#000000" font-family="Arial" font-size="14" lengthAdjust="spacing" textLength="133.8613" x="1545.0366" y="114.6045">redacted-ip-004:27166</text>
</g>
<g class="participant participant-tail" data-entity-uid="part9" data-qualified-name="backup" data-source-line="21" id="part9-tail">
<rect fill="#FFFFFF" height="42.5938" rx="5" ry="5" style="stroke:#000000;stroke-width:1;" width="143.8613" x="1540.0366" y="1147.8359"/>
<text fill="#000000" font-family="Arial" font-size="14" lengthAdjust="spacing" textLength="69.9043" x="1577.0151" y="1165.8311">Backup AI</text>
<text fill="#000000" font-family="Arial" font-size="14" lengthAdjust="spacing" textLength="133.8613" x="1545.0366" y="1182.1279">redacted-ip-004:27166</text>
</g>
<g class="participant participant-head" data-entity-uid="part10" data-qualified-name="egress" data-source-line="22" id="part10-head">
<rect fill="#FFFFFF" height="26.2969" rx="5" ry="5" style="stroke:#000000;stroke-width:1;" width="138.0645" x="1724.5791" y="96.6094"/>
<text fill="#000000" font-family="Arial" font-size="14" lengthAdjust="spacing" textLength="128.0645" x="1729.5791" y="114.6045">AI freedom egress</text>
</g>
<g class="participant participant-tail" data-entity-uid="part10" data-qualified-name="egress" data-source-line="22" id="part10-tail">
<rect fill="#FFFFFF" height="26.2969" rx="5" ry="5" style="stroke:#000000;stroke-width:1;" width="138.0645" x="1724.5791" y="1147.8359"/>
<text fill="#000000" font-family="Arial" font-size="14" lengthAdjust="spacing" textLength="128.0645" x="1729.5791" y="1165.8311">AI freedom egress</text>
</g>
<g class="participant participant-head" data-entity-uid="part11" data-qualified-name="fallback" data-source-line="23" id="part11-head">
<rect fill="#FFFFFF" height="26.2969" rx="5" ry="5" style="stroke:#000000;stroke-width:1;" width="175.2588" x="1892.6436" y="96.6094"/>
<text fill="#000000" font-family="Arial" font-size="14" lengthAdjust="spacing" textLength="165.2588" x="1897.6436" y="114.6045">Normal freedom egress</text>
</g>
<g class="participant participant-tail" data-entity-uid="part11" data-qualified-name="fallback" data-source-line="23" id="part11-tail">
<rect fill="#FFFFFF" height="26.2969" rx="5" ry="5" style="stroke:#000000;stroke-width:1;" width="175.2588" x="1892.6436" y="1147.8359"/>
<text fill="#000000" font-family="Arial" font-size="14" lengthAdjust="spacing" textLength="165.2588" x="1897.6436" y="1165.8311">Normal freedom egress</text>
</g>
<path d="M105.3145,145.9063 L169.7656,145.9063 L169.7656,153.0391 L159.7656,163.0391 L100.3145,163.0391 L100.3145,150.9063 A5,5 0 0 1 105.3145,145.9063" fill="#FFFFFF" style="stroke:#000000;stroke-width:1;"/>
<rect fill="none" height="119.6641" rx="5" ry="5" style="stroke:#000000;stroke-width:1;" width="1270.5171" x="100.3145" y="145.9063"/>
<text fill="#000000" font-family="Arial" font-size="13" font-weight="700" lengthAdjust="spacing" textLength="24.4512" x="115.3145" y="158.9731">opt</text>
<text fill="#000000" font-family="Arial" font-size="11" font-weight="700" lengthAdjust="spacing" textLength="205.0146" x="184.7656" y="158.1167">[administrator changes AI mode]</text>
<g class="message" data-entity-1="part2" data-entity-2="part3" data-source-line="26" id="msg1">
<polygon fill="#334155" points="437.0405,195.3047,447.0405,199.3047,437.0405,203.3047,441.0405,199.3047" style="stroke:#334155;stroke-width:1;stroke-linejoin:miter;stroke-miterlimit:10;"/>
<line style="stroke:#334155;stroke-width:1.2;" x1="161.1558" x2="443.0405" y1="199.3047" y2="199.3047"/>
<text fill="#000000" font-family="Arial" font-size="13" lengthAdjust="spacing" textLength="175.8745" x="217.1609" y="179.106">POST /api/ai-routing/switch</text>
<text fill="#000000" font-family="Arial" font-size="13" lengthAdjust="spacing" textLength="263.8848" x="173.1558" y="194.2388">primary | backup | auto | forced_fallback</text>
</g>
<g class="message" data-entity-1="part3" data-entity-2="part4" data-source-line="27" id="msg2">
<polygon fill="#334155" points="598.7085,224.4375,608.7085,228.4375,598.7085,232.4375,602.7085,228.4375" style="stroke:#334155;stroke-width:1;stroke-linejoin:miter;stroke-miterlimit:10;"/>
<line style="stroke:#334155;stroke-width:1.2;" x1="449.0405" x2="604.7085" y1="228.4375" y2="228.4375"/>
<text fill="#000000" font-family="Arial" font-size="13" lengthAdjust="spacing" textLength="137.668" x="461.0405" y="223.3716">persist manual mode</text>
</g>
<g class="message" data-entity-1="part3" data-entity-2="part7" data-source-line="28" id="msg3">
<polygon fill="#334155" points="1259.5215,253.5703,1269.5215,257.5703,1259.5215,261.5703,1263.5215,257.5703" style="stroke:#334155;stroke-width:1;stroke-linejoin:miter;stroke-miterlimit:10;"/>
<line style="stroke:#334155;stroke-width:1.2;" x1="449.0405" x2="1265.5215" y1="257.5703" y2="257.5703"/>
<text fill="#000000" font-family="Arial" font-size="13" lengthAdjust="spacing" textLength="119.8564" x="800.3528" y="252.5044">run manager once</text>
</g>
<g class="message" data-entity-1="part1" data-entity-2="part5" data-source-line="31" id="msg4">
<polygon fill="#334155" points="745.2607,289.7031,755.2607,293.7031,745.2607,297.7031,749.2607,293.7031" style="stroke:#334155;stroke-width:1;stroke-linejoin:miter;stroke-miterlimit:10;"/>
<line style="stroke:#334155;stroke-width:1.2;" x1="55.1572" x2="751.2607" y1="293.7031" y2="293.7031"/>
<text fill="#000000" font-family="Arial" font-size="13" lengthAdjust="spacing" textLength="188.8682" x="311.7749" y="288.6372">VLESS + REALITY connection</text>
</g>
<g class="message" data-entity-1="part5" data-entity-2="part6" data-source-line="32" id="msg5">
<polygon fill="#334155" points="967.46,318.8359,977.46,322.8359,967.46,326.8359,971.46,322.8359" style="stroke:#334155;stroke-width:1;stroke-linejoin:miter;stroke-miterlimit:10;"/>
<line style="stroke:#334155;stroke-width:1.2;" x1="757.2607" x2="973.46" y1="322.8359" y2="322.8359"/>
<text fill="#000000" font-family="Arial" font-size="13" lengthAdjust="spacing" textLength="125.125" x="805.7979" y="317.77">classify destination</text>
</g>
<g class="message" data-entity-1="part6" data-entity-2="part7" data-source-line="33" id="msg6">
<polygon fill="#334155" points="1259.5215,347.9688,1269.5215,351.9688,1259.5215,355.9688,1263.5215,351.9688" style="stroke:#334155;stroke-width:1;stroke-linejoin:miter;stroke-miterlimit:10;"/>
<line style="stroke:#334155;stroke-width:1.2;" x1="979.46" x2="1265.5215" y1="351.9688" y2="351.9688"/>
<text fill="#000000" font-family="Arial" font-size="13" lengthAdjust="spacing" textLength="268.0615" x="991.46" y="346.9028">read current mode and probe candidates</text>
</g>
<path d="M653.1172,366.9688 L712.5601,366.9688 L712.5601,374.1016 L702.5601,384.1016 L648.1172,384.1016 L648.1172,371.9688 A5,5 0 0 1 653.1172,366.9688" fill="#FFFFFF" style="stroke:#000000;stroke-width:1;"/>
<rect fill="none" height="615.0703" rx="5" ry="5" style="stroke:#000000;stroke-width:1;" width="1439.7852" x="648.1172" y="366.9688"/>
<text fill="#000000" font-family="Arial" font-size="13" font-weight="700" lengthAdjust="spacing" textLength="19.4429" x="663.1172" y="380.0356">alt</text>
<text fill="#000000" font-family="Arial" font-size="11" font-weight="700" lengthAdjust="spacing" textLength="273.1309" x="727.5601" y="379.1792">[AI domain and primary selected/reachable]</text>
<g class="message" data-entity-1="part7" data-entity-2="part6" data-source-line="36" id="msg7">
<polygon fill="#334155" points="990.46,401.2344,980.46,405.2344,990.46,409.2344,986.46,405.2344" style="stroke:#334155;stroke-width:1;stroke-linejoin:miter;stroke-miterlimit:10;"/>
<line style="stroke:#334155;stroke-width:1.2;stroke-dasharray:2,2;" x1="984.46" x2="1270.5215" y1="405.2344" y2="405.2344"/>
<text fill="#000000" font-family="Arial" font-size="13" lengthAdjust="spacing" textLength="166.5562" x="1042.2126" y="400.1685">write ai_proxy -&gt; primary</text>
</g>
<g class="message" data-entity-1="part6" data-entity-2="part5" data-source-line="37" id="msg8">
<polygon fill="#334155" points="768.2607,430.3672,758.2607,434.3672,768.2607,438.3672,764.2607,434.3672" style="stroke:#334155;stroke-width:1;stroke-linejoin:miter;stroke-miterlimit:10;"/>
<line style="stroke:#334155;stroke-width:1.2;stroke-dasharray:2,2;" x1="762.2607" x2="978.46" y1="434.3672" y2="434.3672"/>
<text fill="#000000" font-family="Arial" font-size="13" lengthAdjust="spacing" textLength="148.5161" x="794.1023" y="429.3013">use ai_proxy outbound</text>
</g>
<g class="message" data-entity-1="part5" data-entity-2="part8" data-source-line="38" id="msg9">
<polygon fill="#334155" points="1433.4341,459.5,1443.4341,463.5,1433.4341,467.5,1437.4341,463.5" style="stroke:#334155;stroke-width:1;stroke-linejoin:miter;stroke-miterlimit:10;"/>
<line style="stroke:#334155;stroke-width:1.2;" x1="757.2607" x2="1439.4341" y1="463.5" y2="463.5"/>
<text fill="#000000" font-family="Arial" font-size="13" lengthAdjust="spacing" textLength="149.8555" x="1026.4197" y="458.4341">VLESS + REALITY relay</text>
</g>
<g class="message" data-entity-1="part8" data-entity-2="part10" data-source-line="39" id="msg10">
<polygon fill="#334155" points="1781.6113,488.6328,1791.6113,492.6328,1781.6113,496.6328,1785.6113,492.6328" style="stroke:#334155;stroke-width:1;stroke-linejoin:miter;stroke-miterlimit:10;"/>
<line style="stroke:#334155;stroke-width:1.2;" x1="1445.4341" x2="1787.6113" y1="492.6328" y2="492.6328"/>
<text fill="#000000" font-family="Arial" font-size="13" lengthAdjust="spacing" textLength="157.644" x="1540.7007" y="487.5669">direct outbound request</text>
</g>
<g class="message" data-entity-1="part10" data-entity-2="part8" data-source-line="40" id="msg11">
<polygon fill="#334155" points="1456.4341,517.7656,1446.4341,521.7656,1456.4341,525.7656,1452.4341,521.7656" style="stroke:#334155;stroke-width:1;stroke-linejoin:miter;stroke-miterlimit:10;"/>
<line style="stroke:#334155;stroke-width:1.2;stroke-dasharray:2,2;" x1="1450.4341" x2="1792.6113" y1="521.7656" y2="521.7656"/>
<text fill="#000000" font-family="Arial" font-size="13" lengthAdjust="spacing" textLength="59.3315" x="1589.8569" y="516.6997">response</text>
</g>
<g class="message" data-entity-1="part8" data-entity-2="part5" data-source-line="41" id="msg12">
<polygon fill="#334155" points="768.2607,546.8984,758.2607,550.8984,768.2607,554.8984,764.2607,550.8984" style="stroke:#334155;stroke-width:1;stroke-linejoin:miter;stroke-miterlimit:10;"/>
<line style="stroke:#334155;stroke-width:1.2;stroke-dasharray:2,2;" x1="762.2607" x2="1444.4341" y1="550.8984" y2="550.8984"/>
<text fill="#000000" font-family="Arial" font-size="13" lengthAdjust="spacing" textLength="112.3281" x="1045.1833" y="545.8325">relayed response</text>
</g>
<line style="stroke:#000000;stroke-width:1;stroke-dasharray:2,2;" x1="648.1172" x2="2087.9023" y1="559.8984" y2="559.8984"/>
<text fill="#000000" font-family="Arial" font-size="11" font-weight="700" lengthAdjust="spacing" textLength="269.4194" x="653.1172" y="570.1089">[AI domain and backup selected/reachable]</text>
<g class="message" data-entity-1="part7" data-entity-2="part6" data-source-line="43" id="msg13">
<polygon fill="#334155" points="990.46,590.8359,980.46,594.8359,990.46,598.8359,986.46,594.8359" style="stroke:#334155;stroke-width:1;stroke-linejoin:miter;stroke-miterlimit:10;"/>
<line style="stroke:#334155;stroke-width:1.2;stroke-dasharray:2,2;" x1="984.46" x2="1270.5215" y1="594.8359" y2="594.8359"/>
<text fill="#000000" font-family="Arial" font-size="13" lengthAdjust="spacing" textLength="163.0649" x="1043.9583" y="589.77">write ai_proxy -&gt; backup</text>
</g>
<g class="message" data-entity-1="part6" data-entity-2="part5" data-source-line="44" id="msg14">
<polygon fill="#334155" points="768.2607,619.9688,758.2607,623.9688,768.2607,627.9688,764.2607,623.9688" style="stroke:#334155;stroke-width:1;stroke-linejoin:miter;stroke-miterlimit:10;"/>
<line style="stroke:#334155;stroke-width:1.2;stroke-dasharray:2,2;" x1="762.2607" x2="978.46" y1="623.9688" y2="623.9688"/>
<text fill="#000000" font-family="Arial" font-size="13" lengthAdjust="spacing" textLength="148.5161" x="794.1023" y="618.9028">use ai_proxy outbound</text>
</g>
<g class="message" data-entity-1="part5" data-entity-2="part9" data-source-line="45" id="msg15">
<polygon fill="#334155" points="1599.9673,649.1016,1609.9673,653.1016,1599.9673,657.1016,1603.9673,653.1016" style="stroke:#334155;stroke-width:1;stroke-linejoin:miter;stroke-miterlimit:10;"/>
<line style="stroke:#334155;stroke-width:1.2;" x1="757.2607" x2="1605.9673" y1="653.1016" y2="653.1016"/>
<text fill="#000000" font-family="Arial" font-size="13" lengthAdjust="spacing" textLength="149.8555" x="1109.6863" y="648.0356">VLESS + REALITY relay</text>
</g>
<g class="message" data-entity-1="part9" data-entity-2="part10" data-source-line="46" id="msg16">
<polygon fill="#334155" points="1781.6113,678.2344,1791.6113,682.2344,1781.6113,686.2344,1785.6113,682.2344" style="stroke:#334155;stroke-width:1;stroke-linejoin:miter;stroke-miterlimit:10;"/>
<line style="stroke:#334155;stroke-width:1.2;" x1="1611.9673" x2="1787.6113" y1="682.2344" y2="682.2344"/>
<text fill="#000000" font-family="Arial" font-size="13" lengthAdjust="spacing" textLength="157.644" x="1623.9673" y="677.1685">direct outbound request</text>
</g>
<g class="message" data-entity-1="part10" data-entity-2="part9" data-source-line="47" id="msg17">
<polygon fill="#334155" points="1622.9673,707.3672,1612.9673,711.3672,1622.9673,715.3672,1618.9673,711.3672" style="stroke:#334155;stroke-width:1;stroke-linejoin:miter;stroke-miterlimit:10;"/>
<line style="stroke:#334155;stroke-width:1.2;stroke-dasharray:2,2;" x1="1616.9673" x2="1792.6113" y1="711.3672" y2="711.3672"/>
<text fill="#000000" font-family="Arial" font-size="13" lengthAdjust="spacing" textLength="59.3315" x="1673.1235" y="706.3013">response</text>
</g>
<g class="message" data-entity-1="part9" data-entity-2="part5" data-source-line="48" id="msg18">
<polygon fill="#334155" points="768.2607,736.5,758.2607,740.5,768.2607,744.5,764.2607,740.5" style="stroke:#334155;stroke-width:1;stroke-linejoin:miter;stroke-miterlimit:10;"/>
<line style="stroke:#334155;stroke-width:1.2;stroke-dasharray:2,2;" x1="762.2607" x2="1610.9673" y1="740.5" y2="740.5"/>
<text fill="#000000" font-family="Arial" font-size="13" lengthAdjust="spacing" textLength="112.3281" x="1128.45" y="735.4341">relayed response</text>
</g>
<line style="stroke:#000000;stroke-width:1;stroke-dasharray:2,2;" x1="648.1172" x2="2087.9023" y1="749.5" y2="749.5"/>
<text fill="#000000" font-family="Arial" font-size="11" font-weight="700" lengthAdjust="spacing" textLength="124.8564" x="653.1172" y="759.7104">[non-AI destination]</text>
<g class="message" data-entity-1="part6" data-entity-2="part5" data-source-line="50" id="msg19">
<polygon fill="#334155" points="768.2607,780.4375,758.2607,784.4375,768.2607,788.4375,764.2607,784.4375" style="stroke:#334155;stroke-width:1;stroke-linejoin:miter;stroke-miterlimit:10;"/>
<line style="stroke:#334155;stroke-width:1.2;stroke-dasharray:2,2;" x1="762.2607" x2="978.46" y1="784.4375" y2="784.4375"/>
<text fill="#000000" font-family="Arial" font-size="13" lengthAdjust="spacing" textLength="198.1992" x="769.2607" y="779.3716">use normal freedom outbound</text>
</g>
<g class="message" data-entity-1="part5" data-entity-2="part11" data-source-line="51" id="msg20">
<polygon fill="#334155" points="1968.2729,809.5703,1978.2729,813.5703,1968.2729,817.5703,1972.2729,813.5703" style="stroke:#334155;stroke-width:1;stroke-linejoin:miter;stroke-miterlimit:10;"/>
<line style="stroke:#334155;stroke-width:1.2;" x1="757.2607" x2="1974.2729" y1="813.5703" y2="813.5703"/>
<text fill="#000000" font-family="Arial" font-size="13" lengthAdjust="spacing" textLength="157.644" x="1289.9448" y="808.5044">direct outbound request</text>
</g>
<g class="message" data-entity-1="part11" data-entity-2="part5" data-source-line="52" id="msg21">
<polygon fill="#334155" points="768.2607,838.7031,758.2607,842.7031,768.2607,846.7031,764.2607,842.7031" style="stroke:#334155;stroke-width:1;stroke-linejoin:miter;stroke-miterlimit:10;"/>
<line style="stroke:#334155;stroke-width:1.2;stroke-dasharray:2,2;" x1="762.2607" x2="1979.2729" y1="842.7031" y2="842.7031"/>
<text fill="#000000" font-family="Arial" font-size="13" lengthAdjust="spacing" textLength="59.3315" x="1339.1011" y="837.6372">response</text>
</g>
<line style="stroke:#000000;stroke-width:1;stroke-dasharray:2,2;" x1="648.1172" x2="2087.9023" y1="851.7031" y2="851.7031"/>
<text fill="#000000" font-family="Arial" font-size="11" font-weight="700" lengthAdjust="spacing" textLength="272.4971" x="653.1172" y="861.9136">[forced fallback or selected AI unreachable]</text>
<g class="message" data-entity-1="part7" data-entity-2="part6" data-source-line="54" id="msg22">
<polygon fill="#334155" points="990.46,882.6406,980.46,886.6406,990.46,890.6406,986.46,886.6406" style="stroke:#334155;stroke-width:1;stroke-linejoin:miter;stroke-miterlimit:10;"/>
<line style="stroke:#334155;stroke-width:1.2;stroke-dasharray:2,2;" x1="984.46" x2="1270.5215" y1="886.6406" y2="886.6406"/>
<text fill="#000000" font-family="Arial" font-size="13" lengthAdjust="spacing" textLength="164.9819" x="1042.9998" y="881.5747">remove dynamic AI route</text>
</g>
<g class="message" data-entity-1="part6" data-entity-2="part5" data-source-line="55" id="msg23">
<polygon fill="#334155" points="768.2607,911.7734,758.2607,915.7734,768.2607,919.7734,764.2607,915.7734" style="stroke:#334155;stroke-width:1;stroke-linejoin:miter;stroke-miterlimit:10;"/>
<line style="stroke:#334155;stroke-width:1.2;stroke-dasharray:2,2;" x1="762.2607" x2="978.46" y1="915.7734" y2="915.7734"/>
<text fill="#000000" font-family="Arial" font-size="13" lengthAdjust="spacing" textLength="171.1455" x="782.7876" y="910.7075">use local freedom fallback</text>
</g>
<g class="message" data-entity-1="part5" data-entity-2="part11" data-source-line="56" id="msg24">
<polygon fill="#334155" points="1968.2729,940.9063,1978.2729,944.9063,1968.2729,948.9063,1972.2729,944.9063" style="stroke:#334155;stroke-width:1;stroke-linejoin:miter;stroke-miterlimit:10;"/>
<line style="stroke:#334155;stroke-width:1.2;" x1="757.2607" x2="1974.2729" y1="944.9063" y2="944.9063"/>
<text fill="#000000" font-family="Arial" font-size="13" lengthAdjust="spacing" textLength="144.0029" x="1296.7654" y="939.8403">local freedom fallback</text>
</g>
<g class="message" data-entity-1="part11" data-entity-2="part5" data-source-line="57" id="msg25">
<polygon fill="#334155" points="768.2607,970.0391,758.2607,974.0391,768.2607,978.0391,764.2607,974.0391" style="stroke:#334155;stroke-width:1;stroke-linejoin:miter;stroke-miterlimit:10;"/>
<line style="stroke:#334155;stroke-width:1.2;stroke-dasharray:2,2;" x1="762.2607" x2="1979.2729" y1="974.0391" y2="974.0391"/>
<text fill="#000000" font-family="Arial" font-size="13" lengthAdjust="spacing" textLength="59.3315" x="1339.1011" y="968.9731">response</text>
</g>
<g class="message" data-entity-1="part5" data-entity-2="part1" data-source-line="60" id="msg26">
<polygon fill="#334155" points="66.1572,1006.1719,56.1572,1010.1719,66.1572,1014.1719,62.1572,1010.1719" style="stroke:#334155;stroke-width:1;stroke-linejoin:miter;stroke-miterlimit:10;"/>
<line style="stroke:#334155;stroke-width:1.2;stroke-dasharray:2,2;" x1="60.1572" x2="756.2607" y1="1010.1719" y2="1010.1719"/>
<text fill="#000000" font-family="Arial" font-size="13" lengthAdjust="spacing" textLength="100.4009" x="356.0085" y="1005.106">proxy response</text>
</g>
<path d="M859,1028.1719 L859,1073.1719 A5,5 0 0 0 864,1078.1719 L1386,1078.1719 A5,5 0 0 0 1391,1073.1719 L1391,1033.1719 L1381,1023.1719 L864,1023.1719 A5,5 0 0 0 859,1028.1719" fill="#FFFFFF" style="stroke:#000000;stroke-width:1;"/>
<path d="M1381,1023.1719 L1381,1030.6719 A2.5,2.5 0 0 0 1383.5,1033.1719 L1391,1033.1719 L1381,1023.1719" fill="#FFFFFF" style="stroke:#000000;stroke-width:1;"/>
<text fill="#000000" font-family="Arial" font-size="13" lengthAdjust="spacing" textLength="507.1587" x="865" y="1040.2388">Automatic mode probes both candidates and chooses the first reachable one.</text>
<text fill="#000000" font-family="Arial" font-size="13" lengthAdjust="spacing" textLength="511.1006" x="865" y="1055.3716">Manual primary/backup keeps the selected index; an unreachable fixed target</text>
<text fill="#000000" font-family="Arial" font-size="13" lengthAdjust="spacing" textLength="434.0083" x="865" y="1070.5044">disables dynamic routing and reports manual_target_unreachable.</text>
<path d="M669,1093.5703 L669,1123.5703 A5,5 0 0 0 674,1128.5703 L1694,1128.5703 A5,5 0 0 0 1699,1123.5703 L1699,1098.5703 L1689,1088.5703 L674,1088.5703 A5,5 0 0 0 669,1093.5703" fill="#FFFFFF" style="stroke:#000000;stroke-width:1;"/>
<path d="M1689,1088.5703 L1689,1096.0703 A2.5,2.5 0 0 0 1691.5,1098.5703 L1699,1098.5703 L1689,1088.5703" fill="#FFFFFF" style="stroke:#000000;stroke-width:1;"/>
<text fill="#000000" font-family="Arial" font-size="13" lengthAdjust="spacing" textLength="467.1177" x="946.3315" y="1105.6372">Tunnel credentials are independent from normal data-plane credentials</text>
<text fill="#000000" font-family="Arial" font-size="13" lengthAdjust="spacing" textLength="314.6533" x="946.3315" y="1120.77">and are intentionally omitted from this diagram.</text>
<?plantuml-src fLRRRXit47tVhvYwZxKaAsdim04AA74C64XImtQ35WWWZBWZYJ2NN9FSo0BwyHrUTaqfTeoaVZ5NSsOuvynbznU_feQWLIXrvMwbRj5Y0miKjojhEbs_CyfO-FKy_XK8jyRQRAHUmHALey8ItOIncYnCZmh3p5gpoV5Ullnz-khLll5cBSMj9kTWEdvH66jQOgVykT7-4tAwCojHbSdGNKTQq4TsnHNDb5nf4AGzsJ8nSgtHhaUz9MKsyLhmjgEgyj8hZdq1PwPXEU3AT9u97i97r1qgk2P5makZ0NKDvwXKaAcgK7YcT71fpVqMtYd9znu0EX3ns9jdTIErTDuYFqOxXbygpirB8LlKdcEW9WMpoui8QCDJLQF71Jg20spRkVFeALhZQTVzax4D9th67d2fs1l-jhYDQ1rDk_2phSP6YfueN7MAN4JRSDe5iov_jPm-iP99YKp3vOSz9bOsQBSivnUjqO_lxiRjvlJ5oVJuE75BzbsdjwndrqQVwT7H-FN9-EHuV5nuBIBWcyIMbgWs3T2AQvmOfEEZyZo2NWx5DArFXUbB1MADUaKkD4PZQgeWsM7qHoeGdCBbdzStCC5MJb2ER59puZRIY_KNdPd2lpbxFc3d3VzR6YkedW-NGmx8aMDnEN9Brd4cqAGMp0aymBBsZBIT3YXkR0k6Pw4YNLTLwi40JGt0mCyVtbzVmszmzNxsuUBc7n16wzJNLSOmEZO0WuL2v-HoooFec1L6M3BkNKzOW-Yi3TU5DEEGjDOi20GV9RSnjrI5oWSbwpHY2PFqIS6edd0erdoX0jFXXb6HrCPA5WVbl8qZ5mgHkmaoPbGIxbm1vk8ime9Yw0FRFeLlnR6aC8Jj4GnERSFOMbhEROZ8MDv2pZCwGqOxeVlrKqOhqunNKVs08zwhUrhb3le_KkKH-acbSW9F2vK1FwpJ4BYGgO_rl4hQw55GgcZI9mdgtItmACr-9B-R_G3QIx1CB8tu0vJBqnSlbBRJprRGKcE-4jHvLxDJM33qD3zbH46lM2wFqdiI_Hoxi5twY8p8Y-OKKlCCECPm0p83Ez0xJ6yNW1clmOQh9TB2YCk2Txpnws9bnBuNQsCSd_bh1PRIya8STEDbHsCEbb_IURGckNTkYThaDiWkTKttRpXigJv7lMURHxkYKDjQkl2p6tJFMprcOwarrhkybEV9QLv46mTv830l-IUr3eS1lEbqMEF2KitIyHSDSxKKyslPFyYvj5oKh7Bu3XYryQrUk8JN4T-L77tuqMYk78zl8tsW6qFujMGg4bVy7LGazny0?>
</g>
</svg>
