<svg xmlns="http://www.w3.org/2000/svg" xmlns:xlink="http://www.w3.org/1999/xlink" contentStyleType="text/css" data-diagram-type="ACTIVITY" height="1057px" preserveAspectRatio="none" style="width:1830px;height:1057px;background:#FFFFFF;" version="1.1" viewBox="0 0 1830 1057" width="1830px" zoomAndPan="magnify"><title>AI &#20986;&#21475;&#27169;&#24335;&#19982;&#20505;&#36873;&#36873;&#25321;</title><defs/><g><g class="title" data-source-line="2"><text fill="#174B50" font-family="Noto Sans CJK SC" font-size="18" font-weight="bold" lengthAdjust="spacing" textLength="183.5629" x="821.8626" y="43.8799">AI &#20986;&#21475;&#27169;&#24335;&#19982;&#20505;&#36873;&#36873;&#25321;</text></g><ellipse cx="384.105" cy="78.0638" fill="#FFFFFF" rx="10" ry="10" style="stroke:#000000;stroke-width:1;"/><rect fill="#F3F8F6" height="56.2719" rx="4" ry="4" style="stroke:#52777A;stroke-width:1;" width="231.9991" x="268.1054" y="108.0638"/><text fill="#24383B" font-family="Noto Sans CJK SC" font-size="14" lengthAdjust="spacing" textLength="195.9991" x="286.1054" y="142.3038">&#35835;&#21462;&#26377;&#25928;&#20505;&#36873;&#24182;&#24402;&#19968;&#21270;&#20154;&#24037;&#27169;&#24335;</text><rect fill="#F3F8F6" height="56.2719" rx="4" ry="4" style="stroke:#52777A;stroke-width:1;" width="281.489" x="243.3605" y="184.3357"/><text fill="#24383B" font-family="Noto Sans CJK SC" font-size="14" lengthAdjust="spacing" textLength="245.489" x="261.3605" y="218.5757">&#20174; SQLite &#19982;&#21407;&#23376;&#20998;&#31867;&#32531;&#23384;&#22797;&#29992;&#24050;&#30693;&#22495;&#21517;</text><polygon fill="#F3F8F6" points="318.2783,263.2756,449.9318,263.2756,461.9318,281.4116,449.9318,299.5475,318.2783,299.5475,306.2783,281.4116,318.2783,263.2756" style="stroke:#52777A;stroke-width:1;"/><text fill="#24383B" font-family="Noto Sans CJK SC" font-size="14" lengthAdjust="spacing" textLength="115.6535" x="326.2783" y="287.5155">forced_fallback&#65311;</text><text fill="#36575B" font-family="Noto Sans CJK SC" font-size="14" lengthAdjust="spacing" textLength="13.9999" x="284.2783" y="269.3796">&#26159;</text><text fill="#36575B" font-family="Noto Sans CJK SC" font-size="14" lengthAdjust="spacing" textLength="13.9999" x="469.9318" y="269.3796">&#21542;</text><rect fill="#F3F8F6" height="76.5438" rx="4" ry="4" style="stroke:#52777A;stroke-width:1;" width="195.8933" x="6" y="309.5475"/><text fill="#24383B" font-family="Noto Sans CJK SC" font-size="14" lengthAdjust="spacing" textLength="102.8856" x="52.5039" y="343.7874">&#31227;&#38500;&#21160;&#24577; AI &#36335;&#30001;</text><text fill="#24383B" font-family="Noto Sans CJK SC" font-size="14" lengthAdjust="spacing" textLength="159.8933" x="24" y="364.0594">&#26222;&#36890;&#25968;&#25454;&#38754; freedom &#30452;&#20986;</text><rect fill="#F3F8F6" height="76.5438" rx="4" ry="4" style="stroke:#52777A;stroke-width:1;" width="257.3112" x="555.6078" y="309.5475"/><text fill="#24383B" font-family="Noto Sans CJK SC" font-size="14" lengthAdjust="spacing" textLength="167.9993" x="600.2637" y="343.7874">&#29420;&#31435;&#25191;&#34892;&#20027;&#26426;&#20351;&#29992;&#20505;&#36873;&#20973;&#25454;</text><text fill="#24383B" font-family="Noto Sans CJK SC" font-size="14" lengthAdjust="spacing" textLength="221.3112" x="573.6078" y="364.0594">&#35748;&#35777; VLESS + REALITY / HTTPS 204</text><polygon fill="#F3F8F6" points="613.2637,408.7593,755.2631,408.7593,767.2631,426.8952,755.2631,445.0312,613.2637,445.0312,601.2637,426.8952,613.2637,408.7593" style="stroke:#52777A;stroke-width:1;"/><text fill="#24383B" font-family="Noto Sans CJK SC" font-size="14" lengthAdjust="spacing" textLength="125.9995" x="621.2637" y="432.9992">&#31649;&#29702;&#36890;&#36947;&#25506;&#27979;&#24322;&#24120;&#65311;</text><text fill="#36575B" font-family="Noto Sans CJK SC" font-size="14" lengthAdjust="spacing" textLength="13.9999" x="579.2637" y="414.8632">&#26159;</text><text fill="#36575B" font-family="Noto Sans CJK SC" font-size="14" lengthAdjust="spacing" textLength="13.9999" x="775.2631" y="414.8632">&#21542;</text><rect fill="#F3F8F6" height="76.5438" rx="4" ry="4" style="stroke:#52777A;stroke-width:1;" width="208.8853" x="211.8933" y="455.0312"/><text fill="#24383B" font-family="Noto Sans CJK SC" font-size="14" lengthAdjust="spacing" textLength="172.8853" x="229.8933" y="489.2711">&#20445;&#30041;&#27492;&#21069;&#36873;&#25321;&#19982;&#21160;&#24577; AI &#36335;&#30001;</text><text fill="#24383B" font-family="Noto Sans CJK SC" font-size="14" lengthAdjust="spacing" textLength="110.5015" x="261.0852" y="509.543">&#25253;&#21578; probe_error</text><polygon fill="#F3F8F6" points="1006.552,455.0312,1097.8297,455.0312,1109.8297,473.1671,1097.8297,491.3031,1006.552,491.3031,994.552,473.1671,1006.552,455.0312" style="stroke:#52777A;stroke-width:1;"/><text fill="#24383B" font-family="Noto Sans CJK SC" font-size="14" lengthAdjust="spacing" textLength="75.2777" x="1014.552" y="479.2711">auto &#27169;&#24335;&#65311;</text><text fill="#36575B" font-family="Noto Sans CJK SC" font-size="14" lengthAdjust="spacing" textLength="13.9999" x="972.552" y="461.1352">&#26159;</text><text fill="#36575B" font-family="Noto Sans CJK SC" font-size="14" lengthAdjust="spacing" textLength="111.8736" x="1117.8297" y="461.1352">primary / backup</text><polygon fill="#F3F8F6" points="700.5877,501.3031,814.5873,501.3031,826.5873,519.4391,814.5873,537.575,700.5877,537.575,688.5877,519.4391,700.5877,501.3031" style="stroke:#52777A;stroke-width:1;"/><text fill="#24383B" font-family="Noto Sans CJK SC" font-size="14" lengthAdjust="spacing" textLength="97.9996" x="708.5877" y="525.543">&#23384;&#22312;&#21487;&#36798;&#20505;&#36873;&#65311;</text><text fill="#36575B" font-family="Noto Sans CJK SC" font-size="14" lengthAdjust="spacing" textLength="13.9999" x="666.5878" y="507.4071">&#26159;</text><text fill="#36575B" font-family="Noto Sans CJK SC" font-size="14" lengthAdjust="spacing" textLength="13.9999" x="834.5873" y="507.4071">&#21542;</text><rect fill="#F3F8F6" height="56.2719" rx="4" ry="4" style="stroke:#52777A;stroke-width:1;" width="203.9993" x="516.6733" y="547.575"/><text fill="#24383B" font-family="Noto Sans CJK SC" font-size="14" lengthAdjust="spacing" textLength="167.9993" x="534.6733" y="581.8149">&#25353;&#20248;&#20808;&#32423;&#36873;&#25321;&#39318;&#20010;&#21487;&#36798;&#20505;&#36873;</text><rect fill="#F3F8F6" height="76.5438" rx="4" ry="4" style="stroke:#52777A;stroke-width:1;" width="315.7888" x="460.7786" y="638.8469"/><text fill="#24383B" font-family="Noto Sans CJK SC" font-size="14" lengthAdjust="spacing" textLength="279.7888" x="478.7786" y="673.0868">&#25353; &#40664;&#35748;&#21450;&#21508;&#31471;&#21475; all / classified &#33539;&#22260;&#29983;&#25104;&#35268;&#21017;</text><text fill="#24383B" font-family="Noto Sans CJK SC" font-size="14" lengthAdjust="spacing" textLength="129.5555" x="553.8952" y="693.3588">&#25351;&#21521;&#36873;&#20013;&#30340; ai_proxy</text><rect fill="#F3F8F6" height="76.5438" rx="4" ry="4" style="stroke:#52777A;stroke-width:1;" width="199.8694" x="796.5674" y="547.575"/><text fill="#24383B" font-family="Noto Sans CJK SC" font-size="14" lengthAdjust="spacing" textLength="102.8856" x="845.0593" y="581.8149">&#31227;&#38500;&#21160;&#24577; AI &#36335;&#30001;</text><text fill="#24383B" font-family="Noto Sans CJK SC" font-size="14" lengthAdjust="spacing" textLength="163.8694" x="814.5674" y="602.0868">&#25253;&#21578; fallback_to_primary</text><polygon fill="#F3F8F6" points="757.5875,725.3907,769.5875,737.3907,757.5875,749.3907,745.5875,737.3907,757.5875,725.3907" style="stroke:#52777A;stroke-width:1;"/><rect fill="#F3F8F6" height="56.2719" rx="4" ry="4" style="stroke:#52777A;stroke-width:1;" width="217.9992" x="1237.7945" y="501.3031"/><text fill="#24383B" font-family="Noto Sans CJK SC" font-size="14" lengthAdjust="spacing" textLength="181.9992" x="1255.7945" y="535.543">&#36873;&#25321;&#20154;&#24037;&#25351;&#23450;&#30340;&#26377;&#25928;&#20505;&#36873;&#32034;&#24341;</text><polygon fill="#F3F8F6" points="1289.7943,592.575,1403.7939,592.575,1415.7939,610.711,1403.7939,628.8469,1289.7943,628.8469,1277.7943,610.711,1289.7943,592.575" style="stroke:#52777A;stroke-width:1;"/><text fill="#24383B" font-family="Noto Sans CJK SC" font-size="14" lengthAdjust="spacing" textLength="97.9996" x="1297.7943" y="616.8149">&#25351;&#23450;&#20505;&#36873;&#21487;&#36798;&#65311;</text><text fill="#36575B" font-family="Noto Sans CJK SC" font-size="14" lengthAdjust="spacing" textLength="13.9999" x="1255.7944" y="598.679">&#26159;</text><text fill="#36575B" font-family="Noto Sans CJK SC" font-size="14" lengthAdjust="spacing" textLength="13.9999" x="1423.7939" y="598.679">&#21542;</text><rect fill="#F3F8F6" height="76.5438" rx="4" ry="4" style="stroke:#52777A;stroke-width:1;" width="315.7888" x="1036.4367" y="638.8469"/><text fill="#24383B" font-family="Noto Sans CJK SC" font-size="14" lengthAdjust="spacing" textLength="279.7888" x="1054.4367" y="673.0868">&#25353; &#40664;&#35748;&#21450;&#21508;&#31471;&#21475; all / classified &#33539;&#22260;&#29983;&#25104;&#35268;&#21017;</text><text fill="#24383B" font-family="Noto Sans CJK SC" font-size="14" lengthAdjust="spacing" textLength="83.9996" x="1152.3313" y="693.3588">&#25351;&#21521;&#25351;&#23450;&#20505;&#36873;</text><path d="M1646.2887,653.9829 L1646.2887,673.1188 L1626.2887,677.1188 L1646.2887,681.1188 L1646.2887,700.2548 A0,0 0 0 0 1646.2887,700.2548 L1823.2881,700.2548 A0,0 0 0 0 1823.2881,700.2548 L1823.2881,663.9829 L1813.2881,653.9829 L1646.2887,653.9829 A0,0 0 0 0 1646.2887,653.9829" fill="#FFF7D6" style="stroke:#D2AD4A;stroke-width:1;"/><path d="M1813.2881,653.9829 L1813.2881,663.9829 L1823.2881,663.9829 L1813.2881,653.9829" fill="#FFF7D6" style="stroke:#D2AD4A;stroke-width:1;"/><text fill="#594C26" font-family="Noto Sans CJK SC" font-size="14" lengthAdjust="spacing" textLength="139.9994" x="1660.2887" y="683.2228">&#19981;&#38745;&#40664;&#25913;&#36873;&#21478;&#19968;&#20505;&#36873;&#12290;</text><rect fill="#F3F8F6" height="76.5438" rx="4" ry="4" style="stroke:#52777A;stroke-width:1;" width="254.0631" x="1372.2256" y="638.8469"/><text fill="#24383B" font-family="Noto Sans CJK SC" font-size="14" lengthAdjust="spacing" textLength="102.8856" x="1447.8143" y="673.0868">&#31227;&#38500;&#21160;&#24577; AI &#36335;&#30001;</text><text fill="#24383B" font-family="Noto Sans CJK SC" font-size="14" lengthAdjust="spacing" textLength="218.0631" x="1390.2256" y="693.3588">&#25253;&#21578; manual_target_unreachable</text><polygon fill="#F3F8F6" points="1346.7941,725.3907,1358.7941,737.3907,1346.7941,749.3907,1334.7941,737.3907,1346.7941,725.3907" style="stroke:#52777A;stroke-width:1;"/><polygon fill="#F3F8F6" points="1052.1908,759.3907,1064.1908,771.3907,1052.1908,783.3907,1040.1908,771.3907,1052.1908,759.3907" style="stroke:#52777A;stroke-width:1;"/><polygon fill="#F3F8F6" points="684.2634,793.3907,696.2634,805.3907,684.2634,817.3907,672.2634,805.3907,684.2634,793.3907" style="stroke:#52777A;stroke-width:1;"/><polygon fill="#F3F8F6" points="384.105,827.3907,396.105,839.3907,384.105,851.3907,372.105,839.3907,384.105,827.3907" style="stroke:#52777A;stroke-width:1;"/><path d="M506.1047,861.3907 L506.1047,931.2065 L486.1047,935.2065 L506.1047,939.2065 L506.1047,1009.0222 A0,0 0 0 0 506.1047,1009.0222 L844.9154,1009.0222 A0,0 0 0 0 844.9154,1009.0222 L844.9154,871.3907 L834.9154,861.3907 L506.1047,861.3907 A0,0 0 0 0 506.1047,861.3907" fill="#FFF7D6" style="stroke:#D2AD4A;stroke-width:1;"/><path d="M834.9154,861.3907 L834.9154,871.3907 L844.9154,871.3907 L834.9154,861.3907" fill="#FFF7D6" style="stroke:#D2AD4A;stroke-width:1;"/><text fill="#594C26" font-family="Noto Sans CJK SC" font-size="14" lengthAdjust="spacing" textLength="237.999" x="520.1047" y="890.6307">&#24212;&#29992;&#22833;&#36133;&#20445;&#30041;&#24453;&#24212;&#29992;&#29366;&#24577;&#20379;&#21518;&#32493;&#37325;&#35797;&#12290;</text><text fill="#594C26" font-family="Noto Sans CJK SC" font-size="14" lengthAdjust="spacing" textLength="209.9991" x="520.1047" y="910.9026">&#20154;&#24037;&#20999;&#25442;&#25104;&#21151;&#21518;&#25165;&#25345;&#20037;&#21270;&#26032;&#27169;&#24335;&#12290;</text><text fill="#594C26" font-family="Noto Sans CJK SC" font-size="14" lengthAdjust="spacing" textLength="130.9834" x="520.1047" y="931.1745">AI &#22238;&#36864;&#19981;&#20462;&#25913; DNS&#12290;</text><text fill="#594C26" font-family="Noto Sans CJK SC" font-size="14" lengthAdjust="spacing" textLength="301.8107" x="520.1047" y="951.4464">&#29420;&#31435;&#20581;&#24247;&#21608;&#26399;&#40664;&#35748; 30 &#31186;&#65292;&#24674;&#22797;&#21518;&#37325;&#29992;&#21382;&#21490;&#20998;&#31867;&#12290;</text><text fill="#594C26" font-family="Noto Sans CJK SC" font-size="14" lengthAdjust="spacing" textLength="278.8088" x="520.1047" y="971.7183">classified &#33539;&#22260;&#26080; AI &#22495;&#21517;&#26102;&#19981;&#29983;&#25104;&#21160;&#24577;&#35268;&#21017;&#65307;</text><text fill="#594C26" font-family="Noto Sans CJK SC" font-size="14" lengthAdjust="spacing" textLength="256.9689" x="520.1047" y="991.9902">all &#33539;&#22260;&#19981;&#20381;&#36182;&#22495;&#21517;&#20998;&#31867;&#65292;&#24212;&#24613;&#30452;&#20986;&#20248;&#20808;&#12290;</text><rect fill="#F3F8F6" height="76.5438" rx="4" ry="4" style="stroke:#52777A;stroke-width:1;" width="203.9993" x="282.1054" y="896.9346"/><text fill="#24383B" font-family="Noto Sans CJK SC" font-size="14" lengthAdjust="spacing" textLength="111.9995" x="328.1053" y="931.1745">&#37325;&#26032;&#28210;&#26579;&#23436;&#25972;&#37197;&#32622;</text><text fill="#24383B" font-family="Noto Sans CJK SC" font-size="14" lengthAdjust="spacing" textLength="167.9993" x="300.1054" y="951.4464">&#26657;&#39564;&#12289;&#24212;&#29992;&#25110;&#22996;&#25176;&#22806;&#37096;&#37325;&#36733;</text><ellipse cx="384.105" cy="1040.0222" fill="none" rx="11" ry="11" style="stroke:#000000;stroke-width:1;"/><ellipse cx="384.105" cy="1040.0222" fill="#FFFFFF" rx="6" ry="6" style="stroke:#000000;stroke-width:1;"/><line style="stroke:#426C70;stroke-width:1.4;" x1="384.105" x2="384.105" y1="88.0638" y2="108.0638"/><polygon fill="#426C70" points="380.105,98.0638,384.105,108.0638,388.105,98.0638,384.105,102.0638" style="stroke:#426C70;stroke-width:1;"/><line style="stroke:#426C70;stroke-width:1.4;" x1="384.105" x2="384.105" y1="164.3357" y2="184.3357"/><polygon fill="#426C70" points="380.105,174.3357,384.105,184.3357,388.105,174.3357,384.105,178.3357" style="stroke:#426C70;stroke-width:1;"/><line style="stroke:#426C70;stroke-width:1.4;" x1="618.673" x2="618.673" y1="603.8469" y2="638.8469"/><polygon fill="#426C70" points="614.673,628.8469,618.673,638.8469,622.673,628.8469,618.673,632.8469" style="stroke:#426C70;stroke-width:1;"/><line style="stroke:#426C70;stroke-width:1.4;" x1="688.5877" x2="618.673" y1="519.4391" y2="519.4391"/><line style="stroke:#426C70;stroke-width:1.4;" x1="618.673" x2="618.673" y1="519.4391" y2="547.575"/><polygon fill="#426C70" points="614.673,537.575,618.673,547.575,622.673,537.575,618.673,541.575" style="stroke:#426C70;stroke-width:1;"/><line style="stroke:#426C70;stroke-width:1.4;" x1="826.5873" x2="896.5021" y1="519.4391" y2="519.4391"/><line style="stroke:#426C70;stroke-width:1.4;" x1="896.5021" x2="896.5021" y1="519.4391" y2="547.575"/><polygon fill="#426C70" points="892.5021,537.575,896.5021,547.575,900.5021,537.575,896.5021,541.575" style="stroke:#426C70;stroke-width:1;"/><line style="stroke:#426C70;stroke-width:1.4;" x1="618.673" x2="618.673" y1="715.3907" y2="737.3907"/><line style="stroke:#426C70;stroke-width:1.4;" x1="618.673" x2="745.5875" y1="737.3907" y2="737.3907"/><polygon fill="#426C70" points="735.5875,733.3907,745.5875,737.3907,735.5875,741.3907,739.5875,737.3907" style="stroke:#426C70;stroke-width:1;"/><line style="stroke:#426C70;stroke-width:1.4;" x1="896.5021" x2="896.5021" y1="624.1188" y2="737.3907"/><line style="stroke:#426C70;stroke-width:1.4;" x1="896.5021" x2="769.5875" y1="737.3907" y2="737.3907"/><polygon fill="#426C70" points="779.5875,733.3907,769.5875,737.3907,779.5875,741.3907,775.5875,737.3907" style="stroke:#426C70;stroke-width:1;"/><line style="stroke:#426C70;stroke-width:1.4;" x1="1277.7943" x2="1194.3311" y1="610.711" y2="610.711"/><line style="stroke:#426C70;stroke-width:1.4;" x1="1194.3311" x2="1194.3311" y1="610.711" y2="638.8469"/><polygon fill="#426C70" points="1190.3311,628.8469,1194.3311,638.8469,1198.3311,628.8469,1194.3311,632.8469" style="stroke:#426C70;stroke-width:1;"/><line style="stroke:#426C70;stroke-width:1.4;" x1="1415.7939" x2="1499.2571" y1="610.711" y2="610.711"/><line style="stroke:#426C70;stroke-width:1.4;" x1="1499.2571" x2="1499.2571" y1="610.711" y2="638.8469"/><polygon fill="#426C70" points="1495.2571,628.8469,1499.2571,638.8469,1503.2571,628.8469,1499.2571,632.8469" style="stroke:#426C70;stroke-width:1;"/><line style="stroke:#426C70;stroke-width:1.4;" x1="1194.3311" x2="1194.3311" y1="715.3907" y2="737.3907"/><line style="stroke:#426C70;stroke-width:1.4;" x1="1194.3311" x2="1334.7941" y1="737.3907" y2="737.3907"/><polygon fill="#426C70" points="1324.7941,733.3907,1334.7941,737.3907,1324.7941,741.3907,1328.7941,737.3907" style="stroke:#426C70;stroke-width:1;"/><line style="stroke:#426C70;stroke-width:1.4;" x1="1499.2571" x2="1499.2571" y1="715.3907" y2="737.3907"/><line style="stroke:#426C70;stroke-width:1.4;" x1="1499.2571" x2="1358.7941" y1="737.3907" y2="737.3907"/><polygon fill="#426C70" points="1368.7941,733.3907,1358.7941,737.3907,1368.7941,741.3907,1364.7941,737.3907" style="stroke:#426C70;stroke-width:1;"/><line style="stroke:#426C70;stroke-width:1.4;" x1="1346.7941" x2="1346.7941" y1="557.575" y2="592.575"/><polygon fill="#426C70" points="1342.7941,582.575,1346.7941,592.575,1350.7941,582.575,1346.7941,586.575" style="stroke:#426C70;stroke-width:1;"/><line style="stroke:#426C70;stroke-width:1.4;" x1="994.552" x2="757.5875" y1="473.1671" y2="473.1671"/><line style="stroke:#426C70;stroke-width:1.4;" x1="757.5875" x2="757.5875" y1="473.1671" y2="501.3031"/><polygon fill="#426C70" points="753.5875,491.3031,757.5875,501.3031,761.5875,491.3031,757.5875,495.3031" style="stroke:#426C70;stroke-width:1;"/><line style="stroke:#426C70;stroke-width:1.4;" x1="1109.8297" x2="1346.7941" y1="473.1671" y2="473.1671"/><line style="stroke:#426C70;stroke-width:1.4;" x1="1346.7941" x2="1346.7941" y1="473.1671" y2="501.3031"/><polygon fill="#426C70" points="1342.7941,491.3031,1346.7941,501.3031,1350.7941,491.3031,1346.7941,495.3031" style="stroke:#426C70;stroke-width:1;"/><line style="stroke:#426C70;stroke-width:1.4;" x1="757.5875" x2="757.5875" y1="749.3907" y2="771.3907"/><line style="stroke:#426C70;stroke-width:1.4;" x1="757.5875" x2="1040.1908" y1="771.3907" y2="771.3907"/><polygon fill="#426C70" points="1030.1908,767.3907,1040.1908,771.3907,1030.1908,775.3907,1034.1908,771.3907" style="stroke:#426C70;stroke-width:1;"/><line style="stroke:#426C70;stroke-width:1.4;" x1="1346.7941" x2="1346.7941" y1="749.3907" y2="771.3907"/><line style="stroke:#426C70;stroke-width:1.4;" x1="1346.7941" x2="1064.1908" y1="771.3907" y2="771.3907"/><polygon fill="#426C70" points="1074.1908,767.3907,1064.1908,771.3907,1074.1908,775.3907,1070.1908,771.3907" style="stroke:#426C70;stroke-width:1;"/><line style="stroke:#426C70;stroke-width:1.4;" x1="601.2637" x2="316.3359" y1="426.8952" y2="426.8952"/><line style="stroke:#426C70;stroke-width:1.4;" x1="316.3359" x2="316.3359" y1="426.8952" y2="455.0312"/><polygon fill="#426C70" points="312.3359,445.0312,316.3359,455.0312,320.3359,445.0312,316.3359,449.0312" style="stroke:#426C70;stroke-width:1;"/><line style="stroke:#426C70;stroke-width:1.4;" x1="767.2631" x2="1052.1908" y1="426.8952" y2="426.8952"/><line style="stroke:#426C70;stroke-width:1.4;" x1="1052.1908" x2="1052.1908" y1="426.8952" y2="455.0312"/><polygon fill="#426C70" points="1048.1908,445.0312,1052.1908,455.0312,1056.1908,445.0312,1052.1908,449.0312" style="stroke:#426C70;stroke-width:1;"/><line style="stroke:#426C70;stroke-width:1.4;" x1="316.3359" x2="316.3359" y1="531.575" y2="805.3907"/><line style="stroke:#426C70;stroke-width:1.4;" x1="316.3359" x2="672.2634" y1="805.3907" y2="805.3907"/><polygon fill="#426C70" points="662.2634,801.3907,672.2634,805.3907,662.2634,809.3907,666.2634,805.3907" style="stroke:#426C70;stroke-width:1;"/><line style="stroke:#426C70;stroke-width:1.4;" x1="1052.1908" x2="1052.1908" y1="783.3907" y2="805.3907"/><line style="stroke:#426C70;stroke-width:1.4;" x1="1052.1908" x2="696.2634" y1="805.3907" y2="805.3907"/><polygon fill="#426C70" points="706.2634,801.3907,696.2634,805.3907,706.2634,809.3907,702.2634,805.3907" style="stroke:#426C70;stroke-width:1;"/><line style="stroke:#426C70;stroke-width:1.4;" x1="684.2634" x2="684.2634" y1="386.0913" y2="408.7593"/><polygon fill="#426C70" points="680.2634,398.7593,684.2634,408.7593,688.2634,398.7593,684.2634,402.7593" style="stroke:#426C70;stroke-width:1;"/><line style="stroke:#426C70;stroke-width:1.4;" x1="306.2783" x2="103.9467" y1="281.4116" y2="281.4116"/><line style="stroke:#426C70;stroke-width:1.4;" x1="103.9467" x2="103.9467" y1="281.4116" y2="309.5475"/><polygon fill="#426C70" points="99.9467,299.5475,103.9467,309.5475,107.9467,299.5475,103.9467,303.5475" style="stroke:#426C70;stroke-width:1;"/><line style="stroke:#426C70;stroke-width:1.4;" x1="461.9318" x2="684.2634" y1="281.4116" y2="281.4116"/><line style="stroke:#426C70;stroke-width:1.4;" x1="684.2634" x2="684.2634" y1="281.4116" y2="309.5475"/><polygon fill="#426C70" points="680.2634,299.5475,684.2634,309.5475,688.2634,299.5475,684.2634,303.5475" style="stroke:#426C70;stroke-width:1;"/><line style="stroke:#426C70;stroke-width:1.4;" x1="103.9467" x2="103.9467" y1="386.0913" y2="839.3907"/><line style="stroke:#426C70;stroke-width:1.4;" x1="103.9467" x2="372.105" y1="839.3907" y2="839.3907"/><polygon fill="#426C70" points="362.105,835.3907,372.105,839.3907,362.105,843.3907,366.105,839.3907" style="stroke:#426C70;stroke-width:1;"/><line style="stroke:#426C70;stroke-width:1.4;" x1="684.2634" x2="684.2634" y1="817.3907" y2="839.3907"/><line style="stroke:#426C70;stroke-width:1.4;" x1="684.2634" x2="396.105" y1="839.3907" y2="839.3907"/><polygon fill="#426C70" points="406.105,835.3907,396.105,839.3907,406.105,843.3907,402.105,839.3907" style="stroke:#426C70;stroke-width:1;"/><line style="stroke:#426C70;stroke-width:1.4;" x1="384.105" x2="384.105" y1="240.6077" y2="263.2756"/><polygon fill="#426C70" points="380.105,253.2756,384.105,263.2756,388.105,253.2756,384.105,257.2756" style="stroke:#426C70;stroke-width:1;"/><line style="stroke:#426C70;stroke-width:1.4;" x1="384.105" x2="384.105" y1="851.3907" y2="896.9346"/><polygon fill="#426C70" points="380.105,886.9346,384.105,896.9346,388.105,886.9346,384.105,890.9346" style="stroke:#426C70;stroke-width:1;"/><line style="stroke:#426C70;stroke-width:1.4;" x1="384.105" x2="384.105" y1="973.4784" y2="1029.0222"/><polygon fill="#426C70" points="380.105,1019.0222,384.105,1029.0222,388.105,1019.0222,384.105,1023.0222" style="stroke:#426C70;stroke-width:1;"/><!--SRC=[fLHTRnfN47tVNt7xvgXI6oLzCa-H6gcHhAWfLgLAaT0QbdZLDLZB8ZLlIsAR3-y2Ze4OOvUOWg59WTWYDkRBFoOxz-u- -IzqBXTRHavUMWajqkxCd3FdpCmtQYIenKCAYHalDUKxDRwcIOPgQ0fvz8H0SW2vlsZh24Ovfvy5i-oPQVpHxRybAMR8kY4jkjqXv4hq84sBAH405sSmVkFqJR1Apc00vmrHmISjEiCiyJzRKWs5y7hPAhJpaDfY9qCsseNs7jHjLcZ1-IchDg1QXRpjazGmMGX7zQ0I2eHbJLkHWxzVZQhtYB6gHCW2tUlUamXPPCsXLwv3faND1AVkddTPuUHvX9OxdhbFYn-ftV4EQoIiAqeekaPOfOVT-IH5Yoba0VB7eihsF-p3DaqttIFBwG_fmS0PNt96eh5a6wiyZxYTkjjDa5-N7llzv5loo-D7Iq-MVoFVav-Mbt_samVtV_1XCSwRTOvOVWi9U8bTcgtHJzimUWNz_jq64DovF6J5CctN8MqBaRb6TplAD60dGzRrw8eIK7GzgdEqkJuuj1mteaG8_oKq7i85FsX1hkjE9gB3BqKYCsgbdT4URAROe2cOUSSbf__-TghlLZ3nXdie4kGoaDzW7xeuH0IjGuM2cXoBgM5L2H7NUWsL7YjKQIhlDZSWLSRUh2JaTx2Qqs-p_GqYgm7iyu-NelXSZrEihxekDBgUbu0HnJhgcgnVLug4rF2DQhDFI8y7nzTdVimy41ECn3hxIEdseBDU3KP5tusU8cWsArDflgxd_vJeDjH_56TDZiHbBO1R_48n0l68hiZ1LNb5KwwTZ4HnJNNrnQenUq5mQMtli8pKQU5YskGnN_CfYy_cgraOYZlDdLTwxbyy5xsaJKiVQV-KLdUXOz5YpzkqsHXNZBuxyjvRdyq430guVpHLWcQ1fl50bBpNBSnpnsEVDCTGH4BznEqrn2h1P5EyP9aprC2PL22VPSCsJ-yM1M5XBwIIrAwXof31evEbQPjQ2UTY4oyO9pZT8X7FhsBbJyyqKGhdieCwa1-V-iKtSJqWqO31EUoqw45Lc4mUtYUi-UPgPD543KyS8Y05JZQx1RbJSG15YJlcqxVlffZJOqZVdY6ic0VXgvYAgr45S_duY2JERNBeVYg9D060yAW6DHlYz8c5vgWtViMCwFg_]--></g></svg>