<svg xmlns="http://www.w3.org/2000/svg" xmlns:xlink="http://www.w3.org/1999/xlink" contentStyleType="text/css" data-diagram-type="ACTIVITY" height="1590px" preserveAspectRatio="none" style="width:600px;height:1590px;background:#FFFFFF;" version="1.1" viewBox="0 0 600 1590" width="600px" zoomAndPan="magnify"><title>&#23436;&#25972;&#28798;&#22791;&#21253;&#30340;&#38548;&#31163;&#24674;&#22797;&#20934;&#22791;</title><defs/><g><g class="title" data-source-line="2"><text fill="#000000" font-family="Noto Sans CJK SC" font-size="22" font-weight="bold" lengthAdjust="spacing" textLength="264.0009" x="166.5241" y="40.5201">&#23436;&#25972;&#28798;&#22791;&#21253;&#30340;&#38548;&#31163;&#24674;&#22797;&#20934;&#22791;</text></g><ellipse cx="205.0002" cy="67.8561" fill="#FFFFFF" rx="10" ry="10" style="stroke:#000000;stroke-width:1;"/><rect fill="#FFFFFF" height="38.824" rx="3" ry="3" style="stroke:#000000;stroke-width:1;" width="213.7912" x="98.1046" y="97.8561"/><text fill="#000000" font-family="Noto Sans CJK SC" font-size="13" lengthAdjust="spacing" textLength="193.7912" x="108.1046" y="122.9361">&#36873;&#25321;&#26412;&#22320; tar.gz &#25110; R2 &#19979;&#36733;&#30340; .enc</text><rect fill="#FFFFFF" height="57.648" rx="3" ry="3" style="stroke:#000000;stroke-width:1;" width="215.0002" x="97.5001" y="208.0921"/><text fill="#000000" font-family="Noto Sans CJK SC" font-size="13" lengthAdjust="spacing" textLength="195.0002" x="107.5001" y="233.1721">&#20174;&#21463;&#20445;&#25252;&#25991;&#20214;&#25110;&#29615;&#22659;&#21464;&#37327;&#35835;&#21462;&#23494;&#30721;</text><text fill="#000000" font-family="Noto Sans CJK SC" font-size="13" lengthAdjust="spacing" textLength="130.0002" x="140.0001" y="251.9962">&#39564;&#35777;&#24182;&#35299;&#23494;&#21040;&#20020;&#26102;&#25991;&#20214;</text><polygon fill="#FFFFFF" points="172.5002,156.6801,237.5002,156.6801,249.5002,168.6801,237.5002,180.6801,172.5002,180.6801,160.5002,168.6801,172.5002,156.6801" style="stroke:#000000;stroke-width:1;"/><text fill="#000000" font-family="Noto Sans CJK SC" font-size="13" lengthAdjust="spacing" textLength="13" x="209.0002" y="195.7601">&#26159;</text><text fill="#000000" font-family="Noto Sans CJK SC" font-size="13" lengthAdjust="spacing" textLength="65.0001" x="172.5002" y="174.3481">&#21152;&#23494;&#24402;&#26723;&#65311;</text><polygon fill="#FFFFFF" points="205.0002,285.7402,217.0002,297.7402,205.0002,309.7402,193.0002,297.7402,205.0002,285.7402" style="stroke:#000000;stroke-width:1;"/><rect fill="#FFFFFF" height="57.648" rx="3" ry="3" style="stroke:#000000;stroke-width:1;" width="230.1842" x="89.9081" y="329.7402"/><text fill="#000000" font-family="Noto Sans CJK SC" font-size="13" lengthAdjust="spacing" textLength="210.1842" x="99.9081" y="354.8202">&#26657;&#39564;&#24402;&#26723;&#36335;&#24452;&#12289;&#25991;&#20214;&#22823;&#23567;&#19982; SHA-256</text><text fill="#000000" font-family="Noto Sans CJK SC" font-size="13" lengthAdjust="spacing" textLength="108.1861" x="150.9072" y="373.6442">&#26816;&#26597;&#20004;&#23618; manifest</text><rect fill="#FFFFFF" height="38.824" rx="3" ry="3" style="stroke:#000000;stroke-width:1;" width="163.0002" x="123.5001" y="458.8002"/><text fill="#000000" font-family="Noto Sans CJK SC" font-size="13" lengthAdjust="spacing" textLength="143.0002" x="133.5001" y="483.8802">&#36820;&#22238;&#22833;&#36133;&#65292;&#19981;&#21457;&#24067;&#24674;&#22797;&#26641;</text><ellipse cx="205.0002" cy="534.7122" fill="none" rx="11" ry="11" style="stroke:#000000;stroke-width:1;"/><ellipse cx="205.0002" cy="534.7122" fill="#FFFFFF" rx="6" ry="6" style="stroke:#000000;stroke-width:1;"/><polygon fill="#FFFFFF" points="159.5001,407.3882,250.5003,407.3882,262.5003,419.3882,250.5003,431.3882,159.5001,431.3882,147.5001,419.3882,159.5001,407.3882" style="stroke:#000000;stroke-width:1;"/><text fill="#000000" font-family="Noto Sans CJK SC" font-size="13" lengthAdjust="spacing" textLength="13" x="209.0002" y="446.4682">&#21542;</text><text fill="#000000" font-family="Noto Sans CJK SC" font-size="13" lengthAdjust="spacing" textLength="91.0001" x="159.5001" y="425.0562">&#24402;&#26723;&#26657;&#39564;&#36890;&#36807;&#65311;</text><text fill="#000000" font-family="Noto Sans CJK SC" font-size="13" lengthAdjust="spacing" textLength="13" x="262.5003" y="415.6442">&#26159;</text><polygon fill="#FFFFFF" points="113.2201,639.1242,296.7803,639.1242,308.7803,651.1242,296.7803,663.1242,113.2201,663.1242,101.2201,651.1242,113.2201,639.1242" style="stroke:#000000;stroke-width:1;"/><text fill="#000000" font-family="Noto Sans CJK SC" font-size="13" lengthAdjust="spacing" textLength="183.5602" x="113.2201" y="656.7922">&#26174;&#24335;&#20351;&#29992; --allow-incomplete&#65311;</text><text fill="#000000" font-family="Noto Sans CJK SC" font-size="13" lengthAdjust="spacing" textLength="13" x="88.2201" y="647.3802">&#26159;</text><text fill="#000000" font-family="Noto Sans CJK SC" font-size="13" lengthAdjust="spacing" textLength="13" x="308.7803" y="647.3802">&#21542;</text><rect fill="#FFFFFF" height="38.824" rx="3" ry="3" style="stroke:#000000;stroke-width:1;" width="124.0001" x="29.2201" y="673.1242"/><text fill="#000000" font-family="Noto Sans CJK SC" font-size="13" lengthAdjust="spacing" textLength="104.0001" x="39.2201" y="698.2042">&#35760;&#24405;&#37096;&#20998;&#24674;&#22797;&#29366;&#24577;</text><rect fill="#FFFFFF" height="38.824" rx="3" ry="3" style="stroke:#000000;stroke-width:1;" width="137.0001" x="250.2802" y="673.1242"/><text fill="#000000" font-family="Noto Sans CJK SC" font-size="13" lengthAdjust="spacing" textLength="117.0001" x="260.2802" y="698.2042">&#20889;&#20837;&#21069;&#25298;&#32477;&#24674;&#22797;&#20934;&#22791;</text><ellipse cx="318.7803" cy="742.9482" fill="none" rx="11" ry="11" style="stroke:#000000;stroke-width:1;"/><ellipse cx="318.7803" cy="742.9482" fill="#FFFFFF" rx="6" ry="6" style="stroke:#000000;stroke-width:1;"/><polygon fill="#FFFFFF" points="120.5001,587.7122,289.5003,587.7122,301.5003,599.7122,289.5003,611.7122,120.5001,611.7122,108.5001,599.7122,120.5001,587.7122" style="stroke:#000000;stroke-width:1;"/><text fill="#000000" font-family="Noto Sans CJK SC" font-size="13" lengthAdjust="spacing" textLength="13" x="209.0002" y="626.7922">&#21542;</text><text fill="#000000" font-family="Noto Sans CJK SC" font-size="13" lengthAdjust="spacing" textLength="169.0002" x="120.5001" y="605.3802">&#24517;&#38656;&#25968;&#25454;&#24211;&#19982;&#33410;&#28857;&#26448;&#26009;&#23436;&#25972;&#65311;</text><text fill="#000000" font-family="Noto Sans CJK SC" font-size="13" lengthAdjust="spacing" textLength="13" x="301.5003" y="595.9682">&#26159;</text><polygon fill="#FFFFFF" points="205.0002,773.9482,217.0002,785.9482,205.0002,797.9482,193.0002,785.9482,205.0002,773.9482" style="stroke:#000000;stroke-width:1;"/><rect fill="#FFFFFF" height="57.648" rx="3" ry="3" style="stroke:#000000;stroke-width:1;" width="179.9132" x="115.0436" y="817.9482"/><text fill="#000000" font-family="Noto Sans CJK SC" font-size="13" lengthAdjust="spacing" textLength="78.0001" x="166.0002" y="843.0283">&#26816;&#26597;&#36755;&#20986;&#30446;&#24405;</text><text fill="#000000" font-family="Noto Sans CJK SC" font-size="13" lengthAdjust="spacing" textLength="159.9132" x="125.0436" y="861.8523">&#24050;&#26377;&#38750;&#31354;&#30446;&#24405;&#38656;&#26174;&#24335; --force</text><rect fill="#FFFFFF" height="57.648" rx="3" ry="3" style="stroke:#000000;stroke-width:1;" width="228.0002" x="91.0001" y="895.5963"/><text fill="#000000" font-family="Noto Sans CJK SC" font-size="13" lengthAdjust="spacing" textLength="169.0002" x="120.5001" y="920.6763">&#22312;&#30446;&#26631;&#30446;&#24405;&#26049;&#21019;&#24314;&#20020;&#26102;&#24674;&#22797;&#26641;</text><text fill="#000000" font-family="Noto Sans CJK SC" font-size="13" lengthAdjust="spacing" textLength="208.0002" x="101.0001" y="939.5003">&#20889;&#20837;&#25968;&#25454;&#24211;&#12289;&#37197;&#32622;&#12289;&#38468;&#20214;&#19982;&#33410;&#28857;&#26448;&#26009;</text><rect fill="#FFFFFF" height="38.824" rx="3" ry="3" style="stroke:#000000;stroke-width:1;" width="163.9881" x="123.0061" y="973.2443"/><text fill="#000000" font-family="Noto Sans CJK SC" font-size="13" lengthAdjust="spacing" textLength="143.9881" x="133.0061" y="998.3243">&#29983;&#25104; restore-report.json</text><rect fill="#FFFFFF" height="38.824" rx="3" ry="3" style="stroke:#000000;stroke-width:1;" width="111.0001" x="149.5001" y="1032.0683"/><text fill="#000000" font-family="Noto Sans CJK SC" font-size="13" lengthAdjust="spacing" textLength="91.0001" x="159.5001" y="1057.1483">&#21457;&#24067;&#38548;&#31163;&#24674;&#22797;&#26641;</text><polygon fill="#FFFFFF" points="153.0001,1090.8923,257.0003,1090.8923,269.0003,1102.8923,257.0003,1114.8923,153.0001,1114.8923,141.0001,1102.8923,153.0001,1090.8923" style="stroke:#000000;stroke-width:1;"/><text fill="#000000" font-family="Noto Sans CJK SC" font-size="13" lengthAdjust="spacing" textLength="104.0001" x="153.0001" y="1108.5603">&#20934;&#22791;&#19982;&#21457;&#24067;&#25104;&#21151;&#65311;</text><text fill="#000000" font-family="Noto Sans CJK SC" font-size="13" lengthAdjust="spacing" textLength="13" x="128.0001" y="1099.1483">&#26159;</text><text fill="#000000" font-family="Noto Sans CJK SC" font-size="13" lengthAdjust="spacing" textLength="13" x="269.0003" y="1099.1483">&#21542;</text><rect fill="#FFFFFF" height="38.824" rx="3" ry="3" style="stroke:#000000;stroke-width:1;" width="176.0002" x="6" y="1124.8923"/><text fill="#000000" font-family="Noto Sans CJK SC" font-size="13" lengthAdjust="spacing" textLength="156.0002" x="16" y="1149.9724">&#36820;&#22238;&#20934;&#22791;&#32467;&#26524;&#19982;&#23436;&#25972;&#24615;&#29366;&#24577;</text><rect fill="#FFFFFF" height="57.648" rx="3" ry="3" style="stroke:#000000;stroke-width:1;" width="228.0002" x="202.0002" y="1124.8923"/><text fill="#000000" font-family="Noto Sans CJK SC" font-size="13" lengthAdjust="spacing" textLength="65.0001" x="283.5003" y="1149.9724">&#28165;&#29702;&#20020;&#26102;&#26641;</text><text fill="#000000" font-family="Noto Sans CJK SC" font-size="13" lengthAdjust="spacing" textLength="208.0002" x="212.0002" y="1168.7964">&#26356;&#26032;&#24050;&#26377;&#30446;&#24405;&#22833;&#36133;&#26102;&#22238;&#28378;&#24050;&#26367;&#25442;&#25991;&#20214;</text><ellipse cx="316.0003" cy="1213.5404" fill="none" rx="11" ry="11" style="stroke:#000000;stroke-width:1;"/><ellipse cx="316.0003" cy="1213.5404" fill="#FFFFFF" rx="6" ry="6" style="stroke:#000000;stroke-width:1;"/><rect fill="#FFFFFF" height="308.1801" rx="3" ry="3" style="stroke:#000000;stroke-width:1;" width="520.8685" x="73.1806" y="1234.5404"/><path d="M174.1807,1234.5404 L174.1807,1246.3644 L164.1807,1256.3644 L73.1806,1256.3644" fill="none" style="stroke:#000000;stroke-width:1;"/><text fill="#000000" font-family="Noto Sans CJK SC" font-size="13" lengthAdjust="spacing" textLength="91.0001" x="76.1806" y="1250.6204">&#20154;&#24037;&#37096;&#32626;&#19982;&#39564;&#25910;</text><rect fill="#FFFFFF" height="57.648" rx="3" ry="3" style="stroke:#000000;stroke-width:1;" width="243.6393" x="83.1806" y="1273.3644"/><text fill="#000000" font-family="Noto Sans CJK SC" font-size="13" lengthAdjust="spacing" textLength="78.0001" x="166.0002" y="1298.4444">&#26816;&#26597;&#24674;&#22797;&#25253;&#21578;</text><text fill="#000000" font-family="Noto Sans CJK SC" font-size="13" lengthAdjust="spacing" textLength="223.6393" x="93.1806" y="1317.2684">&#24674;&#22797; Secret&#12289;&#32593;&#32476;&#12289;&#38450;&#28779;&#22681;&#19982;&#31649;&#29702;&#36523;&#20221;</text><rect fill="#FFFFFF" height="57.648" rx="3" ry="3" style="stroke:#000000;stroke-width:1;" width="215.0002" x="97.5001" y="1351.0124"/><text fill="#000000" font-family="Noto Sans CJK SC" font-size="13" lengthAdjust="spacing" textLength="78.0001" x="166.0002" y="1376.0924">&#20572;&#27490;&#30446;&#26631;&#26381;&#21153;</text><text fill="#000000" font-family="Noto Sans CJK SC" font-size="13" lengthAdjust="spacing" textLength="195.0002" x="107.5001" y="1394.9165">&#26367;&#25442;&#25968;&#25454;&#24211;&#19982;&#37197;&#32622;&#65292;&#25191;&#34892;&#37197;&#32622;&#27979;&#35797;</text><rect fill="#FFFFFF" height="38.824" rx="3" ry="3" style="stroke:#000000;stroke-width:1;" width="228.0002" x="91.0001" y="1428.6605"/><text fill="#000000" font-family="Noto Sans CJK SC" font-size="13" lengthAdjust="spacing" textLength="208.0002" x="101.0001" y="1453.7405">&#21551;&#21160;&#24182;&#26816;&#26597;&#33410;&#28857;&#20581;&#24247;&#19982;&#30495;&#23454;&#19994;&#21153;&#36830;&#25509;</text><path d="M328.9578,1483.0725 L328.9578,1502.8965 L308.9578,1506.8965 L328.9578,1510.8965 L328.9578,1530.7205 A0,0 0 0 0 328.9578,1530.7205 L584.0491,1530.7205 A0,0 0 0 0 584.0491,1530.7205 L584.0491,1493.0725 L574.0491,1483.0725 L328.9578,1483.0725 A0,0 0 0 0 328.9578,1483.0725" fill="#FFFFFF" style="stroke:#000000;stroke-width:1;"/><path d="M574.0491,1483.0725 L574.0491,1493.0725 L584.0491,1493.0725 L574.0491,1483.0725" fill="#FFFFFF" style="stroke:#000000;stroke-width:1;"/><text fill="#000000" font-family="Noto Sans CJK SC" font-size="13" lengthAdjust="spacing" textLength="234.0913" x="334.9578" y="1503.1525">restore_backup.py &#21482;&#20934;&#22791;&#38548;&#31163;&#24674;&#22797;&#26641;&#65307;</text><text fill="#000000" font-family="Noto Sans CJK SC" font-size="13" lengthAdjust="spacing" textLength="229.6582" x="337.1743" y="1521.9765">&#19981;&#25191;&#34892; SSH&#12289;Docker &#25110;&#32447;&#19978;&#27969;&#37327;&#20999;&#25442;&#12290;</text><rect fill="#FFFFFF" height="38.824" rx="3" ry="3" style="stroke:#000000;stroke-width:1;" width="207.9152" x="101.0426" y="1487.4845"/><text fill="#000000" font-family="Noto Sans CJK SC" font-size="13" lengthAdjust="spacing" textLength="187.9152" x="111.0426" y="1512.5645">&#39564;&#25910;&#36890;&#36807;&#21518;&#20999;&#25442; DNS &#25110;&#24674;&#22797;&#27969;&#37327;</text><ellipse cx="205.0002" cy="1573.7205" fill="none" rx="11" ry="11" style="stroke:#000000;stroke-width:1;"/><ellipse cx="205.0002" cy="1573.7205" fill="#FFFFFF" rx="6" ry="6" style="stroke:#000000;stroke-width:1;"/><line style="stroke:#334155;stroke-width:1.2;" x1="205.0002" x2="205.0002" y1="77.8561" y2="97.8561"/><polygon fill="#334155" points="201.0002,87.8561,205.0002,97.8561,209.0002,87.8561,205.0002,91.8561" style="stroke:#334155;stroke-width:1;"/><line style="stroke:#334155;stroke-width:1.2;" x1="205.0002" x2="205.0002" y1="180.6801" y2="208.0921"/><polygon fill="#334155" points="201.0002,198.0921,205.0002,208.0921,209.0002,198.0921,205.0002,202.0921" style="stroke:#334155;stroke-width:1;"/><line style="stroke:#334155;stroke-width:1.2;" x1="249.5002" x2="322.5003" y1="168.6801" y2="168.6801"/><polygon fill="#334155" points="318.5003,226.9161,322.5003,236.9161,326.5003,226.9161,322.5003,230.9161" style="stroke:#334155;stroke-width:1.2;"/><line style="stroke:#334155;stroke-width:1.2;" x1="322.5003" x2="322.5003" y1="168.6801" y2="297.7402"/><line style="stroke:#334155;stroke-width:1.2;" x1="322.5003" x2="217.0002" y1="297.7402" y2="297.7402"/><polygon fill="#334155" points="227.0002,293.7402,217.0002,297.7402,227.0002,301.7402,223.0002,297.7402" style="stroke:#334155;stroke-width:1;"/><line style="stroke:#334155;stroke-width:1.2;" x1="205.0002" x2="205.0002" y1="265.7402" y2="285.7402"/><polygon fill="#334155" points="201.0002,275.7402,205.0002,285.7402,209.0002,275.7402,205.0002,279.7402" style="stroke:#334155;stroke-width:1;"/><line style="stroke:#334155;stroke-width:1.2;" x1="205.0002" x2="205.0002" y1="136.6801" y2="156.6801"/><polygon fill="#334155" points="201.0002,146.6801,205.0002,156.6801,209.0002,146.6801,205.0002,150.6801" style="stroke:#334155;stroke-width:1;"/><line style="stroke:#334155;stroke-width:1.2;" x1="205.0002" x2="205.0002" y1="309.7402" y2="329.7402"/><polygon fill="#334155" points="201.0002,319.7402,205.0002,329.7402,209.0002,319.7402,205.0002,323.7402" style="stroke:#334155;stroke-width:1;"/><line style="stroke:#334155;stroke-width:1.2;" x1="205.0002" x2="205.0002" y1="497.6242" y2="523.7122"/><polygon fill="#334155" points="201.0002,513.7122,205.0002,523.7122,209.0002,513.7122,205.0002,517.7122" style="stroke:#334155;stroke-width:1;"/><line style="stroke:#334155;stroke-width:1.2;" x1="205.0002" x2="205.0002" y1="431.3882" y2="458.8002"/><polygon fill="#334155" points="201.0002,448.8002,205.0002,458.8002,209.0002,448.8002,205.0002,452.8002" style="stroke:#334155;stroke-width:1;"/><line style="stroke:#334155;stroke-width:1.2;" x1="262.5003" x2="296.5003" y1="419.3882" y2="419.3882"/><polygon fill="#334155" points="292.5003,493.7122,296.5003,503.7122,300.5003,493.7122,296.5003,497.7122" style="stroke:#334155;stroke-width:1.2;"/><line style="stroke:#334155;stroke-width:1.2;" x1="296.5003" x2="296.5003" y1="419.3882" y2="567.7122"/><line style="stroke:#334155;stroke-width:1.2;" x1="296.5003" x2="205.0002" y1="567.7122" y2="567.7122"/><line style="stroke:#334155;stroke-width:1.2;" x1="205.0002" x2="205.0002" y1="567.7122" y2="587.7122"/><polygon fill="#334155" points="201.0002,577.7122,205.0002,587.7122,209.0002,577.7122,205.0002,581.7122" style="stroke:#334155;stroke-width:1;"/><line style="stroke:#334155;stroke-width:1.2;" x1="205.0002" x2="205.0002" y1="387.3882" y2="407.3882"/><polygon fill="#334155" points="201.0002,397.3882,205.0002,407.3882,209.0002,397.3882,205.0002,401.3882" style="stroke:#334155;stroke-width:1;"/><line style="stroke:#334155;stroke-width:1.2;" x1="318.7803" x2="318.7803" y1="711.9482" y2="731.9482"/><polygon fill="#334155" points="314.7803,721.9482,318.7803,731.9482,322.7803,721.9482,318.7803,725.9482" style="stroke:#334155;stroke-width:1;"/><line style="stroke:#334155;stroke-width:1.2;" x1="101.2201" x2="91.2201" y1="651.1242" y2="651.1242"/><line style="stroke:#334155;stroke-width:1.2;" x1="91.2201" x2="91.2201" y1="651.1242" y2="673.1242"/><polygon fill="#334155" points="87.2201,663.1242,91.2201,673.1242,95.2201,663.1242,91.2201,667.1242" style="stroke:#334155;stroke-width:1;"/><line style="stroke:#334155;stroke-width:1.2;" x1="308.7803" x2="318.7803" y1="651.1242" y2="651.1242"/><line style="stroke:#334155;stroke-width:1.2;" x1="318.7803" x2="318.7803" y1="651.1242" y2="673.1242"/><polygon fill="#334155" points="314.7803,663.1242,318.7803,673.1242,322.7803,663.1242,318.7803,667.1242" style="stroke:#334155;stroke-width:1;"/><line style="stroke:#334155;stroke-width:1.2;" x1="91.2201" x2="91.2201" y1="711.9482" y2="758.9482"/><line style="stroke:#334155;stroke-width:1.2;" x1="91.2201" x2="205.0002" y1="758.9482" y2="758.9482"/><line style="stroke:#334155;stroke-width:1.2;" x1="205.0002" x2="205.0002" y1="758.9482" y2="773.9482"/><polygon fill="#334155" points="201.0002,763.9482,205.0002,773.9482,209.0002,763.9482,205.0002,767.9482" style="stroke:#334155;stroke-width:1;"/><line style="stroke:#334155;stroke-width:1.2;" x1="205.0002" x2="205.0002" y1="611.7122" y2="639.1242"/><polygon fill="#334155" points="201.0002,629.1242,205.0002,639.1242,209.0002,629.1242,205.0002,633.1242" style="stroke:#334155;stroke-width:1;"/><line style="stroke:#334155;stroke-width:1.2;" x1="301.5003" x2="407.2803" y1="599.7122" y2="599.7122"/><polygon fill="#334155" points="403.2803,697.0362,407.2803,707.0362,411.2803,697.0362,407.2803,701.0362" style="stroke:#334155;stroke-width:1.2;"/><line style="stroke:#334155;stroke-width:1.2;" x1="407.2803" x2="407.2803" y1="599.7122" y2="785.9482"/><line style="stroke:#334155;stroke-width:1.2;" x1="407.2803" x2="217.0002" y1="785.9482" y2="785.9482"/><polygon fill="#334155" points="227.0002,781.9482,217.0002,785.9482,227.0002,789.9482,223.0002,785.9482" style="stroke:#334155;stroke-width:1;"/><line style="stroke:#334155;stroke-width:1.2;" x1="205.0002" x2="205.0002" y1="797.9482" y2="817.9482"/><polygon fill="#334155" points="201.0002,807.9482,205.0002,817.9482,209.0002,807.9482,205.0002,811.9482" style="stroke:#334155;stroke-width:1;"/><line style="stroke:#334155;stroke-width:1.2;" x1="205.0002" x2="205.0002" y1="875.5963" y2="895.5963"/><polygon fill="#334155" points="201.0002,885.5963,205.0002,895.5963,209.0002,885.5963,205.0002,889.5963" style="stroke:#334155;stroke-width:1;"/><line style="stroke:#334155;stroke-width:1.2;" x1="205.0002" x2="205.0002" y1="953.2443" y2="973.2443"/><polygon fill="#334155" points="201.0002,963.2443,205.0002,973.2443,209.0002,963.2443,205.0002,967.2443" style="stroke:#334155;stroke-width:1;"/><line style="stroke:#334155;stroke-width:1.2;" x1="205.0002" x2="205.0002" y1="1012.0683" y2="1032.0683"/><polygon fill="#334155" points="201.0002,1022.0683,205.0002,1032.0683,209.0002,1022.0683,205.0002,1026.0683" style="stroke:#334155;stroke-width:1;"/><line style="stroke:#334155;stroke-width:1.2;" x1="316.0003" x2="316.0003" y1="1182.5404" y2="1202.5404"/><polygon fill="#334155" points="312.0003,1192.5404,316.0003,1202.5404,320.0003,1192.5404,316.0003,1196.5404" style="stroke:#334155;stroke-width:1;"/><line style="stroke:#334155;stroke-width:1.2;" x1="141.0001" x2="94.0001" y1="1102.8923" y2="1102.8923"/><line style="stroke:#334155;stroke-width:1.2;" x1="94.0001" x2="94.0001" y1="1102.8923" y2="1124.8923"/><polygon fill="#334155" points="90.0001,1114.8923,94.0001,1124.8923,98.0001,1114.8923,94.0001,1118.8923" style="stroke:#334155;stroke-width:1;"/><line style="stroke:#334155;stroke-width:1.2;" x1="269.0003" x2="316.0003" y1="1102.8923" y2="1102.8923"/><line style="stroke:#334155;stroke-width:1.2;" x1="316.0003" x2="316.0003" y1="1102.8923" y2="1124.8923"/><polygon fill="#334155" points="312.0003,1114.8923,316.0003,1124.8923,320.0003,1114.8923,316.0003,1118.8923" style="stroke:#334155;stroke-width:1;"/><line style="stroke:#334155;stroke-width:1.2;" x1="94.0001" x2="94.0001" y1="1163.7164" y2="1229.5404"/><line style="stroke:#334155;stroke-width:1.2;" x1="94.0001" x2="205.0002" y1="1229.5404" y2="1229.5404"/><line style="stroke:#334155;stroke-width:1.2;" x1="205.0002" x2="205.0002" y1="1229.5404" y2="1273.3644"/><polygon fill="#334155" points="201.0002,1263.3644,205.0002,1273.3644,209.0002,1263.3644,205.0002,1267.3644" style="stroke:#334155;stroke-width:1;"/><line style="stroke:#334155;stroke-width:1.2;" x1="205.0002" x2="205.0002" y1="1070.8923" y2="1090.8923"/><polygon fill="#334155" points="201.0002,1080.8923,205.0002,1090.8923,209.0002,1080.8923,205.0002,1084.8923" style="stroke:#334155;stroke-width:1;"/><line style="stroke:#334155;stroke-width:1.2;" x1="205.0002" x2="205.0002" y1="1331.0124" y2="1351.0124"/><polygon fill="#334155" points="201.0002,1341.0124,205.0002,1351.0124,209.0002,1341.0124,205.0002,1345.0124" style="stroke:#334155;stroke-width:1;"/><line style="stroke:#334155;stroke-width:1.2;" x1="205.0002" x2="205.0002" y1="1408.6605" y2="1428.6605"/><polygon fill="#334155" points="201.0002,1418.6605,205.0002,1428.6605,209.0002,1418.6605,205.0002,1422.6605" style="stroke:#334155;stroke-width:1;"/><line style="stroke:#334155;stroke-width:1.2;" x1="205.0002" x2="205.0002" y1="1467.4845" y2="1487.4845"/><polygon fill="#334155" points="201.0002,1477.4845,205.0002,1487.4845,209.0002,1477.4845,205.0002,1481.4845" style="stroke:#334155;stroke-width:1;"/><line style="stroke:#334155;stroke-width:1.2;" x1="205.0002" x2="205.0002" y1="1526.3085" y2="1562.7205"/><polygon fill="#334155" points="201.0002,1552.7205,205.0002,1562.7205,209.0002,1552.7205,205.0002,1556.7205" style="stroke:#334155;stroke-width:1;"/><!--SRC=[VLHDJzjO5DtxLxpPjOjaKMcwI5OZTT7LB2PRf8f9JPjfiAF4QDHM8yL0FZ3veeG0YSaNIQ5VIOfeI6D2VanzttDM_8Mvxpqp0cOqEzlltdFElUSy_nJJel6rvof96Q_ZQZ2sjXfNZ9WHLmaC2dJld9bNqCj18SFgcujwbRrtgDc5NX5oMVokA2bZEMaeeKLwYsv_eFPdi4S4FmLVl24qNoE_FIBkPDkRpR2T15Kj6bPYA-G1M6qOPc7sZdQEhozR3udnKjN80temVAWG4dAT4fJttVaHjNgqbdETCMAnqX2w6r0-MEJAtj21SWqXMDjSqXOV2zxGXEzZx-IOm-P7xkISxezbQrXHjUUn5IL4snsibAJUnH2kDd-aJLa3lHCObTr9YKIU_X9uzFFZ9OqUfschxqvwy7MTh2vhiHKrPVZg1OI4MwJhtZntVmOrdbAnhl9UZEFDgz1eGk-hTzw_lYouaoAKTs2o8JT9spjXh4ePUi9NAZZccOMTfdiZMXp0T1UbUTOwM_zEZogqTYYz-LzM3a8Fhk2oxCxch7fA0e7bU5p_Cu26wwk9k6ge_zuy5piOmMnliN4A-QmKoAmnJPjSunq2h8Ni8MJwi5Mas- -OStGx6M5H8OR2FZ7MZGrYiTxLBkIch350iYKDBiwelRKuQh8F_ZS-l52FkbVqP5GDAo6mJ_6GjdEoXEwRa6-0C_NTljacmWbT_omFRLvaYcmsu0-7c-ZtlNKYDgksQBv2acYodbG3IJMX9utW7obTuyJ2hjln5wO9dyIqYETRcg-0rVgFIFiP4DNCsQLDc_S86sdwv6R5TtD39nbMoVhJyRbeuvpMHd9PSWSoL7YEuDIfywF6d1QxDz6_awi4NjMO4TCruawdSD57azdi37LWZcbrJDuAKc6FFwNLXnqBUSKRYQZHf6hW4jbiXpast-R16JC_GVSGGTYWWsgzwIVNcN7Y49Ws_TALZb6x25Q7Jo3KtOgrT0Ql1TqwyJe5-Kg_RNl3FObI6O9rYfVRpusm3Sm-J2yugTs2GTETr17TcpTfgI-Qv43oRaAb1FaSif8dlqRuJycVxPk9FvAmyfUYwOPAah4NBmrizGFmxFVbwAkrH33nca3vexJjdl_NbmsinyiiXPD8v2bkv8aUVQKcEGsRpjs99McaW1_fTUu4uOGAz-Ll]--></g></svg>