<svg xmlns="http://www.w3.org/2000/svg" xmlns:xlink="http://www.w3.org/1999/xlink" contentStyleType="text/css" data-diagram-type="ACTIVITY" height="422px" preserveAspectRatio="none" style="width:846px;height:422px;background:#FFFFFF;" version="1.1" viewBox="0 0 846 422" width="846px" zoomAndPan="magnify"><title>DNS &#33258;&#21160;&#20999;&#25442;&#19982;&#22238;&#20999;&#21028;&#23450;</title><defs/><g><g class="title" data-source-line="2"><text fill="#000000" font-family="Noto Sans CJK SC" font-size="22" font-weight="bold" lengthAdjust="spacing" textLength="248.9089" x="297.5186" y="40.5201">DNS &#33258;&#21160;&#20999;&#25442;&#19982;&#22238;&#20999;&#21028;&#23450;</text></g><ellipse cx="421.9813" cy="67.8561" fill="#FFFFFF" rx="10" ry="10" style="stroke:#000000;stroke-width:1;"/><rect fill="#FFFFFF" height="57.648" rx="3" ry="3" style="stroke:#000000;stroke-width:1;" width="189.0002" x="327.4812" y="97.8561"/><text fill="#000000" font-family="Noto Sans CJK SC" font-size="13" lengthAdjust="spacing" textLength="78.0001" x="382.9813" y="122.9361">&#35760;&#24405;&#25506;&#27979;&#32467;&#26524;</text><text fill="#000000" font-family="Noto Sans CJK SC" font-size="13" lengthAdjust="spacing" textLength="169.0002" x="337.4812" y="141.7601">&#26356;&#26032;&#36830;&#32493;&#22833;&#36133;&#19982;&#36830;&#32493;&#25104;&#21151;&#35745;&#25968;</text><polygon fill="#FFFFFF" points="348.1413,175.5041,495.8214,175.5041,507.8214,187.5041,495.8214,199.5041,348.1413,199.5041,336.1413,187.5041,348.1413,175.5041" style="stroke:#000000;stroke-width:1;"/><text fill="#000000" font-family="Noto Sans CJK SC" font-size="13" lengthAdjust="spacing" textLength="147.6801" x="348.1413" y="193.1721">&#24403;&#21069; DNS &#25351;&#21521; primary&#65311;</text><text fill="#000000" font-family="Noto Sans CJK SC" font-size="13" lengthAdjust="spacing" textLength="13" x="323.1412" y="183.7601">&#26159;</text><text fill="#000000" font-family="Noto Sans CJK SC" font-size="13" lengthAdjust="spacing" textLength="45.11" x="507.8214" y="183.7601">backup</text><polygon fill="#FFFFFF" points="78.482,209.5041,325.6123,209.5041,337.6123,228.3282,325.6123,247.1522,78.482,247.1522,66.482,228.3282,78.482,209.5041" style="stroke:#000000;stroke-width:1;"/><text fill="#000000" font-family="Noto Sans CJK SC" font-size="13" lengthAdjust="spacing" textLength="78.0001" x="163.0471" y="224.5842">&#36830;&#32493;&#22833;&#36133;&#36798;&#21040;</text><text fill="#000000" font-family="Noto Sans CJK SC" font-size="13" lengthAdjust="spacing" textLength="247.1302" x="78.482" y="243.4082">DNS_FAILOVER_FAILURE_THRESHOLD&#65311;</text><text fill="#000000" font-family="Noto Sans CJK SC" font-size="13" lengthAdjust="spacing" textLength="13" x="53.482" y="224.5842">&#26159;</text><text fill="#000000" font-family="Noto Sans CJK SC" font-size="13" lengthAdjust="spacing" textLength="13" x="337.6123" y="224.5842">&#21542;</text><rect fill="#FFFFFF" height="57.648" rx="3" ry="3" style="stroke:#000000;stroke-width:1;" width="100.9641" x="6" y="257.1522"/><text fill="#000000" font-family="Noto Sans CJK SC" font-size="13" lengthAdjust="spacing" textLength="74.0221" x="19.471" y="282.2322">&#20999;&#21040; backup</text><text fill="#000000" font-family="Noto Sans CJK SC" font-size="13" lengthAdjust="spacing" textLength="80.9641" x="16" y="301.0562">auto_failover</text><rect fill="#FFFFFF" height="38.824" rx="3" ry="3" style="stroke:#000000;stroke-width:1;" width="96.7651" x="299.2297" y="257.1522"/><text fill="#000000" font-family="Noto Sans CJK SC" font-size="13" lengthAdjust="spacing" textLength="76.7651" x="309.2297" y="282.2322">&#20445;&#25345; primary</text><polygon fill="#FFFFFF" points="202.0472,320.8002,214.0472,332.8002,202.0472,344.8002,190.0472,332.8002,202.0472,320.8002" style="stroke:#000000;stroke-width:1;"/><polygon fill="#FFFFFF" points="511.8959,209.5041,771.9351,209.5041,783.9351,228.3282,771.9351,247.1522,511.8959,247.1522,499.8959,228.3282,511.8959,209.5041" style="stroke:#000000;stroke-width:1;"/><text fill="#000000" font-family="Noto Sans CJK SC" font-size="13" lengthAdjust="spacing" textLength="78.0001" x="602.9154" y="224.5842">&#36830;&#32493;&#25104;&#21151;&#36798;&#21040;</text><text fill="#000000" font-family="Noto Sans CJK SC" font-size="13" lengthAdjust="spacing" textLength="260.0392" x="511.8959" y="243.4082">DNS_FAILOVER_RECOVERY_THRESHOLD&#65311;</text><text fill="#000000" font-family="Noto Sans CJK SC" font-size="13" lengthAdjust="spacing" textLength="13" x="486.8959" y="224.5842">&#26159;</text><text fill="#000000" font-family="Noto Sans CJK SC" font-size="13" lengthAdjust="spacing" textLength="13" x="783.9351" y="224.5842">&#21542;</text><rect fill="#FFFFFF" height="57.648" rx="3" ry="3" style="stroke:#000000;stroke-width:1;" width="107.8021" x="435.9948" y="257.1522"/><text fill="#000000" font-family="Noto Sans CJK SC" font-size="13" lengthAdjust="spacing" textLength="76.7651" x="451.5133" y="282.2322">&#20999;&#22238; primary</text><text fill="#000000" font-family="Noto Sans CJK SC" font-size="13" lengthAdjust="spacing" textLength="87.8021" x="445.9948" y="301.0562">auto_recovery</text><rect fill="#FFFFFF" height="38.824" rx="3" ry="3" style="stroke:#000000;stroke-width:1;" width="94.0221" x="746.9241" y="257.1522"/><text fill="#000000" font-family="Noto Sans CJK SC" font-size="13" lengthAdjust="spacing" textLength="74.0221" x="756.9241" y="282.2322">&#20445;&#25345; backup</text><polygon fill="#FFFFFF" points="641.9155,320.8002,653.9155,332.8002,641.9155,344.8002,629.9155,332.8002,641.9155,320.8002" style="stroke:#000000;stroke-width:1;"/><polygon fill="#FFFFFF" points="421.9813,350.8002,433.9813,362.8002,421.9813,374.8002,409.9813,362.8002,421.9813,350.8002" style="stroke:#000000;stroke-width:1;"/><ellipse cx="421.9813" cy="405.8002" fill="none" rx="11" ry="11" style="stroke:#000000;stroke-width:1;"/><ellipse cx="421.9813" cy="405.8002" fill="#FFFFFF" rx="6" ry="6" style="stroke:#000000;stroke-width:1;"/><line style="stroke:#334155;stroke-width:1.2;" x1="421.9813" x2="421.9813" y1="77.8561" y2="97.8561"/><polygon fill="#334155" points="417.9813,87.8561,421.9813,97.8561,425.9813,87.8561,421.9813,91.8561" style="stroke:#334155;stroke-width:1;"/><line style="stroke:#334155;stroke-width:1.2;" x1="66.482" x2="56.482" y1="228.3282" y2="228.3282"/><line style="stroke:#334155;stroke-width:1.2;" x1="56.482" x2="56.482" y1="228.3282" y2="257.1522"/><polygon fill="#334155" points="52.482,247.1522,56.482,257.1522,60.482,247.1522,56.482,251.1522" style="stroke:#334155;stroke-width:1;"/><line style="stroke:#334155;stroke-width:1.2;" x1="337.6123" x2="347.6123" y1="228.3282" y2="228.3282"/><line style="stroke:#334155;stroke-width:1.2;" x1="347.6123" x2="347.6123" y1="228.3282" y2="257.1522"/><polygon fill="#334155" points="343.6123,247.1522,347.6123,257.1522,351.6123,247.1522,347.6123,251.1522" style="stroke:#334155;stroke-width:1;"/><line style="stroke:#334155;stroke-width:1.2;" x1="56.482" x2="56.482" y1="314.8002" y2="332.8002"/><line style="stroke:#334155;stroke-width:1.2;" x1="56.482" x2="190.0472" y1="332.8002" y2="332.8002"/><polygon fill="#334155" points="180.0472,328.8002,190.0472,332.8002,180.0472,336.8002,184.0472,332.8002" style="stroke:#334155;stroke-width:1;"/><line style="stroke:#334155;stroke-width:1.2;" x1="347.6123" x2="347.6123" y1="295.9762" y2="332.8002"/><line style="stroke:#334155;stroke-width:1.2;" x1="347.6123" x2="214.0472" y1="332.8002" y2="332.8002"/><polygon fill="#334155" points="224.0472,328.8002,214.0472,332.8002,224.0472,336.8002,220.0472,332.8002" style="stroke:#334155;stroke-width:1;"/><line style="stroke:#334155;stroke-width:1.2;" x1="499.8959" x2="489.8959" y1="228.3282" y2="228.3282"/><line style="stroke:#334155;stroke-width:1.2;" x1="489.8959" x2="489.8959" y1="228.3282" y2="257.1522"/><polygon fill="#334155" points="485.8959,247.1522,489.8959,257.1522,493.8959,247.1522,489.8959,251.1522" style="stroke:#334155;stroke-width:1;"/><line style="stroke:#334155;stroke-width:1.2;" x1="783.9351" x2="793.9351" y1="228.3282" y2="228.3282"/><line style="stroke:#334155;stroke-width:1.2;" x1="793.9351" x2="793.9351" y1="228.3282" y2="257.1522"/><polygon fill="#334155" points="789.9351,247.1522,793.9351,257.1522,797.9351,247.1522,793.9351,251.1522" style="stroke:#334155;stroke-width:1;"/><line style="stroke:#334155;stroke-width:1.2;" x1="489.8959" x2="489.8959" y1="314.8002" y2="332.8002"/><line style="stroke:#334155;stroke-width:1.2;" x1="489.8959" x2="629.9155" y1="332.8002" y2="332.8002"/><polygon fill="#334155" points="619.9155,328.8002,629.9155,332.8002,619.9155,336.8002,623.9155,332.8002" style="stroke:#334155;stroke-width:1;"/><line style="stroke:#334155;stroke-width:1.2;" x1="793.9351" x2="793.9351" y1="295.9762" y2="332.8002"/><line style="stroke:#334155;stroke-width:1.2;" x1="793.9351" x2="653.9155" y1="332.8002" y2="332.8002"/><polygon fill="#334155" points="663.9155,328.8002,653.9155,332.8002,663.9155,336.8002,659.9155,332.8002" style="stroke:#334155;stroke-width:1;"/><line style="stroke:#334155;stroke-width:1.2;" x1="336.1413" x2="202.0472" y1="187.5041" y2="187.5041"/><line style="stroke:#334155;stroke-width:1.2;" x1="202.0472" x2="202.0472" y1="187.5041" y2="209.5041"/><polygon fill="#334155" points="198.0472,199.5041,202.0472,209.5041,206.0472,199.5041,202.0472,203.5041" style="stroke:#334155;stroke-width:1;"/><line style="stroke:#334155;stroke-width:1.2;" x1="507.8214" x2="641.9155" y1="187.5041" y2="187.5041"/><line style="stroke:#334155;stroke-width:1.2;" x1="641.9155" x2="641.9155" y1="187.5041" y2="209.5041"/><polygon fill="#334155" points="637.9155,199.5041,641.9155,209.5041,645.9155,199.5041,641.9155,203.5041" style="stroke:#334155;stroke-width:1;"/><line style="stroke:#334155;stroke-width:1.2;" x1="202.0472" x2="202.0472" y1="344.8002" y2="362.8002"/><line style="stroke:#334155;stroke-width:1.2;" x1="202.0472" x2="409.9813" y1="362.8002" y2="362.8002"/><polygon fill="#334155" points="399.9813,358.8002,409.9813,362.8002,399.9813,366.8002,403.9813,362.8002" style="stroke:#334155;stroke-width:1;"/><line style="stroke:#334155;stroke-width:1.2;" x1="641.9155" x2="641.9155" y1="344.8002" y2="362.8002"/><line style="stroke:#334155;stroke-width:1.2;" x1="641.9155" x2="433.9813" y1="362.8002" y2="362.8002"/><polygon fill="#334155" points="443.9813,358.8002,433.9813,362.8002,443.9813,366.8002,439.9813,362.8002" style="stroke:#334155;stroke-width:1;"/><line style="stroke:#334155;stroke-width:1.2;" x1="421.9813" x2="421.9813" y1="155.5041" y2="175.5041"/><polygon fill="#334155" points="417.9813,165.5041,421.9813,175.5041,425.9813,165.5041,421.9813,169.5041" style="stroke:#334155;stroke-width:1;"/><line style="stroke:#334155;stroke-width:1.2;" x1="421.9813" x2="421.9813" y1="374.8002" y2="394.8002"/><polygon fill="#334155" points="417.9813,384.8002,421.9813,394.8002,425.9813,384.8002,421.9813,388.8002" style="stroke:#334155;stroke-width:1;"/><!--SRC=[KypCIyufJKbLA2wfp4dLoopDpU4goIp9ILLmyGjMUD6-wcdNYgSTxSzw5ptPqVTqzZmW-sd7agVhPd4LboGMbN1PlLYtuUdUgS_w5ZtRslryz-Hdy-R4v3sRlUNPj0qlzizxldljqoKRNsnP2jGCuJxhcF2qQ_wBTGkVJTrWpPMPfg3nTE_afvszOEkUzRG_dJ1HeQ0eCpUngFBzdlcQ2YKPgNaA6izchDVaKb00AKSszSM-VKyxDiJa0VN6kpbw-lY7kGQ16Q51hl4X7a6kmHx-FYwOvYWeM87ziK4XAJ4vkxGW9Y-nj2G_FYqnCoU_BBN86gWaDQSu5UYs2SkWwf_id_kifn7cDB2Al9JCD2w8EeWng4w4-XIR4uDSdK5q915kd3qFPYVKaKMfoI0tLk9n9CGrI6u4ayKb-GLS0000]--></g></svg>