<svg xmlns="http://www.w3.org/2000/svg" xmlns:xlink="http://www.w3.org/1999/xlink" contentStyleType="text/css" data-diagram-type="ACTIVITY" height="692px" preserveAspectRatio="none" style="width:1123px;height:692px;background:#FFFFFF;" version="1.1" viewBox="0 0 1123 692" width="1123px" zoomAndPan="magnify"><title>DNS &#33258;&#21160;&#20999;&#25442;&#19982;&#22238;&#20999;&#21028;&#23450;</title><defs/><g><g class="title" data-source-line="2"><text fill="#174B50" font-family="Noto Sans CJK SC" font-size="18" font-weight="bold" lengthAdjust="spacing" textLength="203.6508" x="458.4444" y="43.8799">DNS &#33258;&#21160;&#20999;&#25442;&#19982;&#22238;&#20999;&#21028;&#23450;</text></g><ellipse cx="577.7052" cy="78.0638" fill="#FFFFFF" rx="10" ry="10" style="stroke:#000000;stroke-width:1;"/><rect fill="#F3F8F6" height="76.5438" rx="4" ry="4" style="stroke:#52777A;stroke-width:1;" width="217.9992" x="468.7056" y="108.0638"/><text fill="#24383B" font-family="Noto Sans CJK SC" font-size="14" lengthAdjust="spacing" textLength="83.9996" x="535.7054" y="142.3038">&#35760;&#24405;&#25506;&#27979;&#32467;&#26524;</text><text fill="#24383B" font-family="Noto Sans CJK SC" font-size="14" lengthAdjust="spacing" textLength="181.9992" x="486.7056" y="162.5757">&#26356;&#26032;&#36830;&#32493;&#22833;&#36133;&#19982;&#36830;&#32493;&#25104;&#21151;&#35745;&#25968;</text><polygon fill="#F3F8F6" points="492.7056,207.2756,662.7049,207.2756,674.7049,225.4116,662.7049,243.5475,492.7056,243.5475,480.7056,225.4116,492.7056,207.2756" style="stroke:#52777A;stroke-width:1;"/><text fill="#24383B" font-family="Noto Sans CJK SC" font-size="14" lengthAdjust="spacing" textLength="153.9993" x="500.7056" y="231.5155">&#24403;&#21069;&#39640;&#23792;&#31383;&#21475;&#37197;&#32622;&#26377;&#25928;&#65311;</text><text fill="#36575B" font-family="Noto Sans CJK SC" font-size="14" lengthAdjust="spacing" textLength="13.9999" x="458.7056" y="213.3796">&#26159;</text><text fill="#36575B" font-family="Noto Sans CJK SC" font-size="14" lengthAdjust="spacing" textLength="13.9999" x="682.7049" y="213.3796">&#21542;</text><rect fill="#F3F8F6" height="76.5438" rx="4" ry="4" style="stroke:#52777A;stroke-width:1;" width="245.9571" x="330.6381" y="253.5475"/><text fill="#24383B" font-family="Noto Sans CJK SC" font-size="14" lengthAdjust="spacing" textLength="209.9571" x="348.6381" y="287.7874">&#25353;&#26102;&#21306;&#31383;&#21475;&#30830;&#23450; preferred_target</text><text fill="#24383B" font-family="Noto Sans CJK SC" font-size="14" lengthAdjust="spacing" textLength="204.3851" x="351.4241" y="308.0594">&#31383;&#21475;&#20869; backup&#65292;&#31383;&#21475;&#22806; primary</text><rect fill="#F3F8F6" height="56.2719" rx="4" ry="4" style="stroke:#52777A;stroke-width:1;" width="210.3973" x="596.5952" y="253.5475"/><text fill="#24383B" font-family="Noto Sans CJK SC" font-size="14" lengthAdjust="spacing" textLength="174.3973" x="614.5952" y="287.7874">preferred_target = primary</text><polygon fill="#F3F8F6" points="577.7052,340.0913,589.7052,352.0913,577.7052,364.0913,565.7052,352.0913,577.7052,340.0913" style="stroke:#52777A;stroke-width:1;"/><polygon fill="#F3F8F6" points="454.5417,386.7593,700.8688,386.7593,712.8688,404.8952,700.8688,423.0312,454.5417,423.0312,442.5417,404.8952,454.5417,386.7593" style="stroke:#52777A;stroke-width:1;"/><text fill="#24383B" font-family="Noto Sans CJK SC" font-size="14" lengthAdjust="spacing" textLength="230.327" x="462.5417" y="410.9992">&#24403;&#21069; DNS &#24050;&#25351;&#21521; preferred_target&#65311;</text><text fill="#36575B" font-family="Noto Sans CJK SC" font-size="14" lengthAdjust="spacing" textLength="13.9999" x="420.5418" y="392.8632">&#26159;</text><text fill="#36575B" font-family="Noto Sans CJK SC" font-size="14" lengthAdjust="spacing" textLength="59.7798" x="720.8688" y="392.8632">alternate</text><polygon fill="#F3F8F6" points="144.2796,433.0312,426.4186,433.0312,438.4186,461.3031,426.4186,489.575,144.2796,489.575,132.2796,461.3031,144.2796,433.0312" style="stroke:#52777A;stroke-width:1;"/><text fill="#24383B" font-family="Noto Sans CJK SC" font-size="14" lengthAdjust="spacing" textLength="83.9996" x="243.3493" y="457.2711">&#36830;&#32493;&#22833;&#36133;&#36798;&#21040;</text><text fill="#24383B" font-family="Noto Sans CJK SC" font-size="14" lengthAdjust="spacing" textLength="266.139" x="152.2796" y="477.543">DNS_FAILOVER_FAILURE_THRESHOLD&#65311;</text><text fill="#36575B" font-family="Noto Sans CJK SC" font-size="14" lengthAdjust="spacing" textLength="13.9999" x="110.2797" y="449.2711">&#26159;</text><text fill="#36575B" font-family="Noto Sans CJK SC" font-size="14" lengthAdjust="spacing" textLength="13.9999" x="446.4186" y="449.2711">&#21542;</text><rect fill="#F3F8F6" height="76.5438" rx="4" ry="4" style="stroke:#52777A;stroke-width:1;" width="232.5592" x="6" y="499.575"/><text fill="#24383B" font-family="Noto Sans CJK SC" font-size="14" lengthAdjust="spacing" textLength="97.9996" x="73.2798" y="533.8149">&#20999;&#21040;&#21478;&#19968;&#20010;&#30446;&#26631;</text><text fill="#24383B" font-family="Noto Sans CJK SC" font-size="14" lengthAdjust="spacing" textLength="196.5592" x="24" y="554.0868">auto_failover &#25110; peak_failover</text><rect fill="#F3F8F6" height="56.2719" rx="4" ry="4" style="stroke:#52777A;stroke-width:1;" width="175.9574" x="360.4399" y="499.575"/><text fill="#24383B" font-family="Noto Sans CJK SC" font-size="14" lengthAdjust="spacing" textLength="139.9574" x="378.4399" y="533.8149">&#20445;&#25345; preferred_target</text><polygon fill="#F3F8F6" points="285.3491,586.1188,297.3491,598.1188,285.3491,610.1188,273.3491,598.1188,285.3491,586.1188" style="stroke:#52777A;stroke-width:1;"/><polygon fill="#F3F8F6" points="722.0409,433.0312,1018.0818,433.0312,1030.0818,461.3031,1018.0818,489.575,722.0409,489.575,710.0409,461.3031,722.0409,433.0312" style="stroke:#52777A;stroke-width:1;"/><text fill="#24383B" font-family="Noto Sans CJK SC" font-size="14" lengthAdjust="spacing" textLength="153.9993" x="793.0617" y="457.2711">&#25506;&#27979;&#25104;&#21151;&#19988;&#36830;&#32493;&#25104;&#21151;&#36798;&#21040;</text><text fill="#24383B" font-family="Noto Sans CJK SC" font-size="14" lengthAdjust="spacing" textLength="280.0409" x="730.0409" y="477.543">DNS_FAILOVER_RECOVERY_THRESHOLD&#65311;</text><text fill="#36575B" font-family="Noto Sans CJK SC" font-size="14" lengthAdjust="spacing" textLength="13.9999" x="688.041" y="449.2711">&#26159;</text><text fill="#36575B" font-family="Noto Sans CJK SC" font-size="14" lengthAdjust="spacing" textLength="13.9999" x="1038.0818" y="449.2711">&#21542;</text><rect fill="#F3F8F6" height="76.5438" rx="4" ry="4" style="stroke:#52777A;stroke-width:1;" width="247.2872" x="576.3973" y="499.575"/><text fill="#24383B" font-family="Noto Sans CJK SC" font-size="14" lengthAdjust="spacing" textLength="139.9574" x="630.0622" y="533.8149">&#20999;&#22238; preferred_target</text><text fill="#24383B" font-family="Noto Sans CJK SC" font-size="14" lengthAdjust="spacing" textLength="211.2872" x="594.3973" y="554.0868">auto_recovery &#25110; peak_recovery</text><rect fill="#F3F8F6" height="56.2719" rx="4" ry="4" style="stroke:#52777A;stroke-width:1;" width="154.9155" x="962.6241" y="499.575"/><text fill="#24383B" font-family="Noto Sans CJK SC" font-size="14" lengthAdjust="spacing" textLength="118.9155" x="980.6241" y="533.8149">&#20445;&#25345;&#24403;&#21069; alternate</text><polygon fill="#F3F8F6" points="870.0614,586.1188,882.0614,598.1188,870.0614,610.1188,858.0614,598.1188,870.0614,586.1188" style="stroke:#52777A;stroke-width:1;"/><polygon fill="#F3F8F6" points="577.7052,620.1188,589.7052,632.1188,577.7052,644.1188,565.7052,632.1188,577.7052,620.1188" style="stroke:#52777A;stroke-width:1;"/><ellipse cx="577.7052" cy="675.1188" fill="none" rx="11" ry="11" style="stroke:#000000;stroke-width:1;"/><ellipse cx="577.7052" cy="675.1188" fill="#FFFFFF" rx="6" ry="6" style="stroke:#000000;stroke-width:1;"/><line style="stroke:#426C70;stroke-width:1.4;" x1="577.7052" x2="577.7052" y1="88.0638" y2="108.0638"/><polygon fill="#426C70" points="573.7052,98.0638,577.7052,108.0638,581.7052,98.0638,577.7052,102.0638" style="stroke:#426C70;stroke-width:1;"/><line style="stroke:#426C70;stroke-width:1.4;" x1="480.7056" x2="453.6166" y1="225.4116" y2="225.4116"/><line style="stroke:#426C70;stroke-width:1.4;" x1="453.6166" x2="453.6166" y1="225.4116" y2="253.5475"/><polygon fill="#426C70" points="449.6166,243.5475,453.6166,253.5475,457.6166,243.5475,453.6166,247.5475" style="stroke:#426C70;stroke-width:1;"/><line style="stroke:#426C70;stroke-width:1.4;" x1="674.7049" x2="701.7938" y1="225.4116" y2="225.4116"/><line style="stroke:#426C70;stroke-width:1.4;" x1="701.7938" x2="701.7938" y1="225.4116" y2="253.5475"/><polygon fill="#426C70" points="697.7938,243.5475,701.7938,253.5475,705.7938,243.5475,701.7938,247.5475" style="stroke:#426C70;stroke-width:1;"/><line style="stroke:#426C70;stroke-width:1.4;" x1="453.6166" x2="453.6166" y1="330.0913" y2="352.0913"/><line style="stroke:#426C70;stroke-width:1.4;" x1="453.6166" x2="565.7052" y1="352.0913" y2="352.0913"/><polygon fill="#426C70" points="555.7052,348.0913,565.7052,352.0913,555.7052,356.0913,559.7052,352.0913" style="stroke:#426C70;stroke-width:1;"/><line style="stroke:#426C70;stroke-width:1.4;" x1="701.7938" x2="701.7938" y1="309.8194" y2="352.0913"/><line style="stroke:#426C70;stroke-width:1.4;" x1="701.7938" x2="589.7052" y1="352.0913" y2="352.0913"/><polygon fill="#426C70" points="599.7052,348.0913,589.7052,352.0913,599.7052,356.0913,595.7052,352.0913" style="stroke:#426C70;stroke-width:1;"/><line style="stroke:#426C70;stroke-width:1.4;" x1="577.7052" x2="577.7052" y1="184.6077" y2="207.2756"/><polygon fill="#426C70" points="573.7052,197.2756,577.7052,207.2756,581.7052,197.2756,577.7052,201.2756" style="stroke:#426C70;stroke-width:1;"/><line style="stroke:#426C70;stroke-width:1.4;" x1="132.2796" x2="122.2796" y1="461.3031" y2="461.3031"/><line style="stroke:#426C70;stroke-width:1.4;" x1="122.2796" x2="122.2796" y1="461.3031" y2="499.575"/><polygon fill="#426C70" points="118.2796,489.575,122.2796,499.575,126.2796,489.575,122.2796,493.575" style="stroke:#426C70;stroke-width:1;"/><line style="stroke:#426C70;stroke-width:1.4;" x1="438.4186" x2="448.4186" y1="461.3031" y2="461.3031"/><line style="stroke:#426C70;stroke-width:1.4;" x1="448.4186" x2="448.4186" y1="461.3031" y2="499.575"/><polygon fill="#426C70" points="444.4186,489.575,448.4186,499.575,452.4186,489.575,448.4186,493.575" style="stroke:#426C70;stroke-width:1;"/><line style="stroke:#426C70;stroke-width:1.4;" x1="122.2796" x2="122.2796" y1="576.1188" y2="598.1188"/><line style="stroke:#426C70;stroke-width:1.4;" x1="122.2796" x2="273.3491" y1="598.1188" y2="598.1188"/><polygon fill="#426C70" points="263.3491,594.1188,273.3491,598.1188,263.3491,602.1188,267.3491,598.1188" style="stroke:#426C70;stroke-width:1;"/><line style="stroke:#426C70;stroke-width:1.4;" x1="448.4186" x2="448.4186" y1="555.8469" y2="598.1188"/><line style="stroke:#426C70;stroke-width:1.4;" x1="448.4186" x2="297.3491" y1="598.1188" y2="598.1188"/><polygon fill="#426C70" points="307.3491,594.1188,297.3491,598.1188,307.3491,602.1188,303.3491,598.1188" style="stroke:#426C70;stroke-width:1;"/><line style="stroke:#426C70;stroke-width:1.4;" x1="710.0409" x2="700.0409" y1="461.3031" y2="461.3031"/><line style="stroke:#426C70;stroke-width:1.4;" x1="700.0409" x2="700.0409" y1="461.3031" y2="499.575"/><polygon fill="#426C70" points="696.0409,489.575,700.0409,499.575,704.0409,489.575,700.0409,493.575" style="stroke:#426C70;stroke-width:1;"/><line style="stroke:#426C70;stroke-width:1.4;" x1="1030.0818" x2="1040.0818" y1="461.3031" y2="461.3031"/><line style="stroke:#426C70;stroke-width:1.4;" x1="1040.0818" x2="1040.0818" y1="461.3031" y2="499.575"/><polygon fill="#426C70" points="1036.0818,489.575,1040.0818,499.575,1044.0818,489.575,1040.0818,493.575" style="stroke:#426C70;stroke-width:1;"/><line style="stroke:#426C70;stroke-width:1.4;" x1="700.0409" x2="700.0409" y1="576.1188" y2="598.1188"/><line style="stroke:#426C70;stroke-width:1.4;" x1="700.0409" x2="858.0614" y1="598.1188" y2="598.1188"/><polygon fill="#426C70" points="848.0614,594.1188,858.0614,598.1188,848.0614,602.1188,852.0614,598.1188" style="stroke:#426C70;stroke-width:1;"/><line style="stroke:#426C70;stroke-width:1.4;" x1="1040.0818" x2="1040.0818" y1="555.8469" y2="598.1188"/><line style="stroke:#426C70;stroke-width:1.4;" x1="1040.0818" x2="882.0614" y1="598.1188" y2="598.1188"/><polygon fill="#426C70" points="892.0614,594.1188,882.0614,598.1188,892.0614,602.1188,888.0614,598.1188" style="stroke:#426C70;stroke-width:1;"/><line style="stroke:#426C70;stroke-width:1.4;" x1="442.5417" x2="285.3491" y1="404.8952" y2="404.8952"/><line style="stroke:#426C70;stroke-width:1.4;" x1="285.3491" x2="285.3491" y1="404.8952" y2="433.0312"/><polygon fill="#426C70" points="281.3491,423.0312,285.3491,433.0312,289.3491,423.0312,285.3491,427.0312" style="stroke:#426C70;stroke-width:1;"/><line style="stroke:#426C70;stroke-width:1.4;" x1="712.8688" x2="870.0614" y1="404.8952" y2="404.8952"/><line style="stroke:#426C70;stroke-width:1.4;" x1="870.0614" x2="870.0614" y1="404.8952" y2="433.0312"/><polygon fill="#426C70" points="866.0614,423.0312,870.0614,433.0312,874.0614,423.0312,870.0614,427.0312" style="stroke:#426C70;stroke-width:1;"/><line style="stroke:#426C70;stroke-width:1.4;" x1="285.3491" x2="285.3491" y1="610.1188" y2="632.1188"/><line style="stroke:#426C70;stroke-width:1.4;" x1="285.3491" x2="565.7052" y1="632.1188" y2="632.1188"/><polygon fill="#426C70" points="555.7052,628.1188,565.7052,632.1188,555.7052,636.1188,559.7052,632.1188" style="stroke:#426C70;stroke-width:1;"/><line style="stroke:#426C70;stroke-width:1.4;" x1="870.0614" x2="870.0614" y1="610.1188" y2="632.1188"/><line style="stroke:#426C70;stroke-width:1.4;" x1="870.0614" x2="589.7052" y1="632.1188" y2="632.1188"/><polygon fill="#426C70" points="599.7052,628.1188,589.7052,632.1188,599.7052,636.1188,595.7052,632.1188" style="stroke:#426C70;stroke-width:1;"/><line style="stroke:#426C70;stroke-width:1.4;" x1="577.7052" x2="577.7052" y1="364.0913" y2="386.7593"/><polygon fill="#426C70" points="573.7052,376.7593,577.7052,386.7593,581.7052,376.7593,577.7052,380.7593" style="stroke:#426C70;stroke-width:1;"/><line style="stroke:#426C70;stroke-width:1.4;" x1="577.7052" x2="577.7052" y1="644.1188" y2="664.1188"/><polygon fill="#426C70" points="573.7052,654.1188,577.7052,664.1188,581.7052,654.1188,577.7052,658.1188" style="stroke:#426C70;stroke-width:1;"/><!--SRC=[ZP7RBWDH58RlvocsEsuyWCQ5K24HaZeaaYRDQ7UP6DDckYlf7HTqofGAHPGwbKZ56ES6vMLchHbNNi7kZ4CfYPjzM7kjF_-t_oP92Sl922K9bf9fgvISaWKcCPcIhlv1ugJBi702MXgp1rPb2Gf5VWQj1CQMa62YoeGsnp2XciUb0xnPj1zMiRWTLB1mZUkcyroq7ywWTE5S7_5XxufQ3XPs7MCVywPFaAAa6QghaCc-d6x2bMcNDs3vy6KkQrSDtCvWNdjzt6qXR88gf1atpri4GjfGp-36BUZtNhUzRt0x9AxIA5LL6WbnN-EK1HNl6URdo9WOdap6Nn_rzr9fdRTBKwAQyWbKJb1k8dViQlzK8UrrdKf4YjPPTdy8xYvHJqDkfS50e_FQQFsdE4zFe9b1XUk4kZjw-mP6_07tC1pmXuPw0lx1de6-haOTxjEDmOJbOwioOrNATi70lNHG4PCi5egAaXoRfYf1ZNDISVApukF3ttYvalMyW_fiWtktrGNs1aIPKLKH6Vq0yHBtuhGgQz_I_OqhuE-ixQF_02iKVqdJHLDfkCQH-aBxgFoDzXxM9q0TcRicM2mkl040]--></g></svg>