<svg xmlns="http://www.w3.org/2000/svg" xmlns:xlink="http://www.w3.org/1999/xlink" contentStyleType="text/css" data-diagram-type="DESCRIPTION" height="371px" preserveAspectRatio="none" style="width:808px;height:371px;background:#FFFFFF;" version="1.1" viewBox="0 0 808 371" width="808px" zoomAndPan="magnify"><?plantuml 1.2026.6?><defs/><g><g class="title" data-source-line="2"><text fill="#000000" font-family="Verdana" font-size="22" font-weight="700" lengthAdjust="spacing" textLength="242.0008" x="282.0776" y="35.4209">&#19977;&#33410;&#28857;&#20154;&#24037;&#25925;&#38556;&#20999;&#25442;&#25299;&#25169;</text></g><!--entity client--><g class="entity" data-qualified-name="client" data-source-line="11" id="ent0001"><ellipse cx="144.9999" cy="289.6294" fill="#FFFFFF" rx="8" ry="8" style="stroke:#000000;stroke-width:1;"/><path d="M144.9999,297.6294 L144.9999,324.6294 M131.9999,305.6294 L157.9999,305.6294 M144.9999,324.6294 L131.9999,339.6294 M144.9999,324.6294 L157.9999,339.6294" fill="none" style="stroke:#000000;stroke-width:1;"/><text fill="#000000" font-family="Verdana" font-size="14" lengthAdjust="spacing" textLength="41.9998" x="124" y="354.6245">&#23458;&#25143;&#31471;</text></g><!--entity panel--><g class="entity" data-qualified-name="panel" data-source-line="12" id="ent0002"><rect fill="#F7F9FC" height="52.5938" rx="2.5" ry="2.5" style="stroke:#53708C;stroke-width:1;" width="89.9997" x="100" y="117.9794"/><text fill="#000000" font-family="Verdana" font-size="14" lengthAdjust="spacing" textLength="41.9998" x="110" y="140.9745">&#25511;&#21046;&#38754;</text><text fill="#000000" font-family="Verdana" font-size="14" lengthAdjust="spacing" textLength="69.9997" x="110" y="157.2714">&#31649;&#29702;&#19982;&#32534;&#25490;</text></g><!--entity data--><g class="entity" data-qualified-name="data" data-source-line="13" id="ent0003"><rect fill="#F7F9FC" height="52.5938" rx="2.5" ry="2.5" style="stroke:#53708C;stroke-width:1;" width="89.9997" x="485" y="159.9794"/><text fill="#000000" font-family="Verdana" font-size="14" lengthAdjust="spacing" textLength="69.9997" x="495" y="182.9745">&#26222;&#36890;&#25968;&#25454;&#38754;</text><text fill="#000000" font-family="Verdana" font-size="14" lengthAdjust="spacing" textLength="41.9998" x="495" y="199.2714">&#20027;&#20837;&#21475;</text></g><!--entity ai--><g class="entity" data-qualified-name="ai" data-source-line="14" id="ent0004"><rect fill="#F7F9FC" height="52.5938" rx="2.5" ry="2.5" style="stroke:#53708C;stroke-width:1;" width="94.156" x="700" y="159.9794"/><text fill="#000000" font-family="Verdana" font-size="14" lengthAdjust="spacing" textLength="46.1561" x="710" y="182.9745">AI &#33410;&#28857;</text><text fill="#000000" font-family="Verdana" font-size="14" lengthAdjust="spacing" textLength="74.156" x="710" y="199.2714">AI &#27969;&#37327;&#20986;&#21475;</text></g><!--entity backup--><g class="entity" data-qualified-name="backup" data-source-line="15" id="ent0005"><rect fill="#F7F9FC" height="52.5938" rx="2.5" ry="2.5" style="stroke:#53708C;stroke-width:1;" width="131.9995" x="464" y="292.9794"/><text fill="#000000" font-family="Verdana" font-size="14" lengthAdjust="spacing" textLength="106.6608" x="474" y="315.9745">&#25511;&#21046;&#38754;&#22791;&#29992; Xray</text><text fill="#000000" font-family="Verdana" font-size="14" lengthAdjust="spacing" textLength="111.9995" x="474" y="332.2714">&#25968;&#25454;&#38754;&#25925;&#38556;&#26102;&#25509;&#31649;</text></g><g class="entity" data-qualified-name="GMN15" data-source-line="28" id="ent0016"><path d="M11,205.1494 L11,245.415 A0,0 0 0 0 11,245.415 L279.0003,245.415 A0,0 0 0 0 279.0003,245.415 L279.0003,215.1494 L269.0003,205.1494 L149,205.1494 L145,170.7194 L141,205.1494 L11,205.1494 A0,0 0 0 0 11,205.1494" fill="#FFFFFF" style="stroke:#000000;stroke-width:1;"/><path d="M269.0003,205.1494 L269.0003,215.1494 L279.0003,215.1494 L269.0003,205.1494" fill="#FFFFFF" style="stroke:#000000;stroke-width:1;"/><text fill="#000000" font-family="Verdana" font-size="13" lengthAdjust="spacing" textLength="234.0003" x="17" y="222.2163">&#25511;&#21046;&#38754;&#25925;&#38556;&#26102;&#26412;&#26399;&#19981;&#20570;&#31532;&#20108;&#25511;&#21046;&#38754;&#25509;&#31649;&#65307;</text><text fill="#000000" font-family="Verdana" font-size="13" lengthAdjust="spacing" textLength="247.0003" x="17" y="237.3491">&#24050;&#26377;&#23458;&#25143;&#31471;&#32487;&#32493;&#20351;&#29992;&#24050;&#19979;&#21457;&#30340;&#25968;&#25454;&#38754;&#37197;&#32622;&#12290;</text></g><!--link client to data--><g class="link" data-entity-1="ent0001" data-entity-2="ent0003" data-link-type="dependency" data-source-line="17" id="lnk6"><path d="M166.45,316.9994 C224.23,310.2894 387.5,289.4494 434,263.2794 C451.27,253.5594 449.02,243.2594 464,230.2794 C470.9,224.2994 474.5516,221.3178 482.2216,215.9178" fill="none" id="client-to-data" style="stroke:#53708C;stroke-width:1;"/><polygon fill="#53708C" points="486.31,213.0394,476.6482,214.9498,482.2216,215.9178,481.2536,221.4912,486.31,213.0394" style="stroke:#53708C;stroke-width:1;stroke-linejoin:miter;stroke-miterlimit:10;"/><text fill="#000000" font-family="Verdana" font-size="13" lengthAdjust="spacing" textLength="78.0001" x="332.5" y="259.3463">&#27491;&#24120;&#20195;&#29702;&#27969;&#37327;</text></g><!--link data to ai--><g class="link" data-entity-1="ent0003" data-entity-2="ent0004" data-link-type="dependency" data-source-line="18" id="lnk7"><path d="M575.3,186.2794 C611.58,186.2794 657.75,186.2794 694.6,186.2794" fill="none" id="data-to-ai" style="stroke:#53708C;stroke-width:1;"/><polygon fill="#53708C" points="699.6,186.2794,690.6,182.2794,694.6,186.2794,690.6,190.2794,699.6,186.2794" style="stroke:#53708C;stroke-width:1;stroke-linejoin:miter;stroke-miterlimit:10;"/><text fill="#000000" font-family="Verdana" font-size="13" lengthAdjust="spacing" textLength="42.8594" x="627" y="182.3463">AI &#22495;&#21517;</text></g><!--link data to data--><g class="link" data-entity-1="ent0003" data-entity-2="ent0003" data-link-type="dependency" data-source-line="19" id="lnk8"><path d="M509.72,159.4994 C504.23,141.9594 510.99,124.9794 530,124.9794 C549.01,124.9794 557.2635,137.1877 551.7735,154.7277" fill="none" id="data-to-data" style="stroke:#53708C;stroke-width:1;"/><polygon fill="#53708C" points="550.28,159.4994,556.7858,152.1051,551.7735,154.7277,549.151,149.7154,550.28,159.4994" style="stroke:#53708C;stroke-width:1;stroke-linejoin:miter;stroke-miterlimit:10;"/><text fill="#000000" font-family="Verdana" font-size="13" lengthAdjust="spacing" textLength="107.504" x="476.5" y="116.0463">&#30452;&#20986; / AI &#20154;&#24037;&#22238;&#36864;</text></g><!--link client to backup--><g class="link" data-entity-1="ent0001" data-entity-2="ent0005" data-link-type="dependency" data-source-line="20" id="lnk9"><path d="M166.25,319.6694 C213.27,320.4994 333.5,322.3394 434,321.2794 C443.57,321.1794 448.6808,321.1102 458.5908,320.9302" fill="none" id="client-to-backup" style="stroke:#53708C;stroke-width:1;"/><polygon fill="#53708C" points="463.59,320.8394,454.5188,317.0035,458.5908,320.9302,454.6641,325.0022,463.59,320.8394" style="stroke:#53708C;stroke-width:1;stroke-linejoin:miter;stroke-miterlimit:10;"/><text fill="#000000" font-family="Verdana" font-size="13" lengthAdjust="spacing" textLength="123.1192" x="310" y="317.3463">DNS &#25163;&#21160;&#25110;&#33258;&#21160;&#20999;&#25442;</text></g><!--link backup to ai--><g class="link" data-entity-1="ent0005" data-entity-2="ent0004" data-link-type="dependency" data-source-line="21" id="lnk10"><path d="M574.27,292.5294 C611.68,269.3894 661.2379,238.7498 698.6279,215.6198" fill="none" id="backup-to-ai" style="stroke:#53708C;stroke-width:1;"/><polygon fill="#53708C" points="702.88,212.9894,693.1218,214.3225,698.6279,215.6198,697.3305,221.1259,702.88,212.9894" style="stroke:#53708C;stroke-width:1;stroke-linejoin:miter;stroke-miterlimit:10;"/><text fill="#000000" font-family="Verdana" font-size="13" lengthAdjust="spacing" textLength="32.6143" x="632" y="233.0263">relay</text></g><!--link backup to backup--><g class="link" data-entity-1="ent0005" data-entity-2="ent0005" data-link-type="dependency" data-source-line="22" id="lnk11"><path d="M509.72,292.4994 C504.23,274.9594 510.99,257.9794 530,257.9794 C549.01,257.9794 557.2635,270.1877 551.7735,287.7277" fill="none" id="backup-to-backup" style="stroke:#53708C;stroke-width:1;"/><polygon fill="#53708C" points="550.28,292.4994,556.7858,285.1051,551.7735,287.7277,549.151,282.7154,550.28,292.4994" style="stroke:#53708C;stroke-width:1;stroke-linejoin:miter;stroke-miterlimit:10;"/><text fill="#000000" font-family="Verdana" font-size="13" lengthAdjust="spacing" textLength="107.8595" x="476.5" y="249.0463">AI &#21516;&#26102;&#25925;&#38556;&#26102;&#30452;&#20986;</text></g><!--link panel to data--><g class="link" data-entity-1="ent0002" data-entity-2="ent0003" data-link-type="dependency" data-source-line="23" id="lnk12"><path d="M190.31,149.1394 C264.05,157.2294 406.1498,172.8043 479.8198,180.8843" fill="none" id="panel-to-data" style="stroke:#53708C;stroke-width:1;stroke-dasharray:7,7;"/><polygon fill="#53708C" points="484.79,181.4294,476.2797,176.472,479.8198,180.8843,475.4076,184.4243,484.79,181.4294" style="stroke:#53708C;stroke-width:1;stroke-linejoin:miter;stroke-miterlimit:10;"/><text fill="#000000" font-family="Verdana" font-size="13" lengthAdjust="spacing" textLength="103.2892" x="320" y="158.8363">&#25506;&#27979; / &#37197;&#32622; / &#37325;&#21551;</text></g><!--link panel to ai--><g class="link" data-entity-1="ent0002" data-entity-2="ent0004" data-link-type="dependency" data-source-line="24" id="lnk13"><path d="M190.32,129.0594 C272.03,103.2994 451.31,57.6094 596,97.2794 C639.97,109.3394 680.1019,134.9903 709.0119,156.5503" fill="none" id="panel-to-ai" style="stroke:#53708C;stroke-width:1;stroke-dasharray:7,7;"/><polygon fill="#53708C" points="713.02,159.5394,708.1966,150.9525,709.0119,156.5503,703.4141,157.3655,713.02,159.5394" style="stroke:#53708C;stroke-width:1;stroke-linejoin:miter;stroke-miterlimit:10;"/><text fill="#000000" font-family="Verdana" font-size="13" lengthAdjust="spacing" textLength="121.0562" x="469.5" y="77.7863">SSH &#25506;&#27979; / &#24378;&#21046;&#22238;&#36864;</text></g><!--link panel to backup--><g class="link" data-entity-1="ent0002" data-entity-2="ent0005" data-link-type="dependency" data-source-line="25" id="lnk14"><path d="M190.4,157.4594 C216.43,165.4794 249.82,176.2694 279,187.2794 C292.6,192.4094 295.43,195.0694 309,200.2794 C363.72,221.2894 382.64,214.0494 434,242.2794 C458.93,255.9894 480.0892,273.0772 498.1192,289.4572" fill="none" id="panel-to-backup" style="stroke:#53708C;stroke-width:1;stroke-dasharray:7,7;"/><polygon fill="#53708C" points="501.82,292.8194,497.8482,283.8069,498.1192,289.4572,492.4688,289.7282,501.82,292.8194" style="stroke:#53708C;stroke-width:1;stroke-linejoin:miter;stroke-miterlimit:10;"/><text fill="#000000" font-family="Verdana" font-size="13" lengthAdjust="spacing" textLength="112.8423" x="315.5" y="196.3463">&#28210;&#26579; relay / direct</text></g><?plantuml-src XP91Rn9168Rlyoj6FBUQ65FrO58nH2zUk7ZWCcKNs7IP8Siq3JTAn8NIfRIrDG9A14aRfTGqjgn0uuznPxPxyYyukqjtrwI9jzcTv_lUzvtlkqDpSbw61HKf6525gZAqpFhrTiMk_BIcKpOPyiEgq-wociwDFcySyFeU0AgSeP0Ig2dP78MIeibfgX0CYkiABY0DvM6Qv0i4ovWcQKdqT064iweSGOev995D1MTX1gd5wCsgff7DE5691ky-VB1o_r7yjixFY2R9slynb5xFQcG3ImiqiP9ud8W3WD9KVCROkCzh4_lRMGoY8aohYgW1GJMCyUOngrqw7_ifR8y_swstbjcqvqUykUyL512MrN_u3sEdtEQ7txanzgeiSyQgGxOxy7W9KHJ5Lrz2_xLJM1pvnPQZxp9zUeCZvLOlx8jklpk1hpLKIk50onyLVt_9cqFXrMkm9k9l503mWy6bfQUU1VW4yjC1CqrhDX2PV5tWtRW8KWGW_B1UZxMCyF-YrExy41xXFHVnjuHrFZdbSbJ55nRmyrT9oEiDjdt2QqVN-bTnyBS9B910K9DLL8h-3NguLbexRhARYBu5u3q_N5uEKpNx_A8Xh3bLmxuQkmVTOAsp2Ebf9PClGfRDf-9T5nb2C93dvZdl7VZ-1EulF02OK1ck4Kf97fBCOXM26ONJw8vujsUP1jjgswEHDTq96MzGV-OTm2Rdl5iFbj6U7TkpK-lgbnYpkBBC1jlTizjlWbdxyNwNAq364dIT_0K0?></g></svg>