<svg xmlns="http://www.w3.org/2000/svg" xmlns:xlink="http://www.w3.org/1999/xlink" contentStyleType="text/css" data-diagram-type="DESCRIPTION" height="545px" preserveAspectRatio="none" style="width:1887px;height:545px;background:#FFFFFF;" version="1.1" viewBox="0 0 1887 545" width="1887px" zoomAndPan="magnify"><?plantuml 1.2026.6?><defs/><g><g class="title" data-source-line="2"><text fill="#000000" font-family="Verdana" font-size="22" font-weight="700" lengthAdjust="spacing" textLength="562.1172" x="661.8865" y="35.4209">Read-only remote node configuration backup</text></g><!--entity control--><g class="entity" data-qualified-name="control" data-source-line="5" id="ent0001"><rect fill="#AED6F1" height="52.5938" rx="2.5" ry="2.5" style="stroke:#000000;stroke-width:1;" width="125.6289" x="12" y="301.8853"/><text fill="#000000" font-family="Verdana" font-size="14" lengthAdjust="spacing" textLength="94.2061" x="22" y="324.8804">Control plane</text><text fill="#000000" font-family="Verdana" font-size="14" lengthAdjust="spacing" textLength="105.6289" x="22" y="341.1773">backup service</text></g><!--entity collector--><g class="entity" data-qualified-name="collector" data-source-line="6" id="ent0002"><rect fill="#D7BDE2" height="62.5938" rx="2.5" ry="2.5" style="stroke:#000000;stroke-width:1;" width="223.1689" x="303.63" y="296.8853"/><rect fill="#D7BDE2" height="10" style="stroke:#000000;stroke-width:1;" width="15" x="506.7989" y="301.8853"/><rect fill="#D7BDE2" height="2" style="stroke:#000000;stroke-width:1;" width="4" x="504.7989" y="303.8853"/><rect fill="#D7BDE2" height="2" style="stroke:#000000;stroke-width:1;" width="4" x="504.7989" y="307.8853"/><text fill="#000000" font-family="Verdana" font-size="14" lengthAdjust="spacing" textLength="183.1689" x="318.63" y="329.8804">collect_remote_backup.py</text><text fill="#000000" font-family="Verdana" font-size="14" lengthAdjust="spacing" textLength="163.8643" x="318.63" y="346.1773">SSH read-only collector</text></g><!--entity normal--><g class="entity" data-qualified-name="normal" data-source-line="7" id="ent0003"><polygon fill="#A9DFBF" points="772.1,241.7353,782.1,231.7353,958.0199,231.7353,958.0199,300.6259,948.0199,310.6259,772.1,310.6259,772.1,241.7353" style="stroke:#000000;stroke-width:1;stroke-linejoin:miter;stroke-miterlimit:10;"/><line style="stroke:#000000;stroke-width:1;" x1="948.0199" x2="958.0199" y1="241.7353" y2="231.7353"/><line style="stroke:#000000;stroke-width:1;" x1="772.1" x2="948.0199" y1="241.7353" y2="241.7353"/><line style="stroke:#000000;stroke-width:1;" x1="948.0199" x2="948.0199" y1="241.7353" y2="310.6259"/><text fill="#000000" font-family="Verdana" font-size="14" lengthAdjust="spacing" textLength="50.9004" x="787.1" y="264.7304">Normal</text><text fill="#000000" font-family="Verdana" font-size="14" lengthAdjust="spacing" textLength="4.4502" x="838.0004" y="264.7304">&#160;</text><text fill="#000000" font-family="Verdana" font-size="14" lengthAdjust="spacing" textLength="31.5342" x="842.4506" y="264.7304">data</text><text fill="#000000" font-family="Verdana" font-size="14" lengthAdjust="spacing" textLength="4.4502" x="873.9848" y="264.7304">&#160;</text><text fill="#000000" font-family="Verdana" font-size="14" lengthAdjust="spacing" textLength="38.8418" x="878.435" y="264.7304">plane</text><text fill="#000000" font-family="Verdana" font-size="14" lengthAdjust="spacing" textLength="28.3008" x="787.1" y="281.0273">SSH</text><text fill="#000000" font-family="Verdana" font-size="14" lengthAdjust="spacing" textLength="4.4502" x="815.4008" y="281.0273">&#160;</text><text fill="#000000" font-family="Verdana" font-size="14" lengthAdjust="spacing" textLength="17.8145" x="819.851" y="281.0273">22</text><text fill="#000000" font-family="Verdana" font-size="14" lengthAdjust="spacing" textLength="74.9697" x="787.1" y="297.3242">configured</text><text fill="#000000" font-family="Verdana" font-size="14" lengthAdjust="spacing" textLength="4.4502" x="862.0697" y="297.3242">&#160;</text><text fill="#000000" font-family="Verdana" font-size="14" lengthAdjust="spacing" textLength="30.2217" x="866.5199" y="297.3242">host</text><text fill="#000000" font-family="Verdana" font-size="14" lengthAdjust="spacing" textLength="4.4502" x="896.7416" y="297.3242">&#160;</text><text fill="#000000" font-family="Verdana" font-size="14" lengthAdjust="spacing" textLength="31.8281" x="901.1918" y="297.3242">path</text></g><!--entity ai--><g class="entity" data-qualified-name="ai" data-source-line="8" id="ent0004"><polygon fill="#A9DFBF" points="773.67,355.7353,783.67,345.7353,956.4386,345.7353,956.4386,414.6259,946.4386,424.6259,773.67,424.6259,773.67,355.7353" style="stroke:#000000;stroke-width:1;stroke-linejoin:miter;stroke-miterlimit:10;"/><line style="stroke:#000000;stroke-width:1;" x1="946.4386" x2="956.4386" y1="355.7353" y2="345.7353"/><line style="stroke:#000000;stroke-width:1;" x1="773.67" x2="946.4386" y1="355.7353" y2="355.7353"/><line style="stroke:#000000;stroke-width:1;" x1="946.4386" x2="946.4386" y1="355.7353" y2="424.6259"/><text fill="#000000" font-family="Verdana" font-size="14" lengthAdjust="spacing" textLength="13.7061" x="788.67" y="378.7304">AI</text><text fill="#000000" font-family="Verdana" font-size="14" lengthAdjust="spacing" textLength="4.4502" x="802.3761" y="378.7304">&#160;</text><text fill="#000000" font-family="Verdana" font-size="14" lengthAdjust="spacing" textLength="31.5342" x="806.8263" y="378.7304">data</text><text fill="#000000" font-family="Verdana" font-size="14" lengthAdjust="spacing" textLength="4.4502" x="838.3604" y="378.7304">&#160;</text><text fill="#000000" font-family="Verdana" font-size="14" lengthAdjust="spacing" textLength="38.8418" x="842.8106" y="378.7304">plane</text><text fill="#000000" font-family="Verdana" font-size="14" lengthAdjust="spacing" textLength="28.3008" x="788.67" y="395.0273">SSH</text><text fill="#000000" font-family="Verdana" font-size="14" lengthAdjust="spacing" textLength="4.4502" x="816.9708" y="395.0273">&#160;</text><text fill="#000000" font-family="Verdana" font-size="14" lengthAdjust="spacing" textLength="44.5361" x="821.421" y="395.0273">27160</text><text fill="#000000" font-family="Verdana" font-size="14" lengthAdjust="spacing" textLength="142.7686" x="788.67" y="411.3242">/etc/xray/config.json</text></g><!--entity bundle--><g class="entity" data-qualified-name="bundle" data-source-line="9" id="ent0005"><rect fill="#FAD7A0" height="62.5938" rx="2.5" ry="2.5" style="stroke:#000000;stroke-width:1;" width="264.7314" x="732.69" y="58.8853"/><rect fill="#FAD7A0" height="10" style="stroke:#000000;stroke-width:1;" width="15" x="977.4214" y="63.8853"/><rect fill="#FAD7A0" height="2" style="stroke:#000000;stroke-width:1;" width="4" x="975.4214" y="65.8853"/><rect fill="#FAD7A0" height="2" style="stroke:#000000;stroke-width:1;" width="4" x="975.4214" y="69.8853"/><text fill="#000000" font-family="Verdana" font-size="14" lengthAdjust="spacing" textLength="169.1006" x="747.69" y="91.8804">build_backup_bundle.py</text><text fill="#000000" font-family="Verdana" font-size="14" lengthAdjust="spacing" textLength="224.7314" x="747.69" y="108.1773">local tar.gz + SHA-256 manifest</text></g><!--entity uploader--><g class="entity" data-qualified-name="uploader" data-source-line="10" id="ent0006"><rect fill="#FAD7A0" height="62.5938" rx="2.5" ry="2.5" style="stroke:#000000;stroke-width:1;" width="224.4063" x="1218.32" y="58.8853"/><rect fill="#FAD7A0" height="10" style="stroke:#000000;stroke-width:1;" width="15" x="1422.7263" y="63.8853"/><rect fill="#FAD7A0" height="2" style="stroke:#000000;stroke-width:1;" width="4" x="1420.7263" y="65.8853"/><rect fill="#FAD7A0" height="2" style="stroke:#000000;stroke-width:1;" width="4" x="1420.7263" y="69.8853"/><text fill="#000000" font-family="Verdana" font-size="14" lengthAdjust="spacing" textLength="140.957" x="1233.32" y="91.8804">db-backup-uploader</text><text fill="#000000" font-family="Verdana" font-size="14" lengthAdjust="spacing" textLength="184.4063" x="1233.32" y="108.1773">AES-GCM + shards + npm</text></g><!--entity npm--><g class="entity" data-qualified-name="npm" data-source-line="11" id="ent0007"><path d="M1650.7478,67.7564 C1655.6044,60.093 1660.504,59.407 1666.2905,66.7963 C1671.0861,60.4034 1678.405,61.6902 1681.2903,68.9024 C1685.6945,61.1255 1690.4339,60.1707 1696.4949,67.2011 C1700.3712,60.5644 1704.6397,61.6577 1708.844,66.8589 C1712.717,59.8502 1719.7679,58.5851 1723.7933,66.7084 C1727.753,60.6059 1734.7798,61.3301 1737.9934,67.5671 C1742.6527,59.7146 1748.8603,58.4765 1754.2737,66.8085 C1759.2181,59.9817 1763.3676,60.7873 1767.833,67.2954 C1772.5567,60.3797 1778.8523,59.6776 1783.5781,67.2931 C1787.5528,61.294 1794.0862,61.1732 1797.0631,68.317 C1801.6328,61.141 1806.2418,60.338 1811.3437,67.7977 C1816.3401,61.0257 1821.8474,61.5659 1826.1204,68.5734 C1830.4371,61.5847 1835.7142,62.1005 1839.781,68.8224 C1843.8222,61.8197 1850.0505,61.0834 1855.1678,67.5976 C1867.0074,70.9376 1872.8902,79.9689 1863.7041,90.9837 C1871.0266,101.2561 1868.4626,109.9313 1856.2856,113.8881 C1852.0837,123.6893 1846.925,124.5297 1839.8529,116.539 C1835.2812,122.1477 1829.891,122.5604 1825.8735,115.9072 C1822.932,124.9476 1815.5734,123.7892 1810.5001,118.138 C1806.4894,124.6551 1800.792,125.6503 1796.056,118.9293 C1792.916,125.0467 1787.6227,126.3943 1782.9909,120.5603 C1779.2965,128.6128 1772.1526,128.482 1767.2454,121.8618 C1762.8684,129.053 1758.5189,128.2285 1753.7005,122.3181 C1748.0408,129.1838 1743.3133,128.9646 1738.9673,121.012 C1734.2034,127.5353 1726.8342,126.839 1723.9639,119.0298 C1719.6479,125.5127 1715.5635,126.2348 1710.4974,119.8124 C1704.8535,125.9696 1699.6467,126.4502 1695.9127,117.9163 C1690.6955,123.8593 1685.0451,123.5573 1681.0453,116.5217 C1675.4091,123.8306 1670.2671,122.9225 1666.301,114.9142 C1661.6408,120.6173 1655.5962,120.3373 1651.6685,114.0224 C1640.387,108.1428 1639.7664,98.6695 1648.6617,90.2391 C1639.5878,83.3842 1640.9527,72.8605 1650.7478,67.7564" fill="#F9E79F" style="stroke:#000000;stroke-width:1;"/><text fill="#000000" font-family="Verdana" font-size="14" lengthAdjust="spacing" textLength="89.8174" x="1657.72" y="86.8804">npm registry</text><text fill="#000000" font-family="Verdana" font-size="14" lengthAdjust="spacing" textLength="188.8633" x="1657.72" y="103.1773">long-term disaster channel</text></g><!--entity db--><g class="entity" data-qualified-name="db" data-source-line="12" id="ent0008"><path d="M348.21,69.3853 C348.21,59.3853 415.2115,59.3853 415.2115,59.3853 C415.2115,59.3853 482.2129,59.3853 482.2129,69.3853 L482.2129,110.979 C482.2129,120.979 415.2115,120.979 415.2115,120.979 C415.2115,120.979 348.21,120.979 348.21,110.979 L348.21,69.3853" fill="#D3D3D3" style="stroke:#000000;stroke-width:1;"/><path d="M348.21,69.3853 C348.21,79.3853 415.2115,79.3853 415.2115,79.3853 C415.2115,79.3853 482.2129,79.3853 482.2129,69.3853" fill="none" style="stroke:#000000;stroke-width:1;"/><text fill="#000000" font-family="Verdana" font-size="14" lengthAdjust="spacing" textLength="114.0029" x="358.21" y="96.3804">SQLite snapshot</text><text fill="#000000" font-family="Verdana" font-size="14" lengthAdjust="spacing" textLength="61.0654" x="358.21" y="112.6773">panel.db</text></g><g class="entity" data-qualified-name="GMN16" data-source-line="23" id="ent0017"><path d="M757.26,459.9153 L757.26,530.4465 A0,0 0 0 0 757.26,530.4465 L972.8538,530.4465 A0,0 0 0 0 972.8538,530.4465 L972.8538,469.9153 L962.8538,459.9153 L772.5,459.9153 L501.24,359.8853 L764.5,459.9153 L757.26,459.9153 A0,0 0 0 0 757.26,459.9153" fill="#FFFFFF" style="stroke:#000000;stroke-width:1;"/><path d="M962.8538,459.9153 L962.8538,469.9153 L972.8538,469.9153 L962.8538,459.9153" fill="#FFFFFF" style="stroke:#000000;stroke-width:1;"/><text fill="#000000" font-family="Verdana" font-size="13" lengthAdjust="spacing" textLength="181.8159" x="763.26" y="476.9822">StrictHostKeyChecking=yes</text><text fill="#000000" font-family="Verdana" font-size="13" lengthAdjust="spacing" textLength="123.646" x="763.26" y="492.115">IdentitiesOnly=yes</text><text fill="#000000" font-family="Verdana" font-size="13" lengthAdjust="spacing" textLength="194.5938" x="763.26" y="507.2478">UserKnownHostsFile per node</text><text fill="#000000" font-family="Verdana" font-size="13" lengthAdjust="spacing" textLength="167.229" x="763.26" y="522.3806">No remote writes/restarts</text></g><g class="entity" data-qualified-name="GMN19" data-source-line="30" id="ent0020"><path d="M728.8,156.0453 L728.8,196.3109 A0,0 0 0 0 728.8,196.3109 L1001.3195,196.3109 A0,0 0 0 0 1001.3195,196.3109 L1001.3195,166.0453 L991.3195,156.0453 L869.06,156.0453 L865.06,121.9053 L861.06,156.0453 L728.8,156.0453 A0,0 0 0 0 728.8,156.0453" fill="#FFFFFF" style="stroke:#000000;stroke-width:1;"/><path d="M991.3195,156.0453 L991.3195,166.0453 L1001.3195,166.0453 L991.3195,156.0453" fill="#FFFFFF" style="stroke:#000000;stroke-width:1;"/><text fill="#000000" font-family="Verdana" font-size="13" lengthAdjust="spacing" textLength="205.8672" x="734.8" y="173.1122">Recovery is manual and offline;</text><text fill="#000000" font-family="Verdana" font-size="13" lengthAdjust="spacing" textLength="251.5195" x="734.8" y="188.245">npm is not a fast-failover dependency.</text></g><!--link control to collector--><g class="link" data-entity-1="ent0001" data-entity-2="ent0002" data-link-type="dependency" data-source-line="14" id="lnk9"><path d="M137.88,328.1753 C184.06,328.1753 243.32,328.1753 298.25,328.1753" fill="none" id="control-to-collector" style="stroke:#000000;stroke-width:1;"/><polygon fill="#000000" points="303.25,328.1753,294.25,324.1753,298.25,328.1753,294.25,332.1753,303.25,328.1753" style="stroke:#000000;stroke-width:1;stroke-linejoin:miter;stroke-miterlimit:10;"/><text fill="#000000" font-family="Verdana" font-size="13" lengthAdjust="spacing" textLength="104.2412" x="168.63" y="324.2422">scheduled cycle</text></g><!--link collector to normal--><g class="link" data-entity-1="ent0002" data-entity-2="ent0003" data-link-type="dependency" data-source-line="15" id="lnk10"><path d="M527.2,314.0553 C602.45,304.4753 695.79,292.5964 766.76,283.5664" fill="none" id="collector-to-normal" style="stroke:#000000;stroke-width:1;"/><polygon fill="#000000" points="771.72,282.9353,762.2871,280.1033,766.76,283.5664,763.2969,288.0393,771.72,282.9353" style="stroke:#000000;stroke-width:1;stroke-linejoin:miter;stroke-miterlimit:10;"/><text fill="#000000" font-family="Verdana" font-size="13" lengthAdjust="spacing" textLength="26.2793" x="614.894" y="273.9622">SSH</text><text fill="#000000" font-family="Verdana" font-size="13" lengthAdjust="spacing" textLength="140.4673" x="557.8" y="289.095">stat/read regular files</text></g><!--link collector to ai--><g class="link" data-entity-1="ent0002" data-entity-2="ent0004" data-link-type="dependency" data-source-line="16" id="lnk11"><path d="M527.04,345.9653 C537.09,347.4453 547.13,348.8753 556.8,350.1753 C629.42,359.9953 706.9883,368.7642 768.2083,375.3042" fill="none" id="collector-to-ai" style="stroke:#000000;stroke-width:1;"/><polygon fill="#000000" points="773.18,375.8353,764.6558,370.9019,768.2083,375.3042,763.806,378.8567,773.18,375.8353" style="stroke:#000000;stroke-width:1;stroke-linejoin:miter;stroke-miterlimit:10;"/><text fill="#000000" font-family="Verdana" font-size="13" lengthAdjust="spacing" textLength="26.2793" x="614.894" y="331.2422">SSH</text><text fill="#000000" font-family="Verdana" font-size="13" lengthAdjust="spacing" textLength="140.4673" x="557.8" y="346.375">stat/read regular files</text></g><!--link collector to bundle--><g class="link" data-entity-1="ent0002" data-entity-2="ent0005" data-link-type="dependency" data-source-line="17" id="lnk12"><path d="M461.67,296.4353 C521.08,255.9353 629.28,185.4653 728.8,138.1753 C740.95,132.4053 749.3388,128.7446 762.3488,123.6946" fill="none" id="collector-to-bundle" style="stroke:#000000;stroke-width:1;"/><polygon fill="#000000" points="767.01,121.8853,757.1725,121.4131,762.3488,123.6946,760.0673,128.871,767.01,121.8853" style="stroke:#000000;stroke-width:1;stroke-linejoin:miter;stroke-miterlimit:10;"/><text fill="#000000" font-family="Verdana" font-size="13" lengthAdjust="spacing" textLength="92.0664" x="581.9819" y="136.8722">staged nodes/</text><text fill="#000000" font-family="Verdana" font-size="13" lengthAdjust="spacing" textLength="123.4302" x="566.3" y="152.005">collection manifest</text></g><!--link db to bundle--><g class="link" data-entity-1="ent0008" data-entity-2="ent0005" data-link-type="dependency" data-source-line="18" id="lnk13"><path d="M482.29,90.1753 C547.87,90.1753 645.18,90.1753 727.39,90.1753" fill="none" id="db-to-bundle" style="stroke:#000000;stroke-width:1;"/><polygon fill="#000000" points="732.39,90.1753,723.39,86.1753,727.39,90.1753,723.39,94.1753,732.39,90.1753" style="stroke:#000000;stroke-width:1;stroke-linejoin:miter;stroke-miterlimit:10;"/><text fill="#000000" font-family="Verdana" font-size="13" lengthAdjust="spacing" textLength="64.6509" x="595.8" y="86.2422">database/</text></g><!--link bundle to uploader--><g class="link" data-entity-1="ent0005" data-entity-2="ent0006" data-link-type="dependency" data-source-line="19" id="lnk14"><path d="M997.63,90.1753 C1067.21,90.1753 1146.71,90.1753 1213.03,90.1753" fill="none" id="bundle-to-uploader" style="stroke:#000000;stroke-width:1;"/><polygon fill="#000000" points="1218.03,90.1753,1209.03,86.1753,1213.03,90.1753,1209.03,94.1753,1218.03,90.1753" style="stroke:#000000;stroke-width:1;stroke-linejoin:miter;stroke-miterlimit:10;"/><text fill="#000000" font-family="Verdana" font-size="13" lengthAdjust="spacing" textLength="155.7271" x="1032.32" y="86.2422">encrypted input archive</text></g><!--link uploader to npm--><g class="link" data-entity-1="ent0006" data-entity-2="ent0007" data-link-type="dependency" data-source-line="20" id="lnk15"><path d="M1443.15,90.1753 C1504.82,90.1753 1576.11,90.1753 1637.33,90.1753" fill="none" id="uploader-to-npm" style="stroke:#000000;stroke-width:1;"/><polygon fill="#000000" points="1642.33,90.1753,1633.33,86.1753,1637.33,90.1753,1633.33,94.1753,1642.33,90.1753" style="stroke:#000000;stroke-width:1;stroke-linejoin:miter;stroke-miterlimit:10;"/><text fill="#000000" font-family="Verdana" font-size="13" lengthAdjust="spacing" textLength="128.6226" x="1478.6553" y="71.2422">immutable versions</text><text fill="#000000" font-family="Verdana" font-size="13" lengthAdjust="spacing" textLength="138.4932" x="1473.72" y="86.375">(no prune by default)</text></g><?plantuml-src bLHDRzD04BtxLmp91OISj44qQX18QPFGgb148swMglNkE5vOprgxwnRpwvdrHrhWX7nPUsRUlFTcrYz2YHL2ROIc9EXW4EvGgDIIQS5XPGC2MOKWBHNwq3WHj2N8XVpHr8d18a2muFIX3A2qGnd3IH8FWWwCDhcq59mriGLXHdqbU7GFMk84X8_GNSPqlTsSxKuJQQlQ4bA0YRJ6CDHzp-I-BvxLRKRx_HNp6vaEUTODWCCRJ3VBYyrsaNGI9hVMLSA04a6CT2BCOf7HA0yLbDO7g4KeEopgQwRhyytkOZS0hQ__1LcUdfraDCSWvp-TQESzukoxjzG12Nq4UIOmRxHHWwxxl25bi9DdhEIkGRZPuHUyXltLEbsyFODAa2xGXmwnJuVfRhrPha-UeweyxI7JfZPMA7GPhRVxzEFbPmRpfN3Ayu7ggWCQavwWZ6qKJ3ZE7X-q3wwZH8SqeAjuq5vuFe4i1H6QtYXEdkxEjylpNHBDoOLdf_PVFsbU8K-YzgKD6TNic9cflAjHEK_eJNoIPDo2DFtmR80hyB94rHWUZ6obmUGf5ZE7yQo0Pv2H3oBCurP4seqH3WfjqFzLmvFuh_p1PwOIn85vn1tmyxWpNLQy3-DS4bRqHyden3mPFiNeqUyL84dNre5HDTLD0E5agHymEQPq8jdQ5UYgQXYCCHxGUUxgCtf95chN44BUWi92D2QyIdXBsVF-KjhYoSq4O1-Sbk6AL_m6syiIvGzDX_SjQmQuLhmyEcZqN_XE3H-_yKsz8Vj8iSRls1wecLRqWAEtTln9F3gUisSpsIGNV88KZGeuaCbj2BQAR7eVkFOEfMKbBMWV_MjuZ8ABR54OJVYECw9k7QyW-m85hrnQ26rY4MkjkGExrywEhNu3?></g></svg>