<svg xmlns="http://www.w3.org/2000/svg" xmlns:xlink="http://www.w3.org/1999/xlink" contentStyleType="text/css" data-diagram-type="DESCRIPTION" height="650px" preserveAspectRatio="none" style="width:1995px;height:650px;background:#FFFFFF;" version="1.1" viewBox="0 0 1995 650" width="1995px" zoomAndPan="magnify"><?plantuml 1.2026.6?><defs/><g><g class="title" data-source-line="2"><text fill="#000000" font-family="Verdana" font-size="22" font-weight="700" lengthAdjust="spacing" textLength="562.1172" x="715.8258" y="35.4209">Read-only remote node configuration backup</text></g><!--entity control--><g class="entity" data-qualified-name="control" data-source-line="5" id="ent0001"><rect fill="#AED6F1" height="52.5938" rx="2.5" ry="2.5" style="stroke:#000000;stroke-width:1;" width="125.6289" x="12" y="397.8753"/><text fill="#000000" font-family="Verdana" font-size="14" lengthAdjust="spacing" textLength="94.2061" x="22" y="420.8704">Control plane</text><text fill="#000000" font-family="Verdana" font-size="14" lengthAdjust="spacing" textLength="105.6289" x="22" y="437.1673">backup service</text></g><!--entity collector--><g class="entity" data-qualified-name="collector" data-source-line="6" id="ent0002"><rect fill="#D7BDE2" height="62.5938" rx="2.5" ry="2.5" style="stroke:#000000;stroke-width:1;" width="223.1689" x="303.63" y="392.8753"/><rect fill="#D7BDE2" height="10" style="stroke:#000000;stroke-width:1;" width="15" x="506.7989" y="397.8753"/><rect fill="#D7BDE2" height="2" style="stroke:#000000;stroke-width:1;" width="4" x="504.7989" y="399.8753"/><rect fill="#D7BDE2" height="2" style="stroke:#000000;stroke-width:1;" width="4" x="504.7989" y="403.8753"/><text fill="#000000" font-family="Verdana" font-size="14" lengthAdjust="spacing" textLength="183.1689" x="318.63" y="425.8704">collect_remote_backup.py</text><text fill="#000000" font-family="Verdana" font-size="14" lengthAdjust="spacing" textLength="163.8643" x="318.63" y="442.1673">SSH read-only collector</text></g><!--entity normal--><g class="entity" data-qualified-name="normal" data-source-line="7" id="ent0003"><polygon fill="#A9DFBF" points="829.48,445.7253,839.48,435.7253,1024.4644,435.7253,1024.4644,504.6159,1014.4644,514.6159,829.48,514.6159,829.48,445.7253" style="stroke:#000000;stroke-width:1;stroke-linejoin:miter;stroke-miterlimit:10;"/><line style="stroke:#000000;stroke-width:1;" x1="1014.4644" x2="1024.4644" y1="445.7253" y2="435.7253"/><line style="stroke:#000000;stroke-width:1;" x1="829.48" x2="1014.4644" y1="445.7253" y2="445.7253"/><line style="stroke:#000000;stroke-width:1;" x1="1014.4644" x2="1014.4644" y1="445.7253" y2="514.6159"/><text fill="#000000" font-family="Verdana" font-size="14" lengthAdjust="spacing" textLength="50.9004" x="844.48" y="468.7204">Normal</text><text fill="#000000" font-family="Verdana" font-size="14" lengthAdjust="spacing" textLength="4.4502" x="895.3804" y="468.7204">&#160;</text><text fill="#000000" font-family="Verdana" font-size="14" lengthAdjust="spacing" textLength="31.5342" x="899.8306" y="468.7204">data</text><text fill="#000000" font-family="Verdana" font-size="14" lengthAdjust="spacing" textLength="4.4502" x="931.3648" y="468.7204">&#160;</text><text fill="#000000" font-family="Verdana" font-size="14" lengthAdjust="spacing" textLength="38.8418" x="935.815" y="468.7204">plane</text><text fill="#000000" font-family="Verdana" font-size="14" lengthAdjust="spacing" textLength="74.9697" x="844.48" y="485.0173">configured</text><text fill="#000000" font-family="Verdana" font-size="14" lengthAdjust="spacing" textLength="4.4502" x="919.4497" y="485.0173">&#160;</text><text fill="#000000" font-family="Verdana" font-size="14" lengthAdjust="spacing" textLength="28.3008" x="923.8999" y="485.0173">SSH</text><text fill="#000000" font-family="Verdana" font-size="14" lengthAdjust="spacing" textLength="4.4502" x="952.2007" y="485.0173">&#160;</text><text fill="#000000" font-family="Verdana" font-size="14" lengthAdjust="spacing" textLength="42.8135" x="956.6509" y="485.0173">target</text><text fill="#000000" font-family="Verdana" font-size="14" lengthAdjust="spacing" textLength="74.9697" x="844.48" y="501.3142">configured</text><text fill="#000000" font-family="Verdana" font-size="14" lengthAdjust="spacing" textLength="4.4502" x="919.4497" y="501.3142">&#160;</text><text fill="#000000" font-family="Verdana" font-size="14" lengthAdjust="spacing" textLength="30.2217" x="923.8999" y="501.3142">host</text><text fill="#000000" font-family="Verdana" font-size="14" lengthAdjust="spacing" textLength="4.4502" x="954.1216" y="501.3142">&#160;</text><text fill="#000000" font-family="Verdana" font-size="14" lengthAdjust="spacing" textLength="31.8281" x="958.5718" y="501.3142">path</text></g><!--entity ai--><g class="entity" data-qualified-name="ai" data-source-line="8" id="ent0004"><polygon fill="#A9DFBF" points="801.55,241.7253,811.55,231.7253,1052.4045,231.7253,1052.4045,300.6159,1042.4045,310.6159,801.55,310.6159,801.55,241.7253" style="stroke:#000000;stroke-width:1;stroke-linejoin:miter;stroke-miterlimit:10;"/><line style="stroke:#000000;stroke-width:1;" x1="1042.4045" x2="1052.4045" y1="241.7253" y2="231.7253"/><line style="stroke:#000000;stroke-width:1;" x1="801.55" x2="1042.4045" y1="241.7253" y2="241.7253"/><line style="stroke:#000000;stroke-width:1;" x1="1042.4045" x2="1042.4045" y1="241.7253" y2="310.6159"/><text fill="#000000" font-family="Verdana" font-size="14" lengthAdjust="spacing" textLength="13.7061" x="816.55" y="264.7204">AI</text><text fill="#000000" font-family="Verdana" font-size="14" lengthAdjust="spacing" textLength="4.4502" x="830.2561" y="264.7204">&#160;</text><text fill="#000000" font-family="Verdana" font-size="14" lengthAdjust="spacing" textLength="31.5342" x="834.7063" y="264.7204">data</text><text fill="#000000" font-family="Verdana" font-size="14" lengthAdjust="spacing" textLength="4.4502" x="866.2404" y="264.7204">&#160;</text><text fill="#000000" font-family="Verdana" font-size="14" lengthAdjust="spacing" textLength="38.8418" x="870.6906" y="264.7204">plane</text><text fill="#000000" font-family="Verdana" font-size="14" lengthAdjust="spacing" textLength="56.7383" x="816.55" y="281.0173">optional</text><text fill="#000000" font-family="Verdana" font-size="14" lengthAdjust="spacing" textLength="4.4502" x="873.2883" y="281.0173">&#160;</text><text fill="#000000" font-family="Verdana" font-size="14" lengthAdjust="spacing" textLength="28.3008" x="877.7385" y="281.0173">SSH</text><text fill="#000000" font-family="Verdana" font-size="14" lengthAdjust="spacing" textLength="4.4502" x="906.0393" y="281.0173">&#160;</text><text fill="#000000" font-family="Verdana" font-size="14" lengthAdjust="spacing" textLength="42.8135" x="910.4895" y="281.0173">target</text><text fill="#000000" font-family="Verdana" font-size="14" lengthAdjust="spacing" textLength="28.8887" x="816.55" y="297.3142">own</text><text fill="#000000" font-family="Verdana" font-size="14" lengthAdjust="spacing" textLength="4.4502" x="845.4387" y="297.3142">&#160;</text><text fill="#000000" font-family="Verdana" font-size="14" lengthAdjust="spacing" textLength="90.3848" x="849.8889" y="297.3142">known_hosts</text><text fill="#000000" font-family="Verdana" font-size="14" lengthAdjust="spacing" textLength="4.4502" x="940.2736" y="297.3142">&#160;</text><text fill="#000000" font-family="Verdana" font-size="14" lengthAdjust="spacing" textLength="11.7305" x="944.7238" y="297.3142">+</text><text fill="#000000" font-family="Verdana" font-size="14" lengthAdjust="spacing" textLength="4.4502" x="956.4543" y="297.3142">&#160;</text><text fill="#000000" font-family="Verdana" font-size="14" lengthAdjust="spacing" textLength="30.2217" x="960.9045" y="297.3142">host</text><text fill="#000000" font-family="Verdana" font-size="14" lengthAdjust="spacing" textLength="4.4502" x="991.1262" y="297.3142">&#160;</text><text fill="#000000" font-family="Verdana" font-size="14" lengthAdjust="spacing" textLength="31.8281" x="995.5764" y="297.3142">path</text></g><!--entity bundle--><g class="entity" data-qualified-name="bundle" data-source-line="9" id="ent0005"><rect fill="#FAD7A0" height="62.5938" rx="2.5" ry="2.5" style="stroke:#000000;stroke-width:1;" width="264.7314" x="794.61" y="58.8753"/><rect fill="#FAD7A0" height="10" style="stroke:#000000;stroke-width:1;" width="15" x="1039.3414" y="63.8753"/><rect fill="#FAD7A0" height="2" style="stroke:#000000;stroke-width:1;" width="4" x="1037.3414" y="65.8753"/><rect fill="#FAD7A0" height="2" style="stroke:#000000;stroke-width:1;" width="4" x="1037.3414" y="69.8753"/><text fill="#000000" font-family="Verdana" font-size="14" lengthAdjust="spacing" textLength="169.1006" x="809.61" y="91.8704">build_backup_bundle.py</text><text fill="#000000" font-family="Verdana" font-size="14" lengthAdjust="spacing" textLength="224.7314" x="809.61" y="108.1673">local tar.gz + SHA-256 manifest</text></g><!--entity uploader--><g class="entity" data-qualified-name="uploader" data-source-line="10" id="ent0006"><rect fill="#FAD7A0" height="62.5938" rx="2.5" ry="2.5" style="stroke:#000000;stroke-width:1;" width="228.2344" x="1342.15" y="58.8753"/><rect fill="#FAD7A0" height="10" style="stroke:#000000;stroke-width:1;" width="15" x="1550.3844" y="63.8753"/><rect fill="#FAD7A0" height="2" style="stroke:#000000;stroke-width:1;" width="4" x="1548.3844" y="65.8753"/><rect fill="#FAD7A0" height="2" style="stroke:#000000;stroke-width:1;" width="4" x="1548.3844" y="69.8753"/><text fill="#000000" font-family="Verdana" font-size="14" lengthAdjust="spacing" textLength="148.9961" x="1357.15" y="91.8704">upload_backup_r2.py</text><text fill="#000000" font-family="Verdana" font-size="14" lengthAdjust="spacing" textLength="188.2344" x="1357.15" y="108.1673">AES-256-GCM + R2 upload</text></g><!--entity r2--><g class="entity" data-qualified-name="r2" data-source-line="11" id="ent0007"><path d="M1782.8752,67.6401 C1786.9102,61.4779 1793.9382,62.1047 1797.4687,68.2389 C1800.7945,62.58 1806.1897,63.104 1808.9751,68.7871 C1812.2701,62.1049 1818.7296,62.2597 1822.49,68.2924 C1824.8552,62.2405 1829.9758,60.7325 1834.1993,66.4423 C1838.0862,58.5893 1845.3091,60.6226 1848.9246,66.7286 C1852.4695,60.5471 1858.3362,61.142 1861.2332,67.3712 C1864.2396,61.3873 1870.0471,60.1524 1873.9549,66.4364 C1877.3594,61.365 1882.985,60.9493 1886.2445,66.6025 C1890.7865,60.5332 1895.7254,59.5921 1899.8718,67.0023 C1903.708,61.4807 1910.3071,61.1812 1913.5799,67.6466 C1917.499,60.8688 1922.0442,61.2268 1927.0734,66.3926 C1931.0469,60.3887 1936.4038,62.2545 1939.26,67.5932 C1944.3321,62.6403 1948.4469,62.3598 1952.4186,68.8578 C1955.2435,62.8248 1960.1058,62.8733 1963.6887,68.0991 C1977.888,71.4271 1980.7689,80.0094 1971.3955,91.2012 C1979.3218,101.9623 1977.9115,109.2234 1965.2811,114.6167 C1960.7039,120.9 1956.5963,121.1011 1951.8983,114.7445 C1949.0659,120.6552 1944.164,120.97 1939.988,116.2497 C1936.6188,122.1367 1930.9512,123.5288 1926.4172,117.5861 C1921.45,124.9875 1917.0744,124.2425 1912.1543,117.5384 C1908.8779,125.0691 1904.548,124.0118 1899.4925,119.3926 C1896.7701,124.1747 1891.3308,124.7521 1888.179,119.8967 C1884.2732,127.0169 1878.6741,128.0876 1872.9855,121.938 C1867.8054,127.1167 1863.5367,126.786 1860.5806,119.6904 C1856.853,126.5677 1852.2252,125.343 1847.7788,120.4738 C1843.8546,125.5648 1838.4343,124.7295 1835.8002,119.0402 C1831.5249,125.6538 1824.9864,126.1093 1821.2948,118.4472 C1817.4452,122.6102 1812.6284,122.2423 1810.0793,116.9109 C1805.9831,122.0033 1799.3026,122.7564 1796.519,115.4727 C1792.5182,121.3356 1786.5545,120.6844 1784.1714,113.894 C1773.0931,109.0915 1769.1597,100.6525 1779.0782,91.1483 C1769.3242,82.154 1771.3232,73.193 1782.8752,67.6401" fill="#F9E79F" style="stroke:#000000;stroke-width:1;"/><text fill="#000000" font-family="Verdana" font-size="14" lengthAdjust="spacing" textLength="94.8418" x="1789.39" y="86.8704">Cloudflare R2</text><text fill="#000000" font-family="Verdana" font-size="14" lengthAdjust="spacing" textLength="167.0703" x="1789.39" y="103.1673">remote disaster archive</text></g><!--entity db--><g class="entity" data-qualified-name="db" data-source-line="12" id="ent0008"><path d="M348.21,69.3753 C348.21,59.3753 415.2115,59.3753 415.2115,59.3753 C415.2115,59.3753 482.2129,59.3753 482.2129,69.3753 L482.2129,110.969 C482.2129,120.969 415.2115,120.969 415.2115,120.969 C415.2115,120.969 348.21,120.969 348.21,110.969 L348.21,69.3753" fill="#D3D3D3" style="stroke:#000000;stroke-width:1;"/><path d="M348.21,69.3753 C348.21,79.3753 415.2115,79.3753 415.2115,79.3753 C415.2115,79.3753 482.2129,79.3753 482.2129,69.3753" fill="none" style="stroke:#000000;stroke-width:1;"/><text fill="#000000" font-family="Verdana" font-size="14" lengthAdjust="spacing" textLength="114.0029" x="358.21" y="96.3704">SQLite snapshot</text><text fill="#000000" font-family="Verdana" font-size="14" lengthAdjust="spacing" textLength="61.0654" x="358.21" y="112.6673">panel.db</text></g><g class="entity" data-qualified-name="GMN16" data-source-line="23" id="ent0017"><path d="M728.8,549.3453 L728.8,635.0094 L1125.156,635.0094 L1125.156,559.3453 L1115.156,549.3453 L728.8,549.3453" fill="#FFFFFF" style="stroke:#000000;stroke-width:1;"/><path d="M1115.156,549.3453 L1115.156,559.3453 L1125.156,559.3453 L1115.156,549.3453" fill="#FFFFFF" style="stroke:#000000;stroke-width:1;"/><text fill="#000000" font-family="Verdana" font-size="13" lengthAdjust="spacing" textLength="181.8159" x="734.8" y="566.4122">StrictHostKeyChecking=yes</text><text fill="#000000" font-family="Verdana" font-size="13" lengthAdjust="spacing" textLength="170.0664" x="734.8" y="581.545">PubkeyAuthentication=no</text><text fill="#000000" font-family="Verdana" font-size="13" lengthAdjust="spacing" textLength="375.356" x="734.8" y="596.6778">PreferredAuthentications=password,keyboard-interactive</text><text fill="#000000" font-family="Verdana" font-size="13" lengthAdjust="spacing" textLength="194.5938" x="734.8" y="611.8106">UserKnownHostsFile per node</text><text fill="#000000" font-family="Verdana" font-size="13" lengthAdjust="spacing" textLength="167.229" x="734.8" y="626.9434">No remote writes/restarts</text></g><g class="entity" data-qualified-name="GMN19" data-source-line="31" id="ent0020"><path d="M791.33,345.4753 L791.33,400.8737 A0,0 0 0 0 791.33,400.8737 L1062.6181,400.8737 A0,0 0 0 0 1062.6181,400.8737 L1062.6181,355.4753 L1052.6181,345.4753 L930.98,345.4753 L926.98,310.8353 L922.98,345.4753 L791.33,345.4753 A0,0 0 0 0 791.33,345.4753" fill="#FFFFFF" style="stroke:#000000;stroke-width:1;"/><path d="M1052.6181,345.4753 L1052.6181,355.4753 L1062.6181,355.4753 L1052.6181,345.4753" fill="#FFFFFF" style="stroke:#000000;stroke-width:1;"/><text fill="#000000" font-family="Verdana" font-size="13" lengthAdjust="spacing" textLength="244.1499" x="797.33" y="362.5422">Without a remote target the AI role is</text><text fill="#000000" font-family="Verdana" font-size="13" lengthAdjust="spacing" textLength="250.2881" x="797.33" y="377.675">skipped and the control-plane runtime</text><text fill="#000000" font-family="Verdana" font-size="13" lengthAdjust="spacing" textLength="248.2441" x="797.33" y="392.8078">directory supplies config-ai-node.json.</text></g><g class="entity" data-qualified-name="GMN22" data-source-line="37" id="ent0023"><path d="M796.64,156.0453 L796.64,196.3109 A0,0 0 0 0 796.64,196.3109 L1057.3085,196.3109 A0,0 0 0 0 1057.3085,196.3109 L1057.3085,166.0453 L1047.3085,156.0453 L930.98,156.0453 L926.98,121.9053 L922.98,156.0453 L796.64,156.0453 A0,0 0 0 0 796.64,156.0453" fill="#FFFFFF" style="stroke:#000000;stroke-width:1;"/><path d="M1047.3085,156.0453 L1047.3085,166.0453 L1057.3085,166.0453 L1047.3085,156.0453" fill="#FFFFFF" style="stroke:#000000;stroke-width:1;"/><text fill="#000000" font-family="Verdana" font-size="13" lengthAdjust="spacing" textLength="205.8672" x="802.64" y="173.1122">Recovery is manual and offline;</text><text fill="#000000" font-family="Verdana" font-size="13" lengthAdjust="spacing" textLength="239.6685" x="802.64" y="188.245">R2 is not a fast-failover dependency.</text></g><!--link control to collector--><g class="link" data-entity-1="ent0001" data-entity-2="ent0002" data-link-type="dependency" data-source-line="14" id="lnk9"><path d="M137.88,424.1753 C184.06,424.1753 243.32,424.1753 298.25,424.1753" fill="none" id="control-to-collector" style="stroke:#000000;stroke-width:1;"/><polygon fill="#000000" points="303.25,424.1753,294.25,420.1753,298.25,424.1753,294.25,428.1753,303.25,424.1753" style="stroke:#000000;stroke-width:1;stroke-linejoin:miter;stroke-miterlimit:10;"/><text fill="#000000" font-family="Verdana" font-size="13" lengthAdjust="spacing" textLength="104.2412" x="168.63" y="420.2422">scheduled cycle</text></g><!--link collector to normal--><g class="link" data-entity-1="ent0002" data-entity-2="ent0003" data-link-type="dependency" data-source-line="15" id="lnk10"><path d="M527.14,435.2753 C617.2,444.2853 737.9748,456.3677 824.0548,464.9777" fill="none" id="collector-to-normal" style="stroke:#000000;stroke-width:1;"/><polygon fill="#000000" points="829.03,465.4753,820.4728,460.5994,824.0548,464.9777,819.6766,468.5597,829.03,465.4753" style="stroke:#000000;stroke-width:1;stroke-linejoin:miter;stroke-miterlimit:10;"/><text fill="#000000" font-family="Verdana" font-size="13" lengthAdjust="spacing" textLength="26.2793" x="614.894" y="420.3122">SSH</text><text fill="#000000" font-family="Verdana" font-size="13" lengthAdjust="spacing" textLength="140.4673" x="557.8" y="435.445">stat/read regular files</text></g><!--link collector to ai--><g class="link" data-entity-1="ent0002" data-entity-2="ent0004" data-link-type="dependency" data-source-line="16" id="lnk11"><path d="M518.15,392.4053 C579.18,373.4953 658.34,349.1753 728.8,328.1753 C752.19,321.2053 772.378,315.2684 796.438,308.2884" fill="none" id="collector-to-ai" style="stroke:#000000;stroke-width:1;stroke-dasharray:7,7;"/><polygon fill="#000000" points="801.24,306.8953,791.4819,305.5613,796.438,308.2884,793.7109,313.2445,801.24,306.8953" style="stroke:#000000;stroke-width:1;stroke-linejoin:miter;stroke-miterlimit:10;"/><text fill="#000000" font-family="Verdana" font-size="13" lengthAdjust="spacing" textLength="133.4087" x="561.3293" y="319.4222">SSH when target set</text><text fill="#000000" font-family="Verdana" font-size="13" lengthAdjust="spacing" textLength="140.4673" x="557.8" y="334.555">stat/read regular files</text></g><!--link collector to bundle--><g class="link" data-entity-1="ent0002" data-entity-2="ent0005" data-link-type="dependency" data-source-line="17" id="lnk12"><path d="M441.31,392.4153 C490.07,332.9353 603.86,204.7953 728.8,138.1753 C749.01,127.3953 766.8571,120.3855 789.4171,113.8555" fill="none" id="collector-to-bundle" style="stroke:#000000;stroke-width:1;"/><polygon fill="#000000" points="794.22,112.4653,784.4627,111.1253,789.4171,113.8555,786.687,118.8099,794.22,112.4653" style="stroke:#000000;stroke-width:1;stroke-linejoin:miter;stroke-miterlimit:10;"/><text fill="#000000" font-family="Verdana" font-size="13" lengthAdjust="spacing" textLength="92.0664" x="581.9819" y="142.4322">staged nodes/</text><text fill="#000000" font-family="Verdana" font-size="13" lengthAdjust="spacing" textLength="123.4302" x="566.3" y="157.565">collection manifest</text></g><!--link db to bundle--><g class="link" data-entity-1="ent0008" data-entity-2="ent0005" data-link-type="dependency" data-source-line="18" id="lnk13"><path d="M482.59,90.1753 C561.33,90.1753 689.47,90.1753 789.35,90.1753" fill="none" id="db-to-bundle" style="stroke:#000000;stroke-width:1;"/><polygon fill="#000000" points="794.35,90.1753,785.35,86.1753,789.35,90.1753,785.35,94.1753,794.35,90.1753" style="stroke:#000000;stroke-width:1;stroke-linejoin:miter;stroke-miterlimit:10;"/><text fill="#000000" font-family="Verdana" font-size="13" lengthAdjust="spacing" textLength="64.6509" x="595.8" y="86.2422">database/</text></g><!--link bundle to uploader--><g class="link" data-entity-1="ent0005" data-entity-2="ent0006" data-link-type="dependency" data-source-line="19" id="lnk14"><path d="M1059.67,90.1753 C1146.46,90.1753 1253.94,90.1753 1336.77,90.1753" fill="none" id="bundle-to-uploader" style="stroke:#000000;stroke-width:1;"/><polygon fill="#000000" points="1341.77,90.1753,1332.77,86.1753,1336.77,90.1753,1332.77,94.1753,1341.77,90.1753" style="stroke:#000000;stroke-width:1;stroke-linejoin:miter;stroke-miterlimit:10;"/><text fill="#000000" font-family="Verdana" font-size="13" lengthAdjust="spacing" textLength="155.7271" x="1156.15" y="86.2422">encrypted input archive</text></g><!--link uploader to r2--><g class="link" data-entity-1="ent0006" data-entity-2="ent0007" data-link-type="dependency" data-source-line="20" id="lnk15"><path d="M1570.85,90.1753 C1634.51,90.1753 1708.11,90.1753 1769.03,90.1753" fill="none" id="uploader-to-r2" style="stroke:#000000;stroke-width:1;"/><polygon fill="#000000" points="1774.03,90.1753,1765.03,86.1753,1769.03,90.1753,1765.03,94.1753,1774.03,90.1753" style="stroke:#000000;stroke-width:1;stroke-linejoin:miter;stroke-miterlimit:10;"/><text fill="#000000" font-family="Verdana" font-size="13" lengthAdjust="spacing" textLength="118.1553" x="1613.8092" y="71.2422">encrypted archive</text><text fill="#000000" font-family="Verdana" font-size="13" lengthAdjust="spacing" textLength="142.9937" x="1601.39" y="86.375">object key + SHA-256</text></g><!--link collector to GMN16--><g class="link" data-entity-1="ent0002" data-entity-2="ent0017" data-link-type="association" data-source-line="23" id="lnk18"><path d="M505.18,455.9053 C567.57,477.9053 653.03,507.5653 728.8,532.1753 C745.81,537.6953 763.7,543.3553 781.48,548.8853" fill="none" id="collector-GMN16" style="stroke:#000000;stroke-width:1;stroke-dasharray:7,7;"/></g><?plantuml-src ZLHjRzCm4FxkNt6q7o4T5B5fGvkKhIj3WmbM8RvKgfpaqfYwjcKxgyAlvoulVK52GfNQD7Vt-EvvdlEhME4MmMcfZ8WgQeHdb4LYZMx0uzP616CBXDoQKgrhBwEo1ZAPRsedD9OHeWMlrbM4GddCEIm4FqYp9hJHdJNHMyr765oQhX82-XULumXaOEWsOvpUpyxdxqHkjyuQD156kTMQe5PT9wkkUEAQfLai7gY_eTC-p_eUiFy7uzd5xUn-AjeHHa_MRwM6GaOvj3ECXGKmOfH-ZV7aTML312TZrKAR3cASNixcj_CUD_ryWcaTaq1PnuXsPs33toi63F3wBs2fzg17ysUrqaK_zYghJQ6ndLxRdF09UxB-JL2BXpIPVZY7hJIgn11Rn2uTnlDqTf6-FKQjdRPo3-kdBMHwls2CvDFTLq9ydaANrK9rZ-WFODhM1MdBFwMMdbmpNPhUBuKACaJAbZwlr4idifzIyUNznULSC5UP34JSuliNHGN1I1SgIomv8b1FYgmjAJBIxpr_X1WyaYGtH_9UGSWhB6fDEkLDhb4SOfpPgtN5IYnDY3AUiMV8EEkQkePIQGn7DPF93GlHviEkGjFBHtQD_rFFP_QqKsjHhgaljaWuOqkrMRmzWqo29Zmf6PWv4_qhZkx9lm8qkMzS95HbN1q7WiK-XVE9wUFCFeSScFsYys63pS4nWXnC0dJxQyi3jG9W4RtAumEvz16RkmhpZJBhwuO61lXMPuIJrdHxcAZozbAuDfOZ7alqj3YdmN3jP0WxwuitL9XPwOj46JA994fe0e0VT2KyyeBmYM5Ep8AZYPW-YZxPuJRQUR9C81s8Nn-3GCCSH-n7oMoCTikpI4LrFrMiB3CrbFU2Kcz0QqkMGb0yKTWevvWkWkDWRxYatMdmDKsovKQwIyxw1aBjd5OO-ginaIhXPYU_WZMJVxVLAKj8pvZR5oGW5TWHDHcL3xTbgPN1ZvmnvHZLK_ibhLHIIgMv1WfqT029t1nE-WC0?></g></svg>