<svg xmlns="http://www.w3.org/2000/svg" xmlns:xlink="http://www.w3.org/1999/xlink" contentStyleType="text/css" data-diagram-type="DESCRIPTION" height="1001px" preserveAspectRatio="none" style="width:2787px;height:1001px;background:#FFFFFF;" version="1.1" viewBox="0 0 2787 1001" width="2787px" zoomAndPan="magnify"><?plantuml 1.2026.6?><defs/><g><g class="title" data-source-line="12"><text fill="#000000" font-family="Arial" font-size="22" font-weight="700" lengthAdjust="spacing" textLength="560.624" x="1112.6668" y="35.4209">Xray Routing Panel - Production Architecture</text></g><!--cluster control--><g class="cluster" data-qualified-name="control" data-source-line="17" id="ent0003"><polygon fill="#EFF6FF" points="345.79,131.7394,355.79,121.7394,2200.31,121.7394,2200.31,438.7394,2190.31,448.7394,345.79,448.7394,345.79,131.7394" style="stroke:#000000;stroke-width:1;stroke-linejoin:miter;stroke-miterlimit:10;"/><line style="stroke:#000000;stroke-width:1;" x1="2190.31" x2="2200.31" y1="131.7394" y2="121.7394"/><line style="stroke:#000000;stroke-width:1;" x1="345.79" x2="2190.31" y1="131.7394" y2="131.7394"/><line style="stroke:#000000;stroke-width:1;" x1="2190.31" x2="2190.31" y1="131.7394" y2="448.7394"/><text fill="#000000" font-family="Arial" font-size="14" font-weight="700" lengthAdjust="spacing" textLength="106.7158" x="1215.6921" y="147.7345">Control Plane</text></g><!--cluster normal--><g class="cluster" data-qualified-name="normal" data-source-line="29" id="ent0013"><polygon fill="#ECFDF5" points="970.3,755.7394,980.3,745.7394,1787.75,745.7394,1787.75,966.7394,1777.75,976.7394,970.3,976.7394,970.3,755.7394" style="stroke:#000000;stroke-width:1;stroke-linejoin:miter;stroke-miterlimit:10;"/><line style="stroke:#000000;stroke-width:1;" x1="1777.75" x2="1787.75" y1="755.7394" y2="745.7394"/><line style="stroke:#000000;stroke-width:1;" x1="970.3" x2="1777.75" y1="755.7394" y2="755.7394"/><line style="stroke:#000000;stroke-width:1;" x1="1777.75" x2="1777.75" y1="755.7394" y2="976.7394"/><text fill="#000000" font-family="Arial" font-size="14" font-weight="700" lengthAdjust="spacing" textLength="147.998" x="1301.026" y="771.7345">Normal Data Plane</text><text fill="#000000" font-family="Arial" font-size="14" font-weight="700" lengthAdjust="spacing" textLength="187.209" x="1281.4205" y="788.0314">Tailscale 100.65.108.93</text></g><!--cluster aiPool--><g class="cluster" data-qualified-name="aiPool" data-source-line="35" id="ent0017"><polygon fill="#FFF7ED" points="1974.51,490.7394,1984.51,480.7394,2637.71,480.7394,2637.71,770.7394,2627.71,780.7394,1974.51,780.7394,1974.51,490.7394" style="stroke:#000000;stroke-width:1;stroke-linejoin:miter;stroke-miterlimit:10;"/><line style="stroke:#000000;stroke-width:1;" x1="2627.71" x2="2637.71" y1="490.7394" y2="480.7394"/><line style="stroke:#000000;stroke-width:1;" x1="1974.51" x2="2627.71" y1="490.7394" y2="490.7394"/><line style="stroke:#000000;stroke-width:1;" x1="2627.71" x2="2627.71" y1="490.7394" y2="780.7394"/><text fill="#000000" font-family="Arial" font-size="14" font-weight="700" lengthAdjust="spacing" textLength="136.9375" x="2233.6413" y="506.7345">AI Upstream Pool</text></g><!--entity panel--><g class="entity" data-qualified-name="control.panel" data-source-line="18" id="ent0004"><rect fill="#DBEAFE" height="52.5938" rx="5" ry="5" style="stroke:#000000;stroke-width:1;" width="117.1523" x="401.18" y="335.4394"/><text fill="#000000" font-family="Arial" font-size="14" lengthAdjust="spacing" textLength="97.1523" x="411.18" y="358.4345">Routing Panel</text><text fill="#000000" font-family="Arial" font-size="14" lengthAdjust="spacing" textLength="83.6172" x="417.9476" y="374.7314">Flask + Vue</text></g><!--entity paneldb--><g class="entity" data-qualified-name="control.paneldb" data-source-line="19" id="ent0005"><path d="M1601.06,337.9394 C1601.06,327.9394 1692.8452,327.9394 1692.8452,327.9394 C1692.8452,327.9394 1784.6303,327.9394 1784.6303,337.9394 L1784.6303,379.5331 C1784.6303,389.5331 1692.8452,389.5331 1692.8452,389.5331 C1692.8452,389.5331 1601.06,389.5331 1601.06,379.5331 L1601.06,337.9394" fill="#E5E7EB" style="stroke:#000000;stroke-width:1;"/><path d="M1601.06,337.9394 C1601.06,347.9394 1692.8452,347.9394 1692.8452,347.9394 C1692.8452,347.9394 1784.6303,347.9394 1784.6303,337.9394" fill="none" style="stroke:#000000;stroke-width:1;"/><text fill="#000000" font-family="Arial" font-size="14" lengthAdjust="spacing" textLength="61.0654" x="1662.3124" y="364.9345">panel.db</text><text fill="#000000" font-family="Arial" font-size="14" lengthAdjust="spacing" textLength="163.5703" x="1611.06" y="381.2314">configuration and state</text></g><!--entity aiController--><g class="entity" data-qualified-name="control.aiController" data-source-line="20" id="ent0006"><rect fill="#CFFAFE" height="52.5938" rx="5" ry="5" style="stroke:#000000;stroke-width:1;" width="254.001" x="970.17" y="364.4394"/><text fill="#000000" font-family="Arial" font-size="14" lengthAdjust="spacing" textLength="146.084" x="1024.1285" y="387.4345">AI Routing Controller</text><text fill="#000000" font-family="Arial" font-size="14" lengthAdjust="spacing" textLength="234.001" x="980.17" y="403.7314">manual mode + scheduled probe</text></g><!--entity backup--><g class="entity" data-qualified-name="control.backup" data-source-line="21" id="ent0007"><rect fill="#FEF3C7" height="52.5938" rx="5" ry="5" style="stroke:#000000;stroke-width:1;" width="172.0518" x="1011.14" y="240.4394"/><text fill="#000000" font-family="Arial" font-size="14" lengthAdjust="spacing" textLength="152.0518" x="1021.14" y="263.4345">Optional Backup Xray</text><text fill="#000000" font-family="Arial" font-size="14" lengthAdjust="spacing" textLength="98.6768" x="1047.8275" y="279.7314">relay or direct</text></g><!--entity prometheus--><g class="entity" data-qualified-name="control.prometheus" data-source-line="22" id="ent0008"><rect fill="#FEE2E2" height="36.2969" rx="5" ry="5" style="stroke:#000000;stroke-width:1;" width="104.1572" x="1045.09" y="169.5894"/><text fill="#000000" font-family="Arial" font-size="14" lengthAdjust="spacing" textLength="84.1572" x="1055.09" y="192.5845">Prometheus</text></g><!--entity grafana--><g class="entity" data-qualified-name="control.grafana" data-source-line="23" id="ent0009"><rect fill="#F3E8FF" height="36.2969" rx="5" ry="5" style="stroke:#000000;stroke-width:1;" width="76.1436" x="1654.77" y="169.5894"/><text fill="#000000" font-family="Arial" font-size="14" lengthAdjust="spacing" textLength="56.1436" x="1664.77" y="192.5845">Grafana</text></g><!--entity reporter--><g class="entity" data-qualified-name="control.reporter" data-source-line="24" id="ent0010"><rect fill="#DCFCE7" height="52.5938" rx="5" ry="5" style="stroke:#000000;stroke-width:1;" width="191.3428" x="1597.17" y="240.4394"/><text fill="#000000" font-family="Arial" font-size="14" lengthAdjust="spacing" textLength="101.2813" x="1642.2008" y="263.4345">Daily Reporter</text><text fill="#000000" font-family="Arial" font-size="14" lengthAdjust="spacing" textLength="171.3428" x="1607.17" y="279.7314">rules-only shadow mode</text></g><!--entity reports--><g class="entity" data-qualified-name="control.reports" data-source-line="25" id="ent0011"><path d="M2005.25,254.0894 C2005.25,244.0894 2090.7803,244.0894 2090.7803,244.0894 C2090.7803,244.0894 2176.3105,244.0894 2176.3105,254.0894 L2176.3105,279.3863 C2176.3105,289.3863 2090.7803,289.3863 2090.7803,289.3863 C2090.7803,289.3863 2005.25,289.3863 2005.25,279.3863 L2005.25,254.0894" fill="#E5E7EB" style="stroke:#000000;stroke-width:1;"/><path d="M2005.25,254.0894 C2005.25,264.0894 2090.7803,264.0894 2090.7803,264.0894 C2090.7803,264.0894 2176.3105,264.0894 2176.3105,254.0894" fill="none" style="stroke:#000000;stroke-width:1;"/><text fill="#000000" font-family="Arial" font-size="14" lengthAdjust="spacing" textLength="151.0605" x="2015.25" y="281.0845">Report audit and files</text></g><!--entity tunnel--><g class="entity" data-qualified-name="control.tunnel" data-source-line="26" id="ent0012"><rect fill="#E0E7FF" height="52.5938" rx="5" ry="5" style="stroke:#000000;stroke-width:1;" width="179.9336" x="369.79" y="207.4394"/><text fill="#000000" font-family="Arial" font-size="14" lengthAdjust="spacing" textLength="159.9336" x="379.79" y="230.4345">AI exporter SSH tunnel</text><text fill="#000000" font-family="Arial" font-size="14" lengthAdjust="spacing" textLength="97.2412" x="411.1362" y="246.7314">loopback only</text></g><!--entity normalXray--><g class="entity" data-qualified-name="normal.normalXray" data-source-line="30" id="ent0014"><rect fill="#D1FAE5" height="52.5938" rx="5" ry="5" style="stroke:#000000;stroke-width:1;" width="141.8096" x="1621.94" y="829.4394"/><text fill="#000000" font-family="Arial" font-size="14" lengthAdjust="spacing" textLength="32.2109" x="1676.7393" y="852.4345">Xray</text><text fill="#000000" font-family="Arial" font-size="14" lengthAdjust="spacing" textLength="121.8096" x="1631.94" y="868.7314">VLESS + REALITY</text></g><!--entity dynamicRoute--><g class="entity" data-qualified-name="normal.dynamicRoute" data-source-line="31" id="ent0015"><rect fill="#CCFBF1" height="52.5938" rx="5" ry="5" style="stroke:#000000;stroke-width:1;" width="205.7393" x="994.3" y="900.4394"/><text fill="#000000" font-family="Arial" font-size="14" lengthAdjust="spacing" textLength="185.7393" x="1004.3" y="923.4345">Dynamic routing fragment</text><text fill="#000000" font-family="Arial" font-size="14" lengthAdjust="spacing" textLength="59.2471" x="1067.5461" y="939.7314">ai_proxy</text></g><!--entity normalMetrics--><g class="entity" data-qualified-name="normal.normalMetrics" data-source-line="32" id="ent0016"><rect fill="#F3F4F6" height="36.2969" rx="5" ry="5" style="stroke:#000000;stroke-width:1;" width="200.5371" x="996.9" y="829.5894"/><text fill="#000000" font-family="Arial" font-size="14" lengthAdjust="spacing" textLength="180.5371" x="1006.9" y="852.5845">node-exporter + cAdvisor</text></g><!--entity primaryAi--><g class="entity" data-qualified-name="aiPool.primaryAi" data-source-line="36" id="ent0018"><rect fill="#FED7AA" height="52.5938" rx="5" ry="5" style="stroke:#000000;stroke-width:1;" width="139.2051" x="2021.18" y="712.4394"/><text fill="#000000" font-family="Arial" font-size="14" lengthAdjust="spacing" textLength="72.502" x="2054.5316" y="735.4345">Primary AI</text><text fill="#000000" font-family="Arial" font-size="14" lengthAdjust="spacing" textLength="119.2051" x="2031.18" y="751.7314">nat.qq.pw:27166</text></g><!--entity backupAi--><g class="entity" data-qualified-name="aiPool.backupAi" data-source-line="37" id="ent0019"><rect fill="#FED7AA" height="68.8906" rx="5" ry="5" style="stroke:#000000;stroke-width:1;" width="199.457" x="1991.05" y="520.2894"/><text fill="#000000" font-family="Arial" font-size="14" lengthAdjust="spacing" textLength="69.9043" x="2055.8264" y="543.2845">Backup AI</text><text fill="#000000" font-family="Arial" font-size="14" lengthAdjust="spacing" textLength="179.457" x="2001.05" y="559.5814">local Docker xray-ai-node</text><text fill="#000000" font-family="Arial" font-size="14" lengthAdjust="spacing" textLength="133.8613" x="2023.8479" y="575.8782">100.87.76.6:27166</text></g><!--entity aiEgress--><g class="entity" data-qualified-name="aiPool.aiEgress" data-source-line="38" id="ent0020"><rect fill="#FFEDD5" height="52.5938" rx="5" ry="5" style="stroke:#000000;stroke-width:1;" width="145.3984" x="2476.31" y="712.4394"/><text fill="#000000" font-family="Arial" font-size="14" lengthAdjust="spacing" textLength="125.3984" x="2486.31" y="735.4345">Independent Xray</text><text fill="#000000" font-family="Arial" font-size="14" lengthAdjust="spacing" textLength="109.9082" x="2494.0551" y="751.7314">freedom egress</text></g><!--entity aiMetrics--><g class="entity" data-qualified-name="aiPool.aiMetrics" data-source-line="39" id="ent0021"><rect fill="#F3F4F6" height="52.5938" rx="5" ry="5" style="stroke:#000000;stroke-width:1;" width="200.5371" x="1990.51" y="624.4394"/><text fill="#000000" font-family="Arial" font-size="14" lengthAdjust="spacing" textLength="180.5371" x="2000.51" y="647.4345">node-exporter + cAdvisor</text><text fill="#000000" font-family="Arial" font-size="14" lengthAdjust="spacing" textLength="174.1865" x="2003.6853" y="663.7314">when remotely deployed</text></g><!--entity client--><g class="entity" data-qualified-name="client" data-source-line="14" id="ent0001"><ellipse cx="459.7572" cy="659.0894" fill="#FFFFFF" rx="8" ry="8" style="stroke:#000000;stroke-width:1;"/><path d="M459.7572,667.0894 L459.7572,694.0894 M446.7572,675.0894 L472.7572,675.0894 M459.7572,694.0894 L446.7572,709.0894 M459.7572,694.0894 L472.7572,709.0894" fill="none" style="stroke:#000000;stroke-width:1;"/><text fill="#000000" font-family="Arial" font-size="14" lengthAdjust="spacing" textLength="84.3145" x="417.6" y="724.0845">Proxy Client</text></g><!--entity dns--><g class="entity" data-qualified-name="dns" data-source-line="15" id="ent0002"><path d="M1050.51,668.7194 C1052.7289,662.0403 1058.6825,662.8236 1062.2521,667.2974 C1066.5952,660.4781 1070.691,661.6987 1074.8138,667.5164 C1077.9538,662.3809 1082.0672,662.0659 1085.6919,666.9926 C1089.2481,660.0063 1093.9637,660.9125 1098.163,666.3469 C1102.6505,660.7676 1107.0749,662.5835 1109.5767,668.3453 C1114.2197,661.3563 1118.5473,662.9228 1122.8259,668.7228 C1125.8816,664.0269 1131.3488,663.751 1134.435,668.686 C1138.937,663.338 1143.8892,663.7547 1147.6667,669.5466 C1153.656,673.3708 1152.8328,677.7958 1147.2312,681.1864 C1152.6503,684.5498 1153.8213,687.9154 1148.4787,692.4688 C1153.2048,696.3431 1154.5315,700.5025 1148.26,704.1712 C1153.5457,707.9511 1151.4116,712.9955 1146.5084,715.1499 C1143.6878,720.499 1138.4333,722.5802 1134.414,716.4083 C1132.1283,722.843 1126.4474,722.7719 1123.0201,717.5214 C1118.9844,723.1639 1114.2677,721.6844 1111.2247,716.4454 C1108.4121,723.8363 1103.0608,724.5542 1097.6782,719.1707 C1093.3952,725.1272 1088.987,725.0344 1085.6148,718.3046 C1081.5943,722.9712 1076.7148,722.6029 1074.6905,716.3142 C1071.5536,722.7226 1066.4707,722.6209 1062.6388,717.0112 C1058.1074,722.3322 1052.1579,721.5651 1049.0806,715.3083 C1042.8962,712.4613 1042.5881,707.9099 1047.0718,703.281 C1041.3556,701.2051 1040.1722,696.9885 1044.035,692.2706 C1039.1518,687.8642 1040.2094,683.1517 1046.2284,680.8366 C1041.3355,675.4368 1042.8368,669.6789 1050.51,668.7194" fill="#E0F2FE" style="stroke:#000000;stroke-width:1;"/><text fill="#000000" font-family="Arial" font-size="14" lengthAdjust="spacing" textLength="76.2686" x="1059.0361" y="687.4345">Public DNS</text><text fill="#000000" font-family="Arial" font-size="14" lengthAdjust="spacing" textLength="82.6807" x="1055.83" y="703.7314">(Cloudflare)</text></g><!--entity internet--><g class="entity" data-qualified-name="internet" data-source-line="42" id="ent0022"><path d="M2694.4818,764.47 C2697.5775,759.4359 2701.5061,759.1708 2705.3135,763.6606 C2708.4215,757.4887 2712.7658,757.5894 2717.0075,762.4601 C2719.9235,757.1375 2724.1913,756.6601 2727.7713,761.7754 C2731.5198,756.851 2735.3767,755.7503 2739.364,761.5164 C2744.4072,756.253 2748.6382,756.4017 2751.4807,763.648 C2755.5383,758.4805 2760.1961,758.755 2763.8825,764.0865 C2771.2204,766.9259 2772.9577,774.282 2766.6429,779.5574 C2772.4475,785.959 2772.293,791.0427 2764.297,795.4009 C2762.3428,801.5615 2756.809,801.9696 2753.0602,797.2552 C2750.1204,805.5285 2745.6531,806.5705 2739.5292,800.1968 C2738.5968,805.913 2733.9034,808.0959 2729.0154,804.8235 C2724.4173,809.0217 2719.1343,808.4818 2717.1721,801.9217 C2710.6523,806.7572 2707.4272,804.1231 2705.2199,797.4449 C2701.0116,801.9005 2695.9443,801.4321 2693.2727,795.6514 C2683.6147,794.6787 2680.3938,787.4552 2686.9899,779.9702 C2680.8729,770.9879 2683.9657,765.4129 2694.4818,764.47" fill="#F3F4F6" style="stroke:#000000;stroke-width:1;"/><text fill="#000000" font-family="Arial" font-size="14" lengthAdjust="spacing" textLength="55.8359" x="2699.71" y="783.5845">Internet</text></g><!--entity tailnet--><g class="entity" data-qualified-name="tailnet" data-source-line="43" id="ent0023"><path d="M399.6899,772.1986 C402.4363,766.0292 407.2262,766.0052 411.2537,770.8542 C414.749,764.9296 418.6494,764.6533 422.9176,770.0586 C426.5441,764.7162 432.8951,763.7098 436.1768,770.4374 C439.5205,764.2336 444.4305,764.9854 447.7753,770.4362 C451.237,764.4251 457.0939,764.3597 460.3377,770.6587 C464.1334,764.0074 468.6063,762.5552 473.6579,769.421 C477.1938,762.6837 483.1239,764.0103 486.4177,769.6703 C490.5914,764.4904 495.116,764.2029 499.1147,769.875 C503.0016,764.9752 508.8959,765.7462 511.1438,771.6928 C513.5355,765.3251 519.0873,765.172 522.3825,770.8497 C529.7713,773.8433 529.7051,779.9894 523.6908,784.2878 C529.219,787.2371 528.1706,790.4899 524.3908,794.103 C529.4422,799.3479 529.5561,803.316 522.7486,807.0575 C528.1831,810.4357 528.9984,814.7292 522.9966,818.3584 C519.9813,825.0484 516.1216,824.0762 511.583,819.9686 C506.7713,825.5386 501.689,826.6216 497.8837,818.9291 C495.0561,825.2234 488.6845,825.231 484.7441,820.2227 C482.348,826.1011 477.5397,828.1151 472.7628,822.7626 C469.8194,827.6187 464.7246,827.8078 461.5802,822.9949 C457.4885,829.6626 450.9145,828.226 447.7338,822.0153 C443.1008,827.2977 439.2639,826.7355 436.2729,820.3961 C432.2487,827.2307 426.2081,826.9447 422.5219,820.0573 C417.5961,825.6214 413.8979,823.8657 410.8047,818.1531 C407.5571,823.5659 401.9198,824.338 398.3735,818.4826 C391.8348,816.632 390.5144,810.9652 395.9283,806.6456 C389.4088,803.8687 388.545,800.1201 392.6963,794.503 C388.5845,790.1743 387.9934,785.966 394.6207,783.5188 C391.7259,777.787 392.1996,773.2801 399.6899,772.1986" fill="#E0E7FF" style="stroke:#000000;stroke-width:1;"/><text fill="#000000" font-family="Arial" font-size="14" lengthAdjust="spacing" textLength="110.2568" x="404.63" y="790.4345">Tailscale tailnet</text><text fill="#000000" font-family="Arial" font-size="14" lengthAdjust="spacing" textLength="55.2822" x="432.1173" y="806.7314">SSH :22</text></g><g class="entity" data-qualified-name="GMN56" data-source-line="82" id="ent0057"><path d="M275.35,62.6094 L275.35,92.875 A5,5 0 0 0 280.35,97.875 L639.1698,97.875 A5,5 0 0 0 644.1698,92.875 L644.1698,67.6094 L634.1698,57.6094 L280.35,57.6094 A5,5 0 0 0 275.35,62.6094" fill="#FFFFFF" style="stroke:#000000;stroke-width:1;"/><path d="M634.1698,57.6094 L634.1698,65.1094 A2.5,2.5 0 0 0 636.6698,67.6094 L644.1698,67.6094 L634.1698,57.6094" fill="#FFFFFF" style="stroke:#000000;stroke-width:1;"/><text fill="#000000" font-family="Arial" font-size="13" lengthAdjust="spacing" textLength="289.2881" x="310.6159" y="74.6763">User proxy traffic remains on the data plane</text><text fill="#000000" font-family="Arial" font-size="13" lengthAdjust="spacing" textLength="347.8198" x="281.35" y="89.8091">and does not require the control plane to stay online.</text></g><!--link client to dns--><g class="link" data-entity-1="ent0001" data-entity-2="ent0002" data-link-type="dependency" data-source-line="45" id="lnk24"><path d="M502.26,696.8394 C545.12,704.7494 614.02,716.2594 674.17,720.7394 C792.06,729.5294 822.48,731.9494 940.17,720.7394 C973.8,717.5394 1006.0842,711.592 1035.6942,705.152" fill="none" id="client-to-dns" style="stroke:#334155;stroke-width:1.2;"/><polygon fill="#334155" points="1040.58,704.0894,1030.9355,702.0935,1035.6942,705.152,1032.6357,709.9107,1040.58,704.0894" style="stroke:#334155;stroke-width:1.2;stroke-linejoin:miter;stroke-miterlimit:10;"/><text fill="#000000" font-family="Arial" font-size="13" lengthAdjust="spacing" textLength="126.9468" x="744.17" y="716.8063">resolve proxy entry</text></g><!--link dns to normalXray--><g class="link" data-entity-1="ent0002" data-entity-2="ent0014" data-link-type="dependency" data-source-line="46" id="lnk25"><path d="M1153.82,700.1694 C1178.27,706.9094 1205.59,718.3594 1224.17,737.7394 C1253.94,768.7794 1220.13,803.4594 1254.17,829.7394 C1309.75,872.6494 1507.5586,867.5017 1616.5086,861.1217" fill="none" id="dns-to-normalXray" style="stroke:#334155;stroke-width:1.2;"/><polygon fill="#334155" points="1621.5,860.8294,1612.2816,857.3623,1616.5086,861.1217,1612.7492,865.3487,1621.5,860.8294" style="stroke:#334155;stroke-width:1.2;stroke-linejoin:miter;stroke-miterlimit:10;"/><text fill="#000000" font-family="Arial" font-size="13" lengthAdjust="spacing" textLength="93.3296" x="1364.17" y="825.8063">primary traffic</text></g><!--link normalXray to internet--><g class="link" data-entity-1="ent0014" data-entity-2="ent0022" data-link-type="dependency" data-source-line="47" id="lnk26"><path d="M1764,862.9294 C1897.22,875.4394 2195.88,898.0394 2446.31,877.7394 C2539.85,870.1594 2570.14,884.4194 2654.71,843.7394 C2675.03,833.9594 2690.393,820.2782 2703.643,805.9682" fill="none" id="normalXray-to-internet" style="stroke:#334155;stroke-width:1.2;"/><polygon fill="#334155" points="2707.04,802.2994,2697.9903,806.1856,2703.643,805.9682,2703.8604,811.6209,2707.04,802.2994" style="stroke:#334155;stroke-width:1.2;stroke-linejoin:miter;stroke-miterlimit:10;"/><text fill="#000000" font-family="Arial" font-size="13" lengthAdjust="spacing" textLength="84.3032" x="2293.31" y="873.8063">non-AI traffic</text></g><!--link normalXray to internet--><g class="link" data-entity-1="ent0014" data-entity-2="ent0022" data-link-type="dependency" data-source-line="53" id="lnk32"><path d="M1764.02,850.5094 C1962.76,835.6894 2520.3338,794.121 2679.3238,782.271" fill="none" id="normalXray-to-internet-1" style="stroke:#334155;stroke-width:1.2;stroke-dasharray:7,7;"/><polygon fill="#334155" points="2684.31,781.8994,2675.0376,778.5794,2679.3238,782.271,2675.6322,786.5573,2684.31,781.8994" style="stroke:#334155;stroke-width:1.2;stroke-linejoin:miter;stroke-miterlimit:10;"/><text fill="#000000" font-family="Arial" font-size="13" lengthAdjust="spacing" textLength="220.4731" x="2225.31" y="796.0963">local fallback when AI unavailable</text></g><!--link normalXray to primaryAi--><g class="link" data-entity-1="ent0014" data-entity-2="ent0018" data-link-type="dependency" data-source-line="48" id="lnk27"><path d="M1738.37,828.9994 C1761.57,816.0794 1790.81,801.3394 1818.51,791.7394 C1885.39,768.5594 1960.3079,755.1895 2015.9879,747.4295" fill="none" id="normalXray-to-primaryAi" style="stroke:#334155;stroke-width:1.2;"/><polygon fill="#334155" points="2020.94,746.7394,2011.474,744.02,2015.9879,747.4295,2012.5783,751.9434,2020.94,746.7394" style="stroke:#334155;stroke-width:1.2;stroke-linejoin:miter;stroke-miterlimit:10;"/><text fill="#000000" font-family="Arial" font-size="13" lengthAdjust="spacing" textLength="138.2012" x="1819.51" y="753.0363">selected AI upstream</text></g><!--link normalXray to backupAi--><g class="link" data-entity-1="ent0014" data-entity-2="ent0019" data-link-type="dependency" data-source-line="49" id="lnk28"><path d="M1716.43,829.2894 C1760.15,779.5494 1861.32,671.2694 1966.51,606.7394 C1976.51,600.6094 1982.8507,597.0296 1993.8307,591.7696" fill="none" id="normalXray-to-backupAi" style="stroke:#334155;stroke-width:1.2;"/><polygon fill="#334155" points="1998.34,589.6094,1988.4951,589.8903,1993.8307,591.7696,1991.9514,597.1051,1998.34,589.6094" style="stroke:#334155;stroke-width:1.2;stroke-linejoin:miter;stroke-miterlimit:10;"/><text fill="#000000" font-family="Arial" font-size="13" lengthAdjust="spacing" textLength="138.2012" x="1819.51" y="608.0463">selected AI upstream</text></g><!--link primaryAi to aiEgress--><g class="link" data-entity-1="ent0018" data-entity-2="ent0020" data-link-type="dependency" data-source-line="50" id="lnk29"><path d="M2160.58,738.7394 C2245.59,738.7394 2384.56,738.7394 2471.02,738.7394" fill="none" id="primaryAi-to-aiEgress" style="stroke:#334155;stroke-width:1.2;"/><polygon fill="#334155" points="2476.02,738.7394,2467.02,734.7394,2471.02,738.7394,2467.02,742.7394,2476.02,738.7394" style="stroke:#334155;stroke-width:1.2;stroke-linejoin:miter;stroke-miterlimit:10;"/></g><!--link backupAi to aiEgress--><g class="link" data-entity-1="ent0019" data-entity-2="ent0020" data-link-type="dependency" data-source-line="51" id="lnk30"><path d="M2178.4,589.6694 C2266.66,625.2694 2396.9728,677.8295 2477.0728,710.1295" fill="none" id="backupAi-to-aiEgress" style="stroke:#334155;stroke-width:1.2;"/><polygon fill="#334155" points="2481.71,711.9994,2474.859,704.9238,2477.0728,710.1295,2471.8671,712.3433,2481.71,711.9994" style="stroke:#334155;stroke-width:1.2;stroke-linejoin:miter;stroke-miterlimit:10;"/></g><!--link aiEgress to internet--><g class="link" data-entity-1="ent0020" data-entity-2="ent0022" data-link-type="dependency" data-source-line="52" id="lnk31"><path d="M2622.1,755.0694 C2643.28,759.8594 2660.8637,763.844 2679.5237,768.074" fill="none" id="aiEgress-to-internet" style="stroke:#334155;stroke-width:1.2;"/><polygon fill="#334155" points="2684.4,769.1794,2676.507,763.2886,2679.5237,768.074,2674.7384,771.0907,2684.4,769.1794" style="stroke:#334155;stroke-width:1.2;stroke-linejoin:miter;stroke-miterlimit:10;"/></g><!--link panel to paneldb--><g class="link" data-entity-1="ent0004" data-entity-2="ent0005" data-link-type="dependency" data-source-line="55" id="lnk33"><path d="M518.68,356.7294 C561.57,353.2494 621.47,348.8594 674.17,346.7394 C872.46,338.7494 1369.23,326.5194 1567.17,340.7394 C1578.08,341.5194 1584.5159,342.0914 1595.8059,343.4514" fill="none" id="panel-to-paneldb" style="stroke:#334155;stroke-width:1.2;"/><polygon fill="#334155" points="1600.77,344.0494,1592.313,339.0017,1595.8059,343.4514,1591.3562,346.9443,1600.77,344.0494" style="stroke:#334155;stroke-width:1.2;stroke-linejoin:miter;stroke-miterlimit:10;"/></g><!--link panel to aiController--><g class="link" data-entity-1="ent0004" data-entity-2="ent0006" data-link-type="dependency" data-source-line="56" id="lnk34"><path d="M518.83,364.3894 C620.47,369.0294 827.7852,378.4913 964.6852,384.7413" fill="none" id="panel-to-aiController" style="stroke:#334155;stroke-width:1.2;"/><polygon fill="#334155" points="969.68,384.9694,960.8718,380.5631,964.6852,384.7413,960.5069,388.5548,969.68,384.9694" style="stroke:#334155;stroke-width:1.2;stroke-linejoin:miter;stroke-miterlimit:10;"/><text fill="#000000" font-family="Arial" font-size="13" lengthAdjust="spacing" textLength="264.0308" x="675.17" y="368.0163">dashboard + POST /api/ai-routing/switch</text></g><!--link aiController to paneldb--><g class="link" data-entity-1="ent0006" data-entity-2="ent0005" data-link-type="dependency" data-source-line="57" id="lnk35"><path d="M1224.44,383.9294 C1337.3,377.8494 1494.9572,369.3482 1595.6172,363.9282" fill="none" id="aiController-to-paneldb" style="stroke:#334155;stroke-width:1.2;"/><polygon fill="#334155" points="1600.61,363.6594,1591.408,360.1491,1595.6172,363.9282,1591.8381,368.1375,1600.61,363.6594" style="stroke:#334155;stroke-width:1.2;stroke-linejoin:miter;stroke-miterlimit:10;"/><text fill="#000000" font-family="Arial" font-size="13" lengthAdjust="spacing" textLength="311.8667" x="1255.17" y="361.7163">persist auto / primary / backup / forced_fallback</text></g><!--link aiController to normalXray--><g class="link" data-entity-1="ent0006" data-entity-2="ent0014" data-link-type="dependency" data-source-line="58" id="lnk36"><path d="M1118.99,417.5094 C1144.8,451.1194 1189.6,510.9194 1224.17,564.7394 C1238.8,587.5094 1231.61,602.7894 1254.17,617.7394 C1370.9,695.0794 1448.99,578.6294 1567.17,653.7394 C1632.38,695.1894 1667.3692,779.5359 1682.2692,824.2459" fill="none" id="aiController-to-normalXray" style="stroke:#334155;stroke-width:1.2;stroke-dasharray:7,7;"/><polygon fill="#334155" points="1683.85,828.9894,1684.7993,819.1864,1682.2692,824.2459,1677.2097,821.7157,1683.85,828.9894" style="stroke:#334155;stroke-width:1.2;stroke-linejoin:miter;stroke-miterlimit:10;"/><text fill="#000000" font-family="Arial" font-size="13" lengthAdjust="spacing" textLength="149.8872" x="1336.17" y="613.8063">probe / render / restart</text></g><!--link normalXray to aiController--><g class="link" data-entity-1="ent0014" data-entity-2="ent0006" data-link-type="dependency" data-source-line="68" id="lnk45"><path d="M1663.07,829.0194 C1639.26,808.5794 1603.56,781.6294 1567.17,767.7394 C1501.76,742.7794 1305.22,779.6594 1254.17,731.7394 C1199.19,680.1294 1253.69,634.1294 1224.17,564.7394 C1199.49,506.7394 1155.8413,453.2 1126.7413,420.98" fill="none" id="normalXray-to-aiController" style="stroke:#334155;stroke-width:1.2;"/><polygon fill="#334155" points="1123.39,417.2694,1126.4539,426.6295,1126.7413,420.98,1132.3909,421.2675,1123.39,417.2694" style="stroke:#334155;stroke-width:1.2;stroke-linejoin:miter;stroke-miterlimit:10;"/><text fill="#000000" font-family="Arial" font-size="13" lengthAdjust="spacing" textLength="159.1104" x="1331.17" y="727.8063">access.log / route status</text></g><!--link aiController to primaryAi--><g class="link" data-entity-1="ent0006" data-entity-2="ent0018" data-link-type="dependency" data-source-line="59" id="lnk37"><path d="M1135.96,417.4494 C1162.23,436.9794 1197.22,464.9794 1224.17,493.7394 C1239.86,510.4794 1234.54,523.8694 1254.17,535.7394 C1321.78,576.6094 1902.89,576.6394 1958.51,632.7394 C1978.08,652.4694 1949.08,673.0994 1966.51,694.7394 C1980.06,711.5494 1995.7515,720.4356 2016.1415,726.8656" fill="none" id="aiController-to-primaryAi" style="stroke:#334155;stroke-width:1.2;stroke-dasharray:7,7;"/><polygon fill="#334155" points="2020.91,728.3694,2013.5297,721.8478,2016.1415,726.8656,2011.1237,729.4774,2020.91,728.3694" style="stroke:#334155;stroke-width:1.2;stroke-linejoin:miter;stroke-miterlimit:10;"/><text fill="#000000" font-family="Arial" font-size="13" lengthAdjust="spacing" textLength="106.4629" x="1639.84" y="573.7863">probe candidate</text></g><!--link aiController to backupAi--><g class="link" data-entity-1="ent0006" data-entity-2="ent0019" data-link-type="dependency" data-source-line="60" id="lnk38"><path d="M1141.52,417.3694 C1171.92,434.6994 1214.13,456.1794 1254.17,467.7394 C1512.54,542.3494 1827.1801,554.5872 1985.8201,555.6072" fill="none" id="aiController-to-backupAi" style="stroke:#334155;stroke-width:1.2;stroke-dasharray:7,7;"/><polygon fill="#334155" points="1990.82,555.6394,1981.8459,551.5816,1985.8201,555.6072,1981.7945,559.5814,1990.82,555.6394" style="stroke:#334155;stroke-width:1.2;stroke-linejoin:miter;stroke-miterlimit:10;"/><text fill="#000000" font-family="Arial" font-size="13" lengthAdjust="spacing" textLength="180.7495" x="1602.84" y="529.7163">local Docker status / restart</text></g><!--link panel to normalXray--><g class="link" data-entity-1="ent0004" data-entity-2="ent0014" data-link-type="dependency" data-source-line="61" id="lnk39"><path d="M518.77,355.2794 C559.19,354.1794 611.52,360.0594 644.17,391.7394 C694.22,440.2994 624.38,496.9194 674.17,545.7394 C762.76,632.6094 1133.57,556.9694 1224.17,641.7394 C1265.26,680.1894 1212.45,726.9794 1254.17,764.7394 C1306.25,811.8694 1499.12,791.3594 1567.17,808.7394 C1587.68,813.9794 1604.7803,819.6923 1624.3003,827.1623" fill="none" id="panel-to-normalXray" style="stroke:#334155;stroke-width:1.2;stroke-dasharray:7,7;"/><polygon fill="#334155" points="1628.97,828.9494,1621.9941,821.9969,1624.3003,827.1623,1619.1348,829.4685,1628.97,828.9494" style="stroke:#334155;stroke-width:1.2;stroke-linejoin:miter;stroke-miterlimit:10;"/><text fill="#000000" font-family="Arial" font-size="13" lengthAdjust="spacing" textLength="209.0156" x="992.67" y="590.7663">status / controlled management</text></g><!--link panel to dns--><g class="link" data-entity-1="ent0004" data-entity-2="ent0002" data-link-type="dependency" data-source-line="62" id="lnk40"><path d="M518.62,354.6094 C559.5,353.0494 612.46,358.6694 644.17,391.7394 C721.31,472.2094 595.27,561.9994 674.17,640.7394 C687,653.5394 923.7792,675.7115 1035.4792,685.5315" fill="none" id="panel-to-dns" style="stroke:#334155;stroke-width:1.2;stroke-dasharray:7,7;"/><polygon fill="#334155" points="1040.46,685.9694,1031.8449,681.1966,1035.4792,685.5315,1031.1443,689.1658,1040.46,685.9694" style="stroke:#334155;stroke-width:1.2;stroke-linejoin:miter;stroke-miterlimit:10;"/><text fill="#000000" font-family="Arial" font-size="13" lengthAdjust="spacing" textLength="105.4663" x="754.67" y="636.8063">failover updates</text></g><!--link panel to backup--><g class="link" data-entity-1="ent0004" data-entity-2="ent0007" data-link-type="dependency" data-source-line="63" id="lnk41"><path d="M518.68,355.5594 C627.88,343.7694 860.42,317.9694 940.17,303.7394 C963.19,299.6294 983.0345,295.3912 1005.8445,289.9912" fill="none" id="panel-to-backup" style="stroke:#334155;stroke-width:1.2;stroke-dasharray:7,7;"/><polygon fill="#334155" points="1010.71,288.8394,1001.0306,287.0203,1005.8445,289.9912,1002.8736,294.8051,1010.71,288.8394" style="stroke:#334155;stroke-width:1.2;stroke-linejoin:miter;stroke-miterlimit:10;"/><text fill="#000000" font-family="Arial" font-size="13" lengthAdjust="spacing" textLength="128.9844" x="743.17" y="299.8063">render and manage</text></g><!--link backup to backupAi--><g class="link" data-entity-1="ent0007" data-entity-2="ent0019" data-link-type="dependency" data-source-line="64" id="lnk42"><path d="M1150.21,293.5194 C1174.31,307.4194 1202.37,325.8594 1224.17,346.7394 C1241,362.8594 1234.64,377.0294 1254.17,389.7394 C1321,433.2194 1880.39,510.8094 1958.51,526.7394 C1969.02,528.8794 1975.0863,530.1341 1986.0163,532.4241" fill="none" id="backup-to-backupAi" style="stroke:#334155;stroke-width:1.2;stroke-dasharray:7,7;"/><polygon fill="#334155" points="1990.91,533.4494,1982.9215,527.6888,1986.0163,532.4241,1981.281,535.5188,1990.91,533.4494" style="stroke:#334155;stroke-width:1.2;stroke-linejoin:miter;stroke-miterlimit:10;"/><text fill="#000000" font-family="Arial" font-size="13" lengthAdjust="spacing" textLength="128.3052" x="1628.84" y="464.6363">relay when enabled</text></g><!--link backup to internet--><g class="link" data-entity-1="ent0007" data-entity-2="ent0022" data-link-type="dependency" data-source-line="65" id="lnk43"><path d="M1182.37,240.0094 C1321.12,196.8794 1592.38,116.7394 1691.84,116.7394 C1691.84,116.7394 1691.84,116.7394 2550.01,116.7394 C2685.02,116.7394 2719.213,632.256 2725.283,750.186" fill="none" id="backup-to-internet" style="stroke:#334155;stroke-width:1.2;stroke-dasharray:7,7;"/><polygon fill="#334155" points="2725.54,755.1794,2729.0721,745.9857,2725.283,750.186,2721.0827,746.3969,2725.54,755.1794" style="stroke:#334155;stroke-width:1.2;stroke-linejoin:miter;stroke-miterlimit:10;"/><text fill="#000000" font-family="Arial" font-size="13" lengthAdjust="spacing" textLength="92.2441" x="2044.78" y="112.8063">direct fallback</text></g><!--link aiController to dynamicRoute--><g class="link" data-entity-1="ent0006" data-entity-2="ent0015" data-link-type="dependency" data-source-line="67" id="lnk44"><path d="M1026.24,417.4294 C917.43,463.0694 727.04,564.1294 779.15,696.2394 C820.99,802.3194 857.43,823.5594 954.3,883.7394 C966.51,891.3294 975.4638,895.8694 989.3338,901.1194" fill="none" id="aiController-to-dynamicRoute" style="stroke:#334155;stroke-width:1.2;"/><polygon fill="#334155" points="994.01,902.8894,987.0088,895.9624,989.3338,901.1194,984.1768,903.4443,994.01,902.8894" style="stroke:#334155;stroke-width:1.2;stroke-linejoin:miter;stroke-miterlimit:10;"/><text fill="#000000" font-family="Arial" font-size="13" lengthAdjust="spacing" textLength="156.6665" x="729.17" y="692.3063">generate selected route</text></g><!--link dynamicRoute to normalXray--><g class="link" data-entity-1="ent0015" data-entity-2="ent0014" data-link-type="dependency" data-source-line="69" id="lnk46"><path d="M1200.21,927.6294 C1295.85,926.7194 1442.4,920.8394 1567.17,896.7394 C1585.07,893.2794 1599.1916,889.5148 1616.7016,883.8648" fill="none" id="dynamicRoute-to-normalXray" style="stroke:#334155;stroke-width:1.2;"/><polygon fill="#334155" points="1621.46,882.3294,1611.6665,881.2864,1616.7016,883.8648,1614.1232,888.8998,1621.46,882.3294" style="stroke:#334155;stroke-width:1.2;stroke-linejoin:miter;stroke-miterlimit:10;"/><text fill="#000000" font-family="Arial" font-size="13" lengthAdjust="spacing" textLength="154.1655" x="1333.67" y="892.8063">merged into config.json</text></g><!--link control to tailnet--><g class="link" data-entity-1="ent0003" data-entity-2="ent0023" data-link-type="dependency" data-source-line="70" id="lnk47"><path d="M376.3603,448.7953 C375.3228,448.9537 374.2789,449.1152 373.2287,449.2799 C369.0279,449.9387 364.7266,450.6479 360.337,451.4115 C342.7787,454.466 323.8084,458.3903 304.2138,463.4306 C225.835,483.5919 137.465,521.6094 89.5,593.2394 C11,710.4694 256.3682,764.1389 384.3182,783.8289" fill="none" id="control-to-tailnet" style="stroke:#334155;stroke-width:1.2;stroke-dasharray:7,7;"/><polygon fill="#334155" points="389.26,784.5894,380.9731,779.267,384.3182,783.8289,379.7563,787.174,389.26,784.5894" style="stroke:#334155;stroke-width:1.2;stroke-linejoin:miter;stroke-miterlimit:10;"/><text fill="#000000" font-family="Arial" font-size="13" lengthAdjust="spacing" textLength="207.0225" x="37.35" y="606.3063">SSH manage normal data plane</text></g><!--link tailnet to normal--><g class="link" data-entity-1="ent0023" data-entity-2="ent0013" data-link-type="dependency" data-source-line="71" id="lnk48"><path d="M530.27,793.7394 C612.065,793.7394 751.9775,793.7394 872.2138,793.7394 C902.2728,793.7394 931.1021,793.7394 957.4861,793.7394 C960.7841,793.7394 964.0439,793.7394 967.2631,793.7394 C968.0679,793.7394 963.8702,793.7394 964.6699,793.7394" fill="none" id="tailnet-to-normal" style="stroke:#334155;stroke-width:1.2;stroke-dasharray:7,7;"/><polygon fill="#334155" points="969.6699,793.7394,960.6699,789.7394,964.6699,793.7394,960.6699,797.7394,969.6699,793.7394" style="stroke:#334155;stroke-width:1.2;stroke-linejoin:miter;stroke-miterlimit:10;"/><text fill="#000000" font-family="Arial" font-size="13" lengthAdjust="spacing" textLength="209.771" x="702.67" y="789.8063">strict host-key + public-key SSH</text></g><!--link panel to prometheus--><g class="link" data-entity-1="ent0004" data-entity-2="ent0008" data-link-type="dependency" data-source-line="73" id="lnk49"><path d="M518.61,336.6394 C560.96,319.1794 620.22,296.6194 674.17,282.7394 C789.95,252.9394 838.4,305.4794 940.17,242.7394 C949.43,237.0294 945.31,228.8694 954.3,222.7394 C980.91,204.5794 1011.0932,196.5465 1039.7332,192.3365" fill="none" id="panel-to-prometheus" style="stroke:#334155;stroke-width:1.2;"/><polygon fill="#334155" points="1044.68,191.6094,1035.194,188.9608,1039.7332,192.3365,1036.3574,196.8758,1044.68,191.6094" style="stroke:#334155;stroke-width:1.2;stroke-linejoin:miter;stroke-miterlimit:10;"/><text fill="#000000" font-family="Arial" font-size="13" lengthAdjust="spacing" textLength="148.0972" x="733.17" y="238.8063">authenticated /metrics</text></g><!--link normalMetrics to prometheus--><g class="link" data-entity-1="ent0016" data-entity-2="ent0008" data-link-type="dependency" data-source-line="74" id="lnk50"><path d="M996.77,843.9294 C981.67,840.1494 966.94,834.3794 954.3,825.7394 C860.05,761.3094 815.45,712.0194 833.15,599.2394 C860.4,425.5794 825.67,342.5394 954.3,222.7394 C978.5,200.1994 1009.8064,192.0227 1039.7464,188.9327" fill="none" id="normalMetrics-to-prometheus" style="stroke:#334155;stroke-width:1.2;"/><polygon fill="#334155" points="1044.72,188.4194,1035.3569,185.3645,1039.7464,188.9327,1036.1782,193.3222,1044.72,188.4194" style="stroke:#334155;stroke-width:1.2;stroke-linejoin:miter;stroke-miterlimit:10;"/><text fill="#000000" font-family="Arial" font-size="13" lengthAdjust="spacing" textLength="48.6357" x="783.17" y="612.3063">metrics</text></g><!--link aiMetrics to tunnel--><g class="link" data-entity-1="ent0021" data-entity-2="ent0012" data-link-type="dependency" data-source-line="75" id="lnk51"><path d="M2005.03,677.5294 C1989.69,681.3594 1973.74,684.6894 1958.51,686.7394 C1880.95,697.1794 1316.09,726.6094 1254.17,678.7394 C1214.42,648.0094 1258.87,606.0794 1224.17,569.7394 C1046.63,383.8294 862.65,565.5394 674.17,390.7394 C648.45,366.8894 668.48,343.0294 644.17,317.7394 C618.56,291.0994 587.5598,273.9876 554.4998,260.9176" fill="none" id="aiMetrics-to-tunnel" style="stroke:#334155;stroke-width:1.2;"/><polygon fill="#334155" points="549.85,259.0794,556.7491,266.1081,554.4998,260.9176,559.6903,258.6684,549.85,259.0794" style="stroke:#334155;stroke-width:1.2;stroke-linejoin:miter;stroke-miterlimit:10;"/><text fill="#000000" font-family="Arial" font-size="13" lengthAdjust="spacing" textLength="93.3105" x="1364.17" y="674.8063">exporter HTTP</text></g><!--link tunnel to prometheus--><g class="link" data-entity-1="ent0012" data-entity-2="ent0008" data-link-type="dependency" data-source-line="76" id="lnk52"><path d="M550.12,227.2694 C685.14,217.4994 931.8431,199.6405 1039.8231,191.8205" fill="none" id="tunnel-to-prometheus" style="stroke:#334155;stroke-width:1.2;"/><polygon fill="#334155" points="1044.81,191.4594,1035.5446,188.1199,1039.8231,191.8205,1036.1224,196.099,1044.81,191.4594" style="stroke:#334155;stroke-width:1.2;stroke-linejoin:miter;stroke-miterlimit:10;"/><text fill="#000000" font-family="Arial" font-size="13" lengthAdjust="spacing" textLength="119.6406" x="747.67" y="196.1463">loopback forwards</text></g><!--link prometheus to grafana--><g class="link" data-entity-1="ent0008" data-entity-2="ent0009" data-link-type="dependency" data-source-line="77" id="lnk53"><path d="M1149.56,187.7394 C1266.88,187.7394 1547.18,187.7394 1649.53,187.7394" fill="none" id="prometheus-to-grafana" style="stroke:#334155;stroke-width:1.2;"/><polygon fill="#334155" points="1654.53,187.7394,1645.53,183.7394,1649.53,187.7394,1645.53,191.7394,1654.53,187.7394" style="stroke:#334155;stroke-width:1.2;stroke-linejoin:miter;stroke-miterlimit:10;"/></g><!--link prometheus to reporter--><g class="link" data-entity-1="ent0008" data-entity-2="ent0010" data-link-type="dependency" data-source-line="78" id="lnk54"><path d="M1149.56,194.5794 C1249.13,207.8294 1464.7537,236.52 1591.7837,253.42" fill="none" id="prometheus-to-reporter" style="stroke:#334155;stroke-width:1.2;"/><polygon fill="#334155" points="1596.74,254.0794,1588.3461,248.9274,1591.7837,253.42,1587.2911,256.8575,1596.74,254.0794" style="stroke:#334155;stroke-width:1.2;stroke-linejoin:miter;stroke-miterlimit:10;"/></g><!--link reporter to reports--><g class="link" data-entity-1="ent0010" data-entity-2="ent0011" data-link-type="dependency" data-source-line="79" id="lnk55"><path d="M1788.93,266.7394 C1854.71,266.7394 1936.48,266.7394 1999.92,266.7394" fill="none" id="reporter-to-reports" style="stroke:#334155;stroke-width:1.2;"/><polygon fill="#334155" points="2004.92,266.7394,1995.92,262.7394,1999.92,266.7394,1995.92,270.7394,2004.92,266.7394" style="stroke:#334155;stroke-width:1.2;stroke-linejoin:miter;stroke-miterlimit:10;"/></g><!--link control to GMN56--><g class="link" data-entity-1="ent0003" data-entity-2="ent0057" data-link-type="association" data-source-line="82" id="lnk58"><path d="M431.6263,448.8773 C431.1284,449.0029 430.6254,449.1289 430.1175,449.2552 C429.1016,449.5078 428.066,449.7616 427.0117,450.0159 C410.1428,454.085 388.4844,458.2881 366.2762,459.8469 C321.86,462.9644 275.245,455.5044 260.35,415.2394 C241.54,364.3894 241.54,222.0894 260.35,171.2394 C274.05,134.2094 309.13,111.8394 346.13,98.3294" fill="none" id="control-GMN56" style="stroke:#334155;stroke-width:1.2;stroke-dasharray:7,7;"/></g><?plantuml-src ZLVRRkCs47tNLx3nIuk5vTXPsri_571igHjWByRQksW10mjQecms5AabgIH6qN_l3AchtG3DGo29PuOpSmvdw9_iYUMC589o6GYMMM8LqVnuiYJbcYMMAncOHouBgcbE3ZHvF6fLodIbXD9a4Bk_3Y9HUQ4aatPhpu8HT47bKR0En9negfwvF9AC2jDTSPuJfINJP7pRMLXghPwhBU_ktewdqyl5tOadZv8PGyRXfBEOieoMmiPAsayKCbrgJiNr-ewzsANWHvb3w2I1Vqm7WUKMSlX3qpFveagB8M-eP88CoKQhj7Jb0PV9YLj8jDGi26XY8SeRM7yvavNWuEg6K4CIznWaGfKfB9S7mHEo_hJTovzN-2qJLBDV73ILXWoYstWIHq4WLSh8pGhYrqgGZO3zlR_goo2AuraSaxy3qXQVtFJYtSjOKFD8tf1lfRSkN1g3zNsqX4q8IQcb1sfW9xSIfeUzX1qoVYmrTLbIcH9ZgUtOfmVOVHhDe_l-tik7fbnLt8BflSofBAaWEIRqXfZanD9Ii9GKMXsyLyfRF1ciujW7rt7zkS1WmCizAB4i73TxgPa0Yg3iNhFEry431d4KtwtcVIz0Jiv0-QNnoJIl28ycqQGF_rtJZ4hgi4V_3C2xw1qelmTSKov0AgnGscB66l8pGoNXenUzIzxvqHK8E5Z5gsZUuy1x8BHCkNM5ppWuwjYPLmlFNYg_s-rxOalfs1TA5LWFWg4uDtu5LHRD8Oj_QfrzKZg7wguX5A-rlTn1KYQXS136jxVXR1gERz-5lzuvDzB31z4gNiVJImrwShvzYBPR8FnBjFpmiFkpO-SErc0zZfVHzAAGPqbpE1-wab6cwH5FvbvI_ht0e-KFYeUXs1ZePHNVn-E-8yngsDJa3KcMwHCtIdUY-CYivWbIVnU_ZMTjBQ2QNmjZDOCsiL5AL1B5HzVuvj7wCkEDvZdLPx9ys4j9RVZZHrWyBoRpyMnMASsjBpaARJrVBllcbQZHMgW4UL398yJz0eKQKZx4kFOIQNWt3-UpSDPnxVN-ckS7cRA2mJzuyRHach5KvOGTDNJDAhV8lM1sqNez_N-btCld4vCWp5nP1ag7ZOGwixHo-H_bhNhW0pPPoVnnvTLBWwj0hVeiF05WBr7PYyd4wzX_R8GS-3PBXiFVN1jTG5n6YIT6d6e8hEbpW2k8wCXmKND3B9pmZ2T1Pn6nJO0BC9D34CShm9RZ1J5CG3-27WVmijBI9RuXxXLuwm_HDKT1OzRxsb3O3RcxOnZsKl4oWpaiN7zmJEBcaZv1PUa11dVWPuLBpNVzpfTUnrv02pEdWw8w1NriFcztP4GBFWBbLWTvP9wvJKv1pwpZ6MbWsd23pGzk8gE6bL7Tq4SaKpfXwVSwwBuppE-2LfWkOALH_Tezm1ZJzjgiIvotIg3tScZBx1hSOQrtL754mXnfj_6rkWghmIMrtvJ0WAH7XdskO-LLd04RwWdybmN6Opg0gYwBEaES5zvJfP7BUFsqT5GpYHIdNM1777wQDke8hcdhDU05EJAukK5uhP2HTtQf-0lHq2G1nOP27R5ipfMlJj1pVtLWSwQFi0K4h8Y_guH_6RYkrZSZpARk3mit3trPwgc5ynPllf85DQoboL44ZSkIap9s-CZE8Ed2tThS2xZhdOps2h50wK9nBKyebc2K-muOzCVDbLKDQricGgf1lMW7-_lTRXDKdw-SD9CU3iapd4CGIhkCwEh-Slcvleu4pRsa_Mfm80811sKj30oLrPg5-V3L0DItrgeTuY207nC6xXe4_7UhJ9msKyLmz5e0_YX1OGvLS-Q0-1i45736wmgNB0n0s6Z1Wdy1?></g></svg>